<?xml version="1.0" encoding="utf-8"?>
<!-- Generator: Adobe Illustrator 23.0.4, SVG Export Plug-In . SVG Version: 6.00 Build 0)  -->
<svg version="1.1" id="Layer_1" xmlns="http://www.w3.org/2000/svg" xmlns:xlink="http://www.w3.org/1999/xlink" x="0px" y="0px"
	 viewBox="0 0 700 700" style="enable-background:new 0 0 700 700;" xml:space="preserve">
<style type="text/css">
	.st0{fill:#8FBC8F;stroke:#6E6E6E;stroke-width:0.4;}
	.st1{fill:#C1272D;}
	.st2{fill:#FEFEFE;}
	.st3{fill:#FFFF00;}
	.st4{fill:#149400;}
	.st5{fill:#B3D5C9;stroke:#787878;stroke-miterlimit:10;}
	.st6{font-family:'Futura-Medium';}
	.st7{font-size:11px;}
	.st8{fill:#3F7BFF;}
	.st9{font-family:'SignPainter-HouseScript';}
	.st10{font-size:81.4916px;}
</style>
<desc>Map version: 1.1.2
Copyright (c) 2015 Highsoft AS, Based on data from Natural Earth</desc>
<title>Asia</title>
<g id="admin0">
	<path id="IR" class="st0" d="M139.1,419.3l-2.7,0.8l0.3-0.6l3.7-1.8L139.1,419.3z M92.3,358.8l1.1-0.4l0.6,0.2l1.5-1.6l4.4-2.9
		l2.4,1.6l-0.1,1.7l-1.3,1.3l2.8,2.2l1.2-0.3l1.3,4.3l4.7,1l1.6,1.8l2.8,1.5l3.8,0.7l7.2-1.9l2.4,0.3l-0.5-2.7l3.9-1.1l0.3-1.3
		l2.6-1.7l4-0.2l0.6-0.9l3.6-0.2l0.6,1.5l6.7,1.2l2.6,1l0.1,0.9l3,1.5l1.6,2l3.3-0.2l1.1,5.3l-0.8,4.2l-1.6,1.6l0.9,1l-1.8,1.2
		l0.2,2.4l1.7,0.4l-1.4,2l1.4,4.6l0.1,3.8l3.9,0.4l0.6,2.8l-4.1,5l2.1,2.2l2.9,4.2l3.9,1.2l0.5,5.1l2.4,0.5l-0.7,2.4h-1.8l-4.1,2.1
		l-1,5.1l-0.8,0.7l-3.6-0.9l-0.4-0.8l-3,0.6l-5-0.9l-2.9,0.2l-3.9-1l-1.6-5.2l-1-1.4l-2.1-0.2l-3.1,1.1l-3.9,2.6l-2.3-1l-2.7,0.1
		l-1.5-1.3l-3.9-1.9l-0.7-1.2l-4.9-1.5l-1.6-3.6l-1.9-2v-1.5l-2.5-2.4l-0.3-1.3l-2.2,0.9l-3-1.7v1.6l-1.9,0.7l-2.4-2.5l-0.1-2.5
		l-1.6-0.1l0.6-3.9l-2.3-3.4h-1.1l-3.9-2.4l-1.9-3.4l-2.4-1.6l0.1-2.5l2.1-3.4l1.2-0.7l-1-1.4l1.4-1.8l-4.3-0.6l-0.6-2.2l-1.2-0.6
		l-1.1-3.2l-0.9-3l-1.8-1.3l0.1-4.6l-1.1-3l1.6-0.2l0.7-1.8l1.1,0.6l3,3.3L92.3,358.8z">
		<desc  xmlns="http://www.highcharts.com/svg/namespace">
			<name>Iran</name>
			<labelrank>2</labelrank>
			<country-abbrev>Iran</country-abbrev>
			<subregion>Southern Asia</subregion>
			<region-wb>Middle East &amp; North Africa</region-wb>
			<iso-a3>IRN</iso-a3>
			<iso-a2>IR</iso-a2>
			<woe-id>23424851</woe-id>
			<continent>Asia</continent>
			<hc-middle-x>0.56</hc-middle-x>
			<hc-middle-y>0.52</hc-middle-y>
			<hc-key>ir</hc-key>
			<hc-a2>IR</hc-a2>
		</desc>
	</path>
	<path id="PH" class="st0" d="M435.6,510.4l-0.1-0.2l1.8-1.1l-0.3,0.6L435.6,510.4z M442,506.8l-1.4-0.3l0.5-1l1.7,0.5L442,506.8z
		 M445.7,503.9l-1.2-0.8l1.2-0.7l1.2,0.6L445.7,503.9z M463.1,488l-0.2,0.1l0.6-1.5l0.5,1.2L463.1,488z M456.4,486.8l-1,2.1
		l-2.2-0.8l1.6-1.6L456.4,486.8z M461.7,485.1l0.2,2.3l-1-0.9v-1L461.7,485.1z M448.1,484.7l-0.4,0.6l-0.7-0.2l0.8-1.2L448.1,484.7z
		 M450.5,482.8l1.4,0.6l-1.7,4.5l0.8,2.4l-1.3,1.5l-2-1.8l-1-1.8l2.2-1.4l-0.4-1.9l0.8-1.8L450.5,482.8z M453.8,482.2v3.5l-2.9,3.8
		l0.5-2.4L453.8,482.2z M445.9,479.3l4.1,1.2l-0.2,1.4l-2.4,2.3l-2.9,1.3l0.6-5.7L445.9,479.3z M435.5,478.9l-0.7-1.8l2.1,1.1
		l-0.3,1.2L435.5,478.9z M452.6,476.3l1.4,2.9l-3-2.1l-1.1,1.3l0.2-3.1L452.6,476.3z M445.1,475.3l-0.5,2.3l-0.5-0.7l0.4-1.5
		L445.1,475.3z M440.4,477.3l-1.7-3.5l-2-2.3l3.9,0.2l1.7,1.6v2.1L440.4,477.3z M443.8,471.1l1,0.4l-0.5,1.2l-0.8-0.6L443.8,471.1z
		 M454.4,468.3l0.9,0.9l-0.3,1.4l-1.5-0.4L454.4,468.3z M443.9,464.1l0.3,1.5l-0.4,0.4l-0.5-1.8L443.9,464.1z M459.4,484.2l0.6,3
		l-1.4-2l0.1,1.7l-1.1-0.6l-0.2-3l-1.7-0.5l0.2-2.5l2.4,0.4l-0.7-0.8l0.2-1l-2.4-2l-0.5-1.5l4-0.3l1.6,1.5l0.5,4.5l-1.5,0.8
		l-1.2-1.2l0.2,2.6L459.4,484.2z M454.8,503.5l-0.2-3.1l1-1.4l-2.6-1.7l-2.4,1.5l-0.3-1.1l-1.3,2.1l-0.1-2.1l-1.3,0.3l-1.7,3.7
		l-0.9-0.3l0.8-3.9l0.7-0.9l2.9-0.8l0.6-1.7l3.1-0.5l0.6,2.1l1.7-0.4l0.7-1.8l1.6,0.4v-2.6l1.6,1.1l0.4-1.2l1.5,0.2l-0.7-3l2.5,0.8
		l2.6,5.7l-0.2,1.8l1,2.5l-1.5,2.4l-0.2,2.2l-0.7-2.5l-1.3-2.3v2.1l-1.3-0.5l-0.4,1.9l0.8,0.4l0.5,2.6l-1.2,1.7l-1.5-1.2l-3.9-1.4
		L454.8,503.5z M428.9,491.2l-2.1,2l-3.6,2.6l1.9-3.3l1.6-0.8l3.6-4.6l2-1.5l-0.3-2l1.2-2.3l0.3,1.2l0.6,2.8l-2.1,2.4l-2,0.8
		L428.9,491.2z M445.3,469.4l1-2.1l1.8,0.3l1.1,1.4h2.9l1.2,1l-2,0.5l2.6,1.6l0.1,3.3l-3.6-2l-0.8-2l-2.9-2.3l0.3,3.7l-1.3-1.9
		l-2.8-1.7l-1.3,1.5l-1.8,0.1l-0.6-1.2l-1.3,0.5l-0.3-1.7l1.8-1.6l-2-1.4l0.3,1.5l-2.4-1.3l-1.6-5.1l0.9-1.6l1.5,1l-0.1-3.6l0.5-2.8
		l-0.5-0.8l1.1-4.7l2.2-0.6l4.1,1.6l1.1-1.2l-0.2,4.3l1.8,2.4l-1.2,3.7l-2.9,1.9l0.2,1.2l-1.1,1.7l1.7,2.7l0.1,2.5L445.3,469.4z">
		<desc  xmlns="http://www.highcharts.com/svg/namespace">
			<name>Philippines</name>
			<labelrank>2</labelrank>
			<country-abbrev>Phil.</country-abbrev>
			<subregion>South-Eastern Asia</subregion>
			<region-wb>East Asia &amp; Pacific</region-wb>
			<iso-a3>PHL</iso-a3>
			<iso-a2>PH</iso-a2>
			<woe-id>23424934</woe-id>
			<continent>Asia</continent>
			<hc-middle-x>0.36</hc-middle-x>
			<hc-middle-y>0.10</hc-middle-y>
			<hc-key>ph</hc-key>
			<hc-a2>PH</hc-a2>
		</desc>
	</path>
	<path id="SA" class="st0" d="M77.2,469l-0.2,0.4l-1-1.1l0.8-0.3L77.2,469z M118.1,430.1l0.3,1.5l1.3,0.2l0.2,0.8l4.7,5.4l11.6,1.1
		l0.4-0.4l2.2,3.4l-2.7,9.5l-13.6,5.2l-13,2.3l-4.4,2.3l-2.5,3.4l-0.7,1.7l-2,0.7l-1.3-1.4h-5.8l-1.3-0.5l-6.4,0.6l-1.7-0.7l-1,0.9
		l0.3,2.6l-1.9,1.9l-0.3-1.4l-1.9-2.2l-0.2-1.4l-2.7-2l-2.5-3.6l-1.4-3.8l-2-2.1l-4.1-2.2l-2.7-4l-0.7-2.9l0.5-3l-3.1-5.8l-3.6-2.4
		l-0.7,0.2l-1.9-2.8l0.4-1.7l-2.7-3.1l-2.2-3.7l-3.2-3.9l-1.7-2.9l-2.6-0.2l1.2-6.2l4.9,0.6l2.1-1.6l1.2-1.9l3.2-0.7l2.3-2.6
		l-4.9-4.9l9.1-2.8l0.8-0.7l5.7,0.7l8,4.1l12.3,9l8.4,0.2l4.2,0.3l1.1,2.3l3.5-0.2l2.2,3.4l1.7,1.4l0.4,1.7l3.9,2.4l0.2,4.6l1.5,1.4
		l1.7,3.3l0.8,0.9L118.1,430.1z">
		<desc  xmlns="http://www.highcharts.com/svg/namespace">
			<name>Saudi Arabia</name>
			<labelrank>2</labelrank>
			<country-abbrev>Saud.</country-abbrev>
			<subregion>Western Asia</subregion>
			<region-wb>Middle East &amp; North Africa</region-wb>
			<iso-a3>SAU</iso-a3>
			<iso-a2>SA</iso-a2>
			<woe-id>23424938</woe-id>
			<continent>Asia</continent>
			<hc-middle-x>0.41</hc-middle-x>
			<hc-middle-y>0.48</hc-middle-y>
			<hc-key>sa</hc-key>
			<hc-a2>SA</hc-a2>
		</desc>
	</path>
	<path id="JP" class="st0" d="M468.7,407.7l2,0.3l-1.8,1l0.4-0.5L468.7,407.7z M475.2,400.2l-0.6-0.4l2.4-1.3l-1.2,1.3L475.2,400.2z
		 M480.4,388.6l0.8,0.4l-1.1,0.8l-0.3-0.8L480.4,388.6z M482.8,388.1l-0.3,0.9l-0.5-0.5l0.9-1.9L482.8,388.1z M478.8,378.6l-0.1,0.3
		l-0.9,1.1l0.1-1.7L478.8,378.6z M473.6,374.8l-0.1,2l-0.8,1.1V377L473.6,374.8z M499.9,368.3l-0.8,0.7l-0.3-0.4l1.4-1.7
		L499.9,368.3z M474.4,369.4l-0.7,1l0.6-2.8l0.7,0.2L474.4,369.4z M515.4,348.2l0.3,0.9l-1,0.6l0.1-2L515.4,348.2z M477,377.5
		l-1.6-3.9l1.3,0.6l3-2.8l2.4-0.6l0.3,1.6l3.1,0.3l-1,1.6l1.8-0.1l0.7,1.8l-1.6,2l-1.3,5.9l-3.1,2l-2-1.2l0.4-1.9l-0.6-2.2l2-3
		l-2.1-2.7L477,377.5z M499.3,370.9l-1.7,1l-0.8,2.1l-1.2-1.3l-3,0.9l-1.4,2.8l-1.7,0.4l-1-3.7l2.4-3.5l0.7,0.9l2-0.1l0.5-1.1
		l2.3-1.2L499.3,370.9z M528.7,333.8l1.4,1.5l1.7,4.5l-0.9,2.8l-1.7,2l0.3,2.1l-2-0.5l-0.6,2.6l0.6,2.7l-2,5.8l1.5,2.9l-1.8,0.8
		l-0.3,1.9l-2.1,1.6l-0.7-2.1l-2.9,0.5v1.9l-1.3,1.5l-0.3-2.7l-1.1,0.2l-1.5,2l-6.2,0.1l-1-1.3l-0.5,2l1.7,1.6l-3,1.2l-1.1,2.5
		l-2.4,0.3l-1.8-1.6l-0.1-2l1.2-2.3l-2.7-0.2l-4.8,1.4l-3.3,1.8l-2.7-0.8l-0.9,2.8l-2-1.1l-2.1,0.8l-1.9-0.9l0.4-1.5l2.1-0.2
		l4.4-4.1l1-1.4l2.1-0.9l1.5,0.7l5.1-1.3l5.8,0.6l1.3-1.4l-0.7-1l3.5-4.8l-0.1-2.6l2.5-1l-1.7,2.1l0.4,1.5l5.7-1.9l2.7-3.5l2.5-1.9
		l2.6-7.2l-0.1-1.7l-1.3-0.2l1.1-2.7l-0.8-1.2l2-1.6l0.1-2.2l1.6,2h2l0.2-2.2l-1.6,0.9l0.4-2.3l1.7,1L528.7,333.8z M525.1,327.6
		l-2.2,2.4l-1.1-0.8l0.7-2.4l-1.7-1.4l0.3-2.3l2.9-2l-0.2-2l3.2,1.2l1.2-1.3l-0.6-1.9l1.4-1.3l0.5-3.8l-1-3.1l1.6-2l4.9,5l4.5,2.4
		l4.1,0.9l2.2-2.3l-1.1,3.4l1.4,2.4l1.3-0.1l-4,2.3l-2.6-0.2l-2.4,1.8l-1.8,4.1l-7-3.5l-3.3,1.6l-1.2-1.2l-2,1.8l2,0.6l2.2,1.8
		L525.1,327.6z">
		<desc  xmlns="http://www.highcharts.com/svg/namespace">
			<name>Japan</name>
			<labelrank>2</labelrank>
			<country-abbrev>Japan</country-abbrev>
			<subregion>Eastern Asia</subregion>
			<region-wb>East Asia &amp; Pacific</region-wb>
			<iso-a3>JPN</iso-a3>
			<iso-a2>JP</iso-a2>
			<woe-id>23424856</woe-id>
			<continent>Asia</continent>
			<hc-middle-x>0.59</hc-middle-x>
			<hc-middle-y>0.52</hc-middle-y>
			<hc-key>jp</hc-key>
			<hc-a2>JP</hc-a2>
		</desc>
	</path>
	<path id="TH" class="st0" d="M336.5,499.6l0.7,0.5v0.9l-0.6,0.5L336.5,499.6z M356.3,481.2L356.3,481.2l0.8,1.8L356.3,481.2
		L356.3,481.2z M354.1,507.8l-1.1,2.4l-1.3-0.7l-1.9,1.3l-0.2-2.8l-4.3-1.9l-0.1,1.2l-2.1-1.9l0.2-1.2l-1.6-0.8l-2.4-3.3l-2.3-0.3
		l-1-1.8l0.2-2.3l2-6.1l0.1-1.6l1.9-2l1.8-3.3l-1.2-3.5l-1.4-2.7l0.1-2.5l-2.8-3l-1.9-3.4l1.6-1l0.6-4.4l-1.3-3.5l-3.6-3.7l0.3-0.6
		l-1.8-2.6l1.7-0.3l-0.5-1.6l1.6-4.2l2.3,0.5l2.2-0.9l4.2-3l0.7,0.6l2.1,0.7l-0.3,2.9l3.6-0.3l0.4,2.5l-1.2,3l0.7,1.7l-1.2,2.2
		l1.1,0.6l4.2-3.7l2.8,1.6l3.2-2.9l2.8,0.5l1.4,2.1l2.5,2.2l-0.1,4l1.3,1.8l1.7,0.5l1.2,1.7l-0.8,2.6l0.6,0.4l-0.7,2.7l-1,0.4
		l-1.9-0.4l-3.5,0.6l-1.6-0.3l-2.6,0.7l-2.5,3.4l-0.9,0.1l0.9,4.1l1.3,1.1l-0.2,1.3l0.2,0.5l0,0l0,0l-1.9-0.7l-2.4-2.1h-4.6l0.5-3.6
		l-4.2,0.5l0.1,5.6L343,482l-2.3,6.2l-0.5,2.4l0.5,4.1l2.8-0.4l0.6,3l1.4,1.4l-0.2,3.7l3.8,2.9h2.6L354.1,507.8z">
		<desc  xmlns="http://www.highcharts.com/svg/namespace">
			<name>Thailand</name>
			<labelrank>3</labelrank>
			<country-abbrev>Thai.</country-abbrev>
			<subregion>South-Eastern Asia</subregion>
			<region-wb>East Asia &amp; Pacific</region-wb>
			<iso-a3>THA</iso-a3>
			<iso-a2>TH</iso-a2>
			<woe-id>23424960</woe-id>
			<continent>Asia</continent>
			<hc-middle-x>0.46</hc-middle-x>
			<hc-middle-y>0.29</hc-middle-y>
			<hc-key>th</hc-key>
			<hc-a2>TH</hc-a2>
		</desc>
	</path>
	<path id="OM" class="st0" d="M152.9,450.2l-0.1-0.9l1-1.6l0.4,0.8L152.9,450.2z M141.2,426.3l-0.2,0.1l-0.1-0.5l0.6,0.1
		L141.2,426.3z M140.1,422.3l1.2-1.6l0.5,2.2l-0.7,1.5l-0.6-0.2L140.1,422.3z M136.6,438.7l-0.1-1.4l1.5-3.8l-0.4-0.9l2.5-0.7
		l-1.2-0.7l0.1-3l1.1,0.5l1.6-1.2l1.1,2.3l2.6,2.6l7.5,1.8l3.6,4.4l1.3,0.2v1.6l-2,3.7l-1.9,1.4l-1.7,3.6l-1.9-0.7l-1.7,3.9l0.7,3.5
		l-4.2,1.1L144,458l-1.3,3.1l-4.1,0.6l-1.8,4l-4.6,0.3l-4.2,1.7l-1.8-3l-3.7-7.9l13.6-5.2l2.7-9.5L136.6,438.7z">
		<desc  xmlns="http://www.highcharts.com/svg/namespace">
			<name>Oman</name>
			<labelrank>4</labelrank>
			<country-abbrev>Oman</country-abbrev>
			<subregion>Western Asia</subregion>
			<region-wb>Middle East &amp; North Africa</region-wb>
			<iso-a3>OMN</iso-a3>
			<iso-a2>OM</iso-a2>
			<woe-id>23424898</woe-id>
			<continent>Asia</continent>
			<hc-middle-x>0.75</hc-middle-x>
			<hc-middle-y>0.50</hc-middle-y>
			<hc-key>om</hc-key>
			<hc-a2>OM</hc-a2>
		</desc>
	</path>
	<path id="YE" class="st0" d="M130.8,486l2.5-0.1l1.7,0.7l-1.5,0.9l-2.6,0.2l-1.1-0.8L130.8,486z M128,467.7l-3.6,1.9l-0.2,3.1
		l-3.9,1.9l-3.7,1l-1.7,1l-2.7,0.6l-2.3,1.1l-1.7,2.2l-3.1,0.1l-2.7,2l-3.2,1.1l-4.7,0.6l-3.5,2.9l-1.6-0.2l-2.7,1l-2.2-1.1
		l-1.1-1.6l0.1-2.4l-3-9.2l0.3-3.1l1.9-1.9l-0.3-2.6l1-0.9l1.7,0.7l6.4-0.6l1.3,0.5h5.8l1.3,1.4l2-0.7l0.7-1.7l2.5-3.4l4.4-2.3
		l13-2.3l3.7,7.9L128,467.7z">
		<desc  xmlns="http://www.highcharts.com/svg/namespace">
			<name>Yemen</name>
			<labelrank>3</labelrank>
			<country-abbrev>Yem.</country-abbrev>
			<subregion>Western Asia</subregion>
			<region-wb>Middle East &amp; North Africa</region-wb>
			<iso-a3>YEM</iso-a3>
			<iso-a2>YE</iso-a2>
			<woe-id>23425002</woe-id>
			<continent>Asia</continent>
			<hc-middle-x>0.44</hc-middle-x>
			<hc-middle-y>0.48</hc-middle-y>
			<hc-key>ye</hc-key>
			<hc-a2>YE</hc-a2>
		</desc>
	</path>
	<path id="IN" class="st0" d="M315.3,504.6l1.1,0.2l-0.1,2.1l-0.9-1.2L315.3,504.6z M309.9,488.6v0.9l-0.9,0.2v-1.1H309.9z
		 M311.4,475.3l0.1,5.2l-1.6,3.8l0.9-7.1L311.4,475.3z M286.6,408.3l2.2-1.2l1.2,1.2l0.3,2.6l-0.8,0.8l1.8,1.6l3.3,0.5l2.6-1.1
		l0.9,0.6l4.3-0.3l2.6-0.7l-0.6-2.7l-1.1,0.4l-0.6-1.7l1.6,0.1l3-1l0.1-1l3.5-2.9l4.1-1.9l1.2-1.5l3,1.2l2.1-1.5l1.8-0.2l4,5
		l1.6,0.5l0.1,1.6l-2,1.4l1.3,2.4l-1.8-1l-2.8,0.5l-4.9,4l0.6,2.1l-2.4,3.3l0.5,1.8l-2.6,5.8l-3.7-0.9l0.7,1.9l-0.2,2.5l-1.1,0.7
		l0.3,2.9l-0.8,1.9l-1.9,0.2l-1.2-6.3l-1-2.1l-2.5,3.9l-1.3-0.9l-0.8-2.2l0.9-2.4l3.4-1.6l0.6-2.5l-1.2-1.3l-7.5,0.4l-2.7-1l0.1-2.7
		l-1.3-0.1l-5.1-2.2l-1.6,2.7l4,3.5h-2.3l-1.8,2.7l3.4,1.9l-0.8,2.8l1.9,2.2l-0.4,1l1.1,4l0.2,2.2l-2.3,0.6l-2.4-0.3l0.4-2.5l-2,2.5
		l-2.3,0.6l-1.6,1.8l0.8,2.4l-2.6,3.4l-4.3,1.6l-2.6,2.2l-3.5,4.6l-2.1,1.2l-1.6,2.1l-4.2,2.8l0.1,2.1l-2.5,1.3l-2.3,0.1l-0.4,1.6
		l-1.6,1.3l-1.1-0.7l-1.3,1l-0.9,3.1l0.7,2.1l0.3,4l0.6,1.6l-0.7,4.1l-1.3,2.1l0.2,8l-2-0.1l-2.1,4l0.6,0.7l-3.6,1.7l-0.7,2.8
		l-2.5,1.4l-2.4-1.2l-2.1-2.3l-1.6-5l-2.1-5.1l-1.5-2.7l-1.6-1.4l-1.8-3.9l-1.3-4.8l-1.6-3.6l-3.9-6.3l-1-4.6l-1.5-4.7l-1.8-8.3
		l0.9-3.2l-0.1-1.8l-1.2-2.8l1.3-1l-1.8-0.1v-2.1l-1.9,0.9l0.9,1.6l-0.8,2.1l-5.1,2.6l-2-0.4l-2.3-1.6l-5.3-5.3l3.1-0.4l2.5-1
		l0.9-1.9l-3,1.1l-2.3-0.4l-2.8-1.6l-2.2-3.1l2.5-0.7v-1.5l3.8-0.1l1.9,0.5l2.5-1.4l1.1,0.9l1.4-0.9l-0.1-1.3l-2-3.6l-0.1-1.3
		l-1.7,0.1l-1-1.3l0.3-2.7l-3.2-1.3l0.5-1.9l3.3-4.2l2.3,1.5l4.7-1.4l2.2-4.2l2.4-1.3l2-4.5l2.6-1.4l-0.5-0.8l2.1-2.9l1.5-0.9
		l-0.9-3.2l1.5-1.6l2.4-1.3l-3-0.9l-0.2-1.9l-1.7,0.2L221,384l-0.2-2.5l1.3-1.6l-1.5-0.2l-0.9-1.8l2.3-2.2l6.9,1.2l3.5-1.3l2.2-2.1
		l3.4-2.1l2.3,4.3l3,1.3l-0.8,1.6l0.3,2.7l2.8,1.9l0.6,2.6l-2.6,1.6l-0.9-1.5l-1.5,0.7l1.7,2.8l0.1,3.1l1.5-0.5l2.4,2.4l3.1,1
		l-0.2,0.8l3.8,1.7l-2.3,2l-1.9,4.9l5.2,2.1l0.8,1.2l3.4,1l3.3,1.9l8.4,0.5l0.3,1.5l3,1.3l1.4-0.6l1.1,1.3l2.1-0.2l2,0.9l1.5-0.9
		l1.3,1.1l3.5-0.6l0.3-1.5l-0.9-1.7L286.6,408.3z">
		<desc  xmlns="http://www.highcharts.com/svg/namespace">
			<name>India</name>
			<labelrank>2</labelrank>
			<country-abbrev>India</country-abbrev>
			<subregion>Southern Asia</subregion>
			<region-wb>South Asia</region-wb>
			<iso-a3>IND</iso-a3>
			<iso-a2>IN</iso-a2>
			<woe-id>23424848</woe-id>
			<continent>Asia</continent>
			<hc-middle-x>0.32</hc-middle-x>
			<hc-middle-y>0.46</hc-middle-y>
			<hc-key>in</hc-key>
			<hc-a2>IN</hc-a2>
		</desc>
	</path>
	<path id="KR" class="st0" d="M463,373.5l0.1,1.3l-2.5,0.7l0.1-1.4L463,373.5z M461.5,351.4L461.5,351.4l2.2-2.6l4-0.2l1.4-1.7
		l1.4,2.5l3.3,4.4l0.8,2.7l-0.4,3l0.9,0.6l-0.4,3l-1.1,1.9l-3.3,0.4l-0.2,1l-1.7-0.6l-2.2,0.7l1,1.1l-5.5,2.5l-1.4-2.6l0.7-1.8v-2.8
		l1.5-1.3l-1.5-1.4l-0.7-3.3l0.7-1.4l1.8,0.6l-1.8-3.7L461.5,351.4z">
		<desc  xmlns="http://www.highcharts.com/svg/namespace">
			<name>South Korea</name>
			<labelrank>2</labelrank>
			<country-abbrev>S.K.</country-abbrev>
			<subregion>Eastern Asia</subregion>
			<region-wb>East Asia &amp; Pacific</region-wb>
			<iso-a3>KOR</iso-a3>
			<iso-a2>KR</iso-a2>
			<woe-id>23424868</woe-id>
			<continent>Asia</continent>
			<hc-middle-x>0.38</hc-middle-x>
			<hc-middle-y>0.39</hc-middle-y>
			<hc-key>kr</hc-key>
			<hc-a2>KR</hc-a2>
		</desc>
	</path>
	<path id="BD" class="st0" d="M301.3,434.5l0.3,0.7l-0.5,0.7l-0.3-0.1L301.3,434.5z M308,436.2l0.5,3.2l-1.5-0.7l-0.2,1.9l0.2,1.4
		l-2.1-3.3l-0.2-3l-1.9-3.2l-2.3,1.1l-2.1-2.4l0.4,4.2l0.4-1.1l-0.1-1.7l0.9,2.9l-1.5,0.5l0.2-0.5l-1.6,1.9l-0.5-0.9l-3.8,1.8
		l-0.9-2.3l-1.1-4l0.4-1l-1.9-2.2l0.8-2.8l-3.4-1.9l1.8-2.7h2.3l-4-3.5l1.6-2.7l5.1,2.2l1.3,0.1l-0.1,2.7l2.7,1l7.5-0.4l1.2,1.3
		l-0.6,2.5l-3.4,1.6l-0.9,2.4l0.8,2.2l1.3,0.9l2.5-3.9l1,2.1L308,436.2z">
		<desc  xmlns="http://www.highcharts.com/svg/namespace">
			<name>Bangladesh</name>
			<labelrank>3</labelrank>
			<country-abbrev>Bang.</country-abbrev>
			<subregion>Southern Asia</subregion>
			<region-wb>South Asia</region-wb>
			<iso-a3>BGD</iso-a3>
			<iso-a2>BD</iso-a2>
			<woe-id>23424759</woe-id>
			<continent>Asia</continent>
			<hc-middle-x>0.44</hc-middle-x>
			<hc-middle-y>0.68</hc-middle-y>
			<hc-key>bd</hc-key>
			<hc-a2>BD</hc-a2>
		</desc>
	</path>
	<path id="SP" class="st0" d="M416.4,485.1v0.1V485.1L416.4,485.1z">
		<desc  xmlns="http://www.highcharts.com/svg/namespace">
			<name>Spratly Islands</name>
			<labelrank>6</labelrank>
			<country-abbrev>Spratly Is.</country-abbrev>
			<subregion>South-Eastern Asia</subregion>
			<region-wb>East Asia &amp; Pacific</region-wb>
			<iso-a3>-99</iso-a3>
			<iso-a2>SP</iso-a2>
			<woe-id>23424921</woe-id>
			<continent>Asia</continent>
			<hc-middle-x>0.58</hc-middle-x>
			<hc-middle-y>0.51</hc-middle-y>
			<hc-key>sp</hc-key>
			<hc-a2>SP</hc-a2>
		</desc>
	</path>
	<path id="CN" class="st0" d="M443,392.5l-1.4-0.2l-0.2-0.7l1.4,0.3L443,392.5z M440.9,385l-2.8-0.9l-0.3-0.9l3.4,1.4L440.9,385z
		 M290.3,410.9l-0.3-2.6l-1.2-1.2l-2.2,1.2l-4.4,0.4l-2.8-1.2l-2.6,1.1l-1.4-2.2l-2.8,0.2l0.4-1.4h-2.3l-2.1-1.4l-0.6-1.7l-2.7,0.4
		l-1.7-2.1l-1.5-0.1l-3.2-2l-0.3-1.3l-3.3-0.1l-1.2,1.9l-0.5-0.9l-3.8-1.7l0.2-0.8l-3.1-1l-2.4-2.4l-1.5,0.5l-0.1-3.1l-1.7-2.8
		l1.5-0.7l0.9,1.5l2.6-1.6l-0.6-2.6l-2.8-1.9l-0.3-2.7l0.8-1.6l-3-1.3l-2.3-4.3l-1.8,0.2l-2.9-0.8l-1.2-1.3l-1.7,0.6l-1.3-1.5
		l0.4-1.9l-3-2.3l-3.7-0.4l-0.8-0.6l2.3-0.6l1.3-0.9l-1.3-1l-0.7-4.8l-2.1-0.8l-2.4,0.4l-0.9-4.5l1.3-0.8l0.2-2.5l1.7-0.3l2.1-2.3
		l1.6,0.3l1.8-1l0.5,1.8l4.2-2l0.6-1.7l6-0.8l1.3-1.9l4.2-2.4l4-1.4l0.1-0.9l-0.4-2.4l2.8-2.9l-2.2-5.3v-3.1l-1.7-0.8l0.3-1.3l7.6-2
		l1,1l2.9-0.2l0.1-1.5l-1.5-0.5l1.1-3.9l2.5-5.9l3.5,1.3l3.4-0.2l0.6,0.9l3.3-1.4l0.7-2L271,302l1.1-2.9l3.5-0.8l1.4-3.5l2,0.1
		l0.9-0.3l1.4-0.3l0.6,3.3l3,1.5l2.2,1.9l2.3-0.3l3.7,2.1l0.7,2l2.8,4.2l-0.1,3.1l-1.5,3.1l1.1,1.7l3.6,0.6l8.6,0.3l1.9,1.5l5.1,2.2
		l1.6-0.3l2.6,5.9l2.1,2.6l3.9-0.4l10.5,0.9l2.5-0.8l7.4,0.7l1.9,1.7l4.8,0.9l3,1.2l3.6-0.7v1.1l2.4,0.3l0.8-0.9l7.1-3.2l6.4-1.1
		l6-0.2l4.2-1.9l2.3-3l4.5-2.4l-2.6-3.6l1.4-3.5l1.3-0.8l7.5,1.7l1.9-1.1l2.1-2.6l5-0.6l2.4-1.5l1.9-3.5l3.2-0.4l4.2-2.2l2.6-0.4
		l4,0.8l1-0.7l-1-2.5l-5.5-4.5h-3.7l-0.2,0.2l-0.8,1l-0.8,0.8l-2.2-1.2l-2.8,0.1l-1.8,1l-1.6-2.4l5-10.2l5,1.7l4-2.8l3-0.9l-0.8-1.7
		l1.5-2.2l2.6-5.8l3-2.8l-0.4-2.6l-3-0.3l-0.2-1l3.8-3.3l6.6-1.6l5.9-0.6l3.7,1.9l3.3,0.1l2.8,1.3l3.8,4.9l-0.3,1.1l2.2,3.5l0.2,2
		l1.7,1.8l0.3,2.6l1.2,0.6l-0.3,2.4l2.8,1.6l3.2-0.3l1.4,1.2l1.8-0.4l3.6,3.1l1.9-0.1l-0.6,1.4l1.4,1.7l-0.6,1.7l1.7,2.1l6.8-0.4
		l2.6-2.4l5.8-1.8l1.9,3.9l-2.7,2.7l-1,5.8l-0.9,0.7l-2.4,5.9l-1.3,0.4l-0.6-1.1l-3.3,0.2l-0.8-0.5l-1.8,2.2l-2.2,0.7l1.7,4.4
		l0.2,3.7l-0.7,2.7l-3.2,1.1l0.6,1.1l-1.9-2.5l-1.3,0.2l-0.5,2.9h-1.7l-1.9,2.4l-4,0.3l1.3,2.2l-0.7,1.2l-4-0.6L462,330l-1.4,0.7
		l-2.7,4.3l-5,2.5l-2.3,2.1l-1.1,1.5l-3.4,0.3l-4.5,2.2l-2.3,2.6l-3.2,1.3l-0.2-1.2l2.5-0.8l0.4-1.6h-2.2l1-2.6l1.5-0.7l1.9-2.8
		l-2.1-1.8l-3.1-0.3l-3.3,4l-4.1,1.8l-2.2,3.9l-3.6,0.8l-2.2-0.2l-0.9,2.6l2.6,2.5l3.5-0.2l1,2.3l-0.3,2.3l2.2,0.8l5.8-4l4,2
		l2.4-0.8l2.6,0.7l-1.5,3.2l-1.3-0.8l-5.9,2.9l-0.1,1.7l-4.7,3.1l-2,2.8l2.1,2.5l2.9,1.1l1.1,3.4l2,3.2l-0.1,1.7l2.5,1.4l2.1,2.1
		v1.3l-2.5-0.9l-2.4,0.6l4.5,2.4l1.3,1.8l-4.6,2.1l-1,1.6l2.9-0.6l1.4,1.6l2,0.4l-0.8,1.3l0.2,2.9l-1.6-1.1l0.4,4.7l-2.2,1.6
		l0.1-1.7l-2.6,4.1l-0.3,1.8l-3.7,2.6l0.9,1.9l-1.6,4.6l-0.7-0.8l-1.6,1.3l0.1,1.6l-4.2,2.9l-2,3.2l-3.1,0.5l-1.8,3.5l-3,1.1
		l-4.8-0.2l-1.2,1.8l-2.8,0.3l-0.8-1.7l-0.8,2.9l-4.3,2.1l-2.7-0.1l-1.7,1.4l-4.2,1l-0.7,1.9l-1.2-0.1l0.7,3.2l-2.2,0.3l-1.3-3.1
		l0.3-2.7l-2.8,0.5v-1l-3.2-1.1l-2,1.9l-3-0.5l-3.3-1.8l-0.6-2l1-1.6l-1.3-0.8l-2.9,0.2l-2.5-2.1l-2,1l-0.2,1.2l-3.8,2l-1.6-1.2
		l-1.5,0.1l-1.4,1.7l-2.6-1.5l-1.4,1.8l-2.1-0.1l-0.6,1l1.1,2v3.2l-2.1-0.1l-0.6-1.8l-0.2-1l-4.2,1.8l-1.2-2.9l-3.7-0.4l1.5-4.4
		l-3-0.5v-2l-1.4-2.3l-1.8-0.1l-2.5,1.3l-0.6-4.2l1.2-2.6l3.9-3.1l-0.7-1.1l0.9-2.6l-0.5-4.6l-1.8,0.2l-0.9-2.9l-2.7-1.9l-1,1.6
		l-1.6-0.5l-4-5l-1.8,0.2l-2.1,1.5l-3-1.2l-1.2,1.5l-4.1,1.9l-3.5,2.9l-0.1,1l-3,1l-1.6-0.1l-1.6-1.6l-0.9,0.6l-2.8-0.4l-1.2-1.3
		l-3,1.2L290.3,410.9z M386.9,442.8l5.6-0.1l0.3,1.4l-1.4,1.5l-1.2,3.3l-2.9,1.5l-0.8,1.1l-4-1.4l-0.4-3.6L386.9,442.8z">
		<desc  xmlns="http://www.highcharts.com/svg/namespace">
			<name>China</name>
			<labelrank>2</labelrank>
			<country-abbrev>China</country-abbrev>
			<subregion>Eastern Asia</subregion>
			<region-wb>East Asia &amp; Pacific</region-wb>
			<iso-a3>CHN</iso-a3>
			<iso-a2>CN</iso-a2>
			<woe-id>23424781</woe-id>
			<continent>Asia</continent>
			<hc-middle-x>0.42</hc-middle-x>
			<hc-middle-y>0.56</hc-middle-y>
			<hc-key>cn</hc-key>
			<hc-a2>CN</hc-a2>
		</desc>
	</path>
	<path id="BH" class="st0" d="M114.4,422.3l0.7,0.3l-0.2,1.9l-0.5-0.9V422.3z">
		<desc  xmlns="http://www.highcharts.com/svg/namespace">
			<name>Bahrain</name>
			<labelrank>4</labelrank>
			<country-abbrev>Bahr.</country-abbrev>
			<subregion>Western Asia</subregion>
			<region-wb>Middle East &amp; North Africa</region-wb>
			<iso-a3>BHR</iso-a3>
			<iso-a2>BH</iso-a2>
			<woe-id>23424753</woe-id>
			<continent>Asia</continent>
			<hc-middle-x>0.46</hc-middle-x>
			<hc-middle-y>0.50</hc-middle-y>
			<hc-key>bh</hc-key>
			<hc-a2>BH</hc-a2>
		</desc>
	</path>
	<path id="MM" class="st0" d="M335.8,479.7l0.1-0.8l0.8,0.9l-0.6,0.8L335.8,479.7z M306.8,440.6l0.2-1.9l1.5,0.7l-0.5-3.2l1.9-0.2
		l0.8-1.9l-0.3-2.9l1.1-0.7l0.2-2.5l-0.7-1.9l3.7,0.9l2.6-5.8l-0.5-1.8l2.4-3.3l-0.6-2.1l4.9-4l2.8-0.5l1.8,1l-1.3-2.4l2-1.4
		l-0.1-1.6l1-1.6l2.7,1.9l0.9,2.9l1.8-0.2l0.5,4.6l-0.9,2.6l0.7,1.1l-3.9,3.1l-1.2,2.6l0.6,4.2l2.5-1.3l1.8,0.1l1.4,2.3v2l3,0.5
		l-1.5,4.4l3.7,0.4l1.2,2.9l4.2-1.8l0.2,1l-1.9,1.3l-0.8,2.4l-1.5,0.6l-0.4,1.8l-0.7-0.6l-4.2,3l-2.2,0.9l-2.3-0.5l-1.6,4.2l0.5,1.6
		l-1.7,0.3l1.8,2.6l-0.3,0.6l3.6,3.7l1.3,3.5l-0.6,4.4l-1.6,1l1.9,3.4l2.8,3l-0.1,2.5l1.4,2.7l1.2,3.5l-1.8,3.3l-1.9,2l-0.1,1.6
		l-0.9,1.7l-0.5-3.3l1.2-1l0.1-3.9l-1.8,0.2l1.3-4.7l-0.6-2.1l-2-2.2l-1.9-5.5l-0.9-6.5l-0.8-0.1l-2-4.4l-0.8-0.5l-0.3,3l-0.8,1
		l-3.3,1.4l-2,2.5l-2.1-0.1l-3.6-1l0.2-2.5l1.4-4.8l-1-3.5l-1.3-2.4l-2.2-0.8l-0.9-1.4l1.1-0.2l-0.5-0.7h0.8l0.7,0.3L312,445
		l-1.5,0.5l-3.1-3.2L306.8,440.6z M314.6,448.3h0.3l-0.1-0.1L314.6,448.3z">
		<desc  xmlns="http://www.highcharts.com/svg/namespace">
			<name>Myanmar</name>
			<labelrank>3</labelrank>
			<country-abbrev>Myan.</country-abbrev>
			<subregion>South-Eastern Asia</subregion>
			<region-wb>East Asia &amp; Pacific</region-wb>
			<iso-a3>MMR</iso-a3>
			<iso-a2>MM</iso-a2>
			<woe-id>23424763</woe-id>
			<continent>Asia</continent>
			<hc-middle-x>0.45</hc-middle-x>
			<hc-middle-y>0.36</hc-middle-y>
			<hc-key>mm</hc-key>
			<hc-a2>MM</hc-a2>
		</desc>
	</path>
	<path id="ID" class="st0" d="M454.4,581.3l-0.7,1.1l-1.7,0.5l2.5-2.3L454.4,581.3z M438.8,576.2l2.2,1.2l1.7,2l-1.7,1.1l-2.2-1.4
		l-4.8-1.7l1-0.9L438.8,576.2z M453,571.4l-1.1,0.8l0.6-1.2l1.4-0.4L453,571.4z M423.7,572.3l-0.7,2.3l-2.6,0.1v-2l1.6-1.2
		L423.7,572.3z M456.7,570.5l-1.8,1.5l-1.5-0.1l0.6-1L456.7,570.5z M458,571.1l-0.3,0.6l-0.7-0.4l1.1-1.2L458,571.1z M459.5,569.9
		h2.4l0.2,0.9l-3.2,0.6L459.5,569.9z M474.2,569.6l0.3-0.4l1.3,0.2l0.4,0.6L474.2,569.6z M418,571.5l1,0.9l-2.2,2.1l-3.7-3.2
		L418,571.5z M483.3,567.6l0.4,0.5l-0.3,0.6l-0.9-0.6L483.3,567.6z M469.3,567.4l-1.1,1.4l-1.8-0.3l-0.6-0.9L469.3,567.4z
		 M492.2,564.2l-0.4,2.1l-1.4,2l-1-1.8L492.2,564.2z M410.8,565.8l0.7,0.5l-2.6,1.2l-3.8-0.2l0.5-1.2L410.8,565.8z M440.6,562.9
		l-0.3-2.9l0.1-0.3l0.4,0.9L440.6,562.9z M496.6,557.4l0.3,0.5l-0.3,0.7l-0.3-0.3L496.6,557.4z M503.4,557.5l1.6-1.6l0.8,1.1
		l-0.1,2.9l-1.7,0.2l-1-1.4L503.4,557.5z M498,557.1h-0.2l0.4-1.5h0.3L498,557.1z M446.9,556.4l0.7,0.4l-0.4,1.3l-0.8-0.9
		L446.9,556.4z M450.8,555.6l-1,2.2l-1.2-0.2l0.5-2.9l1.5-0.5L450.8,555.6z M452.7,554.3l-1.1,2.3l1.2,0.5l-2.9,1.1l0.7-1.2l0.7-3.6
		L452.7,554.3z M452,551.2l0.8,0.4l-0.7,0.7l-0.7-0.9L452,551.2z M476.3,548.6l-1.8,0.8l0.2-0.9l1.1-0.4L476.3,548.6z M421,550.1
		l-1,2.5l-0.4-1.9l1.1-2L421,550.1z M469.3,546.5l1.8,1.2l-0.1,1l-2.2,1.3l-2.7-1.1l-0.8-1.6l1.9-0.9L469.3,546.5z M348.4,550.8
		l-0.5,0.2l-0.9-0.8l0.1-0.9L348.4,550.8z M380.4,548.6l0.8-1.5l2.7,0.8l-0.2,1.8l-1.5-0.4l-1.1,0.9L380.4,548.6z M347,549.2
		l-0.9,0.4l-0.2-1.6l1.1,0.8V549.2z M344.6,546.4l0.7,1l-1.1-0.3l-0.1-1.2L344.6,546.4z M465.5,543.7l-0.5-0.2l-0.5-1.5l0.5-0.4
		L465.5,543.7z M462.4,540.8l2.6-0.1l1.3,0.3l-3.8,0.5L462.4,540.8z M485,539.5l0.4,0.7l-0.8,1l-2.5-0.7L485,539.5z M457.6,541.9
		v-1.5l1.2-0.2l3.2,0.9L457.6,541.9z M508.5,538.2l5.6,0.5l0.8,0.4l-2.7,0.5L508.5,538.2z M376.9,549.1l-3.4-0.5l-1-3h-2.2l-0.8-0.9
		l2-2l2.1,0.3l1.5,3.9l2.2,0.4L376.9,549.1z M472.5,538l2.3,1.3l-0.4,0.7l-3.1-0.3L472.5,538z M453.7,539.7l-3,0.5v-1.8l2.4,0.1
		L453.7,539.7z M340.8,541.1l1.7,3.8l-1.7-0.4l-1.4-2.1L340.8,541.1z M487,535.7l1.2,0.4l-0.4,1.8l-1.6-1.6L487,535.7z M508.1,534
		l1.9,0.1l1.7,1.6l-1.3,0.7l-0.9-1.7L508.1,534z M366.1,537.4l0.6,0.6l-1,1l-0.5-0.8L366.1,537.4z M470.6,534.4l1.2-0.7l0.4,1.4
		l0.7,1.2L470.6,534.4z M447.1,534.2l0.1,0.6l-1.9,0.6l0.9-0.8L447.1,534.2z M485.8,533.8l-1.4-1.5l2.5-0.5l2.2,0.6l-0.3,1.1
		L485.8,533.8z M338.8,538.6l-0.3,1l-0.5-0.2l0.6-1.3L338.8,538.6z M366.7,535.5l0.8,1.3l-0.1,0.1L366,537L366.7,535.5z
		 M361.3,531.9l0.2,1.4l-0.7-0.6L361.3,531.9z M359.4,531.4l0.2,1l-1.4-0.9l0.1-0.6L359.4,531.4z M363.6,531.6l0.6-0.2l0.8,0.7
		l-0.1,0.7L363.6,531.6z M366.7,532.3l-0.8-1.1l-1.1-0.2l1.6-0.6L366.7,532.3z M333.3,530.2l2.7,2.3l-1,1.9l-3.1-3.7L333.3,530.2z
		 M355.6,529.2l1.2,0.3l0.1,1l-1.7-0.8L355.6,529.2z M353.2,527v1.3l-0.6,0.4l-0.7-1.6L353.2,527z M474.3,521.8l1.8-1.7l0.6,0.7
		l-0.8,2L474.3,521.8z M326.4,524.1l2.7,2.4l-3.6-1.8l0.4-0.7L326.4,524.1z M383,516.7l0.2,1.9l-1.6-1.5l1-1.1L383,516.7z
		 M467.1,514.3l0.7-1.1l-0.4-1.5l0.9,1.2L467.1,514.3z M504.1,560.3l0.4,0.3l-1.1,2.2l-0.6-0.7l0.2-2.7L504.1,560.3l1.3,0.4l0.7-0.2
		l-0.5,0.5L504.1,560.3z M430.8,571.9l3.3-0.7l0.2,1.8l-2.6,1.2l-6.7,1.3l-1.1-0.3l0.2-2.4l2.8-0.2l0.2-1.4l2.8-0.4L430.8,571.9z
		 M457.2,575.5l1.1,0.7l0.8-1.5l0.5-0.1l1.6-1l1.1,1L462,576l-2.9,3.2l-4.3,1l0.9-3.4L457.2,575.5z M427,514.9l-1.1,0.8l0.2-0.8h0.1
		H427z M363.4,540.8l2.4-0.1l0.9,3.7l1.7,1.9l3.4,0.4l2.2,3.8l-1.1,2l0.6,0.7l-0.5,9.1l-2.2-1.6l-0.8,1.5l-2.3-1.2l0.5,1.9l-2-1.2
		l-2.9-3l-3.6-2l-2.8-2.2l-0.5-1.6l-2.8-1.7l-2.5-2.9l-1.1-2.5l-2.3-3.4l-0.6-2l-2.3-2.3l-1-1.8l-2.2-0.7l-0.3-1.6l-2.7-5.9l-4.1-2
		l-0.3-2.1l-4-3.9l-1.5-0.3l-4.8-4.4l-1.4-3.4l3.4,0.2l1.1,1h6.3l2,1.5l0.4,1.6l1.3,0.5l0.2,1.6l6.8,3.8l3.8,4.6l1.4,0.6l0.9-1.3
		l1.6,2.3l3.4,1.6l0.5,0.9v-1l1.2,0.7v0.8v-0.3l2.8,1.6h-2.4l-0.7-0.4l0.3,0.5l1.9,0.1l1,1.2l1.5-0.3l1.8,2.3l-1.7,1l1.6,0.6
		l-1.8,1.6L363.4,540.8z M356,531.5l0.5,0.8l0.1-0.5L356,531.5z M522.9,559.7l-1.9-4.4l-4-1.7l-1.8-0.4l-4-1.7l-3.4-0.1l-4.2-2.6
		l-0.1,0.7l-3.4-1.9l-1.5,2.3l-1.2,0.2l-1.2-1.9l0.9-0.6l-2.9-2.7l-1.6-0.1l1-1.1l2.5,0.5l1.3-1.5l3.6,0.6l0.8-1.1l-3.2-0.8
		l-2.8,0.5l-2.9-0.8l-1.3-2.6l-3.9-0.2l1.2-2.9l2.9-0.7l1-1l2.8-0.6l3.2,1.5l2.6-0.1l1.5,2.8l-0.4,2.8v1.6l1.5,2.5l0.5-1.9l0.6,2.3
		l1.4,1.7h2.2l3.5-3.8l0.6-1.5l3.8-0.8l-0.5-1.3l3-1.5l9.6,3.7l1.4-0.3l3.7,1.2l1.1,29.7l-5-4.4l-5,0.3l0.2-0.4l-0.8,0.6h0.6
		l0.3,0.8l-1.5,0.1l0.4-0.7l-1,0.8l-3.6,0.3l1.6-3.8l3.5-1.2l1.3,0.9l-0.4,1l0.5-1.1l-1.9-1.6v-2.6L522.9,559.7z M425.5,514.9
		l0.9,2.4h-3l2.7,1l-1.5,0.9l1.3,0.6l2.3,3.7l-1,1.7l5.4,4.1l-1,0.7l-3.3-0.4l-1.2,0.5l-1.4,3.3l-0.1,2.9l0.9,1.1l-1.6,0.2l-1.1,1.8
		l-2.1,1.4l-0.7,1.3l1.1,2.1l-2.7,6.4l-6.1,2.7l-0.7-3l-2.1-0.6l-1.9,0.5l-2.8-2.3v1.1l-1.8,1.3l-1.5-0.5l-2.1,1.1l-0.5-3.3L395,549
		l-1.9-0.3l-1.8-8.6l-1.4-0.5l0.7,0.7l-1.3,0.8l-0.2-1.4l0.6-0.1l-1.4-0.5l0.2-1.3l-1.4-1.4l1.1-1.2l-1.8-1.5l-0.3-2.2l1-3.4
		l2.4-2.4l-0.5,0.9l1.5,2.1l3.4,2.4l2.9-1.1l2.8,0.2l1.6-2.1l3.9-0.5l2.9,1.3l1.1-1l2.7-0.1l1.5-2.1l-0.3-1.6l1.9-1.3l-0.7-1.4
		l1.8-1l0.6-1.9l-0.4-2.1l1.3-2.2l2.6,0.3l3.7-0.4L425.5,514.9z M449.1,572.5l3-2.1l-0.6,1.9l-4.6,1.4l-1.8-0.3l-2.2,0.7l-1.5-0.6
		l-3.1,0.5l-1.6-1.3l2.9-1.4l3.5,0.1l2.5,1.1l2.2-0.9L449.1,572.5z M407.8,570.1l3.3-0.9l2.1,0.9l-0.4,2.7l1.1,1.6l-2.8-0.6
		l-3.7-1.5l-2.4,0.9l-4-0.7l-0.6,0.5l-5.5-1l-2-1l-5.4-1l-2.5,1l-4.2-1.3l-4.1-0.3v-1.9l-2.7-0.7l-3.2,0.2l-0.3-0.7l1.2,0.6l1.6-1.8
		l1-2.6l4.3,0.8l0.2-0.8l4.9,1.7l1.2-0.4l1.2,2.3l8.6,0.6l0.9-2.1l1.1-0.5l1.1,1.3l1.5-0.4l2.7,1.2l2.5-0.1l0.8,2.9L407.8,570.1z
		 M486.3,546l1.4,2l-0.1,1.4l-6.1-2.4l-0.2,0.7l-2.8-1.1l-1.8,1.3l-1.7-1.7l-0.8,2.2V546l1-0.8l4.3,0.3l1.5-0.8L486.3,546z
		 M453.2,536.4l-0.6,1.3l-2.3-0.5l-1.9,2.7l-2.6,1.1l-0.5,0.9l-1.7-0.5l4.7,5l-0.1,3.4l3.1,2.3l-0.3,1.1l-3.3,0.5l-0.5,1.6l-2.4-0.8
		l0.6-2.7l-3.5-2.3l0.8-3.6l-1.5-0.6l-2.5,1.6l0.9,1.2l-0.1,3.2l0.5,3.2l-0.7,2.4l0.3,1.6l-3.4,0.8l-1-1.3l1.1-4.8l-1.7-4l-1.7,0.7
		l-0.8-3.2l1.6-2l0.8-2.1l-0.1-3.5l1.8-2.7l0.1-4l1.1-2.3l2.4-0.3l1.4-2.6l2.7,0.9l10.8,1l3.4-1.8l-0.2-0.7l2.7-1.9l-1,3.6L457,531
		l-4.9,0.5l-0.8-0.9l-5.8,0.7l-0.6-0.5l-3.6,0.6l-2.4-0.1l-1.6,3.1l0.5,2.1l1.5,1l1.3,2.2l1.8,0.1l1.9-2.6l2.8,0.2l0.4-0.8l3.5-0.3
		l1.2-0.7L453.2,536.4z M475.6,536.4l-3.1-3.1l-0.4-4.8l-1.1-1.8l0.7-2.4l1.5-2l0.7,2.9l-1.8,2.5l0.8,0.9l2.9-3.5l1.2-0.2v2.3
		l-1.8,0.9l0.1,1l1.7,0.5l0.8,1.4l-4.1-1l-0.3,2.3L475.6,536.4z">
		<desc  xmlns="http://www.highcharts.com/svg/namespace">
			<name>Indonesia</name>
			<labelrank>2</labelrank>
			<country-abbrev>Indo.</country-abbrev>
			<subregion>South-Eastern Asia</subregion>
			<region-wb>East Asia &amp; Pacific</region-wb>
			<iso-a3>IDN</iso-a3>
			<iso-a2>ID</iso-a2>
			<woe-id>23424846</woe-id>
			<continent>Asia</continent>
			<hc-middle-x>0.39</hc-middle-x>
			<hc-middle-y>0.39</hc-middle-y>
			<hc-key>id</hc-key>
			<hc-a2>ID</hc-a2>
		</desc>
	</path>
	<path id="SG" class="st0" d="M363.1,529.5l0.6,0.3l-0.7,0.5l-0.9-0.2L363.1,529.5z">
		<desc  xmlns="http://www.highcharts.com/svg/namespace">
			<name>Singapore</name>
			<labelrank>6</labelrank>
			<country-abbrev>Sing.</country-abbrev>
			<subregion>South-Eastern Asia</subregion>
			<region-wb>East Asia &amp; Pacific</region-wb>
			<iso-a3>SGP</iso-a3>
			<iso-a2>SG</iso-a2>
			<woe-id>23424948</woe-id>
			<continent>Asia</continent>
			<hc-middle-x>0.51</hc-middle-x>
			<hc-middle-y>0.59</hc-middle-y>
			<hc-key>sg</hc-key>
			<hc-a2>SG</hc-a2>
		</desc>
	</path>
	<path id="RU" class="st0" d="M550.4,312.3L548,315l-0.3-0.5l1.7-2.6L550.4,312.3z M561.6,306.8l-5.1,2l-3.3,3.4l-0.4-0.4l4.5-4.2
		l3.4-1.7L561.6,306.8z M569.4,301.4l-1.6,1.7l-3.4,2.1l3.4-3.5L569.4,301.4z M576.7,295.9l0.5-0.1l-2.2,2.3l0.1-0.5L576.7,295.9z
		 M588.4,280.8l-0.1,1.7l-0.5,0.5l-0.5-0.6L588.4,280.8z M594,275.5l-1,1.5l-3,1.3l-0.2-1.5l2.4-0.8l1.5-2.2L594,275.5z
		 M595.3,274.5l-1.1-0.2l1-1.1l0.5,0.6L595.3,274.5z M506.2,250l-0.7,1.2l-1.6,0.1l1.7-1.3H506.2z M509,249.7l1.5,0.7l-1.8,2.5
		l-1-1.5L509,249.7z M638,243.7l1.4,1.3l1.9,1.9L640,247L638,243.7z M630.8,218.8l0.3,2.1l-4.7,2.3l1.7-3.3L630.8,218.8z
		 M40.2,197.1v0.8l-1.1,0.5l-1.3-0.9L40.2,197.1z M192.2,179.2l3.7,0.6l-0.1,1.5l-2.4-0.6L192.2,179.2z M103.7,165.2l-6.9,2.1
		l-1.7-1.4l0.3-3l4.3-2l4.2,1.8L103.7,165.2z M613.5,142.6l0.8,4.6l-1.8-0.8l-0.4-2.9L613.5,142.6z M182.3,158.6l-0.8,0.6l-0.7-0.4
		l1.6-1.4L182.3,158.6z M613.7,143.7l-0.2-1.4l1.2,0.1l-0.1,1L613.7,143.7z M650.2,139.5l-2.4,1.8l-5.2-2l2.3-1.7l5.4,1.1
		L650.2,139.5z M178,147.5l0.9,2.8l-0.8-0.9l-0.3-1.2L178,147.5z M115.1,144.6l2.2,2.1l-0.9,1.5l-3.5-2.4L115.1,144.6z M698.4,127.7
		l-5.3,1.7l-1-1.9l1.2-1.7l4.9-2.7L698.4,127.7z M505.2,129.5l-0.5,1.3l-3.4-0.8l0.9-0.4L505.2,129.5z M229.5,132.9l-3.9,0.2l3.1-3
		l3.6,1.1L229.5,132.9z M465.7,120.6l-4.7-0.2l3.1-1.2l1.9,0.5L465.7,120.6z M237.4,127.2l0.2,1.6l-4.5-0.9l2.5-2.1L237.4,127.2z
		 M215.9,126.5l-1.7,1.7l-1.8-1l0.6-0.8L215.9,126.5z M421.9,119.8l-0.7-0.6l1.7-0.6l1,1.1L421.9,119.8z M199.2,125.4l0.7,0.9
		l-6.8,1.5l0.3-3.2l4.5-1.2L199.2,125.4z M221.8,122.1l-1.6,1.1h-1.5l0.6-0.9L221.8,122.1z M251.6,116.4l2.1-0.7l1.8,0.3l-0.7,0.7
		L251.6,116.4z M494.6,107.2l2.5,1.5l-0.6,1l-3.3-2.4L494.6,107.2z M516.7,108.7l-1.6-2.7l3.1-0.6l0.7,2.4L516.7,108.7z M392,109.1
		l-2.6,2.5l-6.1-2.1l2.4-1.9l6,0.3L392,109.1z M264.2,112.2l-0.8,0.4l-0.8-0.7l1.8-0.4L264.2,112.2z M266.5,111.4l1,0.4l-1.8,0.9
		l-0.7-0.3L266.5,111.4z M271.6,107.8l-0.8,1.1l-3-0.1l1-1.2L271.6,107.8z M248.3,106.8l-0.9-1.5l-1.6-0.5l2.9-1.4L248.3,106.8z
		 M494.7,96l-1.8,0.2l0.9-4.6l2.3,2.1L494.7,96z M315.2,94l-1.5,1.1l-5-0.2l2.2-1.1L315.2,94z M387.4,88.2l0.5,1.4l-0.7,0.1
		l-2.3-1.6L387.4,88.2z M311.2,90.5l1.5-0.7h1.1l-0.9,0.9L311.2,90.5z M555.8,82.1l-3.7,0.2l1.8-1.1l2.5-0.4L555.8,82.1z
		 M279.4,88.3l-0.8,0.1l-0.7-0.9l2.2-0.5L279.4,88.3z M313.7,86.2l-2.5,0.6l-3,0.5l5.7-2.3L313.7,86.2z M282.9,86.5l-2.1,0.2
		l-0.8-0.6l2.1-1L282.9,86.5z M364.5,73.8l-0.8,1.1l-4.9-0.6l2.3-0.5H364.5z M360.4,72.6l-2.5,1.1l-1-0.2l2.2-1.3L360.4,72.6z
		 M220.3,63.7l6,1l-4.1,0.7l-2.4-0.9L220.3,63.7z M105.3,64.1l0.9,0.8l-4-0.6l2-1.3L105.3,64.1z M140,63.7l-2.5-0.1l5.8-2.2l1.9,1.3
		L140,63.7z M99.9,63.6l-2.4-1l1.6-0.8h1.6L99.9,63.6z M132.1,59.5l-0.5,2.9l-5.8-0.2l1.2-2.5L132.1,59.5z M114.9,59.5l2.4,1.2
		l-1.7,1.2l-6-0.9L114.9,59.5z M123.9,59.9l0.9,0.5l-1.9,0.7l-0.5-2L123.9,59.9z M121.6,58.8l-1.9,0.7l1-1.4h2L121.6,58.8z
		 M119,57.3v1.8l-2.1-0.5l0.4-1.5L119,57.3z M140.6,54.3l-2.6,0.6l-2.7-0.7l4.1-1L140.6,54.3z M124,54.2l2.8,0.5l-5,1.1l-4.1-1
		L124,54.2z M237.4,49.2l1,1l-5.5,0.8l0.4-1.6L237.4,49.2z M138.6,52.7l-3.2-0.7l0.9-0.9l2.7,0.6L138.6,52.7z M151.1,52l-5.7-0.1
		l2.5-1l4.9-0.4L151.1,52z M127.6,51.3h2.4l7.3,1.7l-4.9,0.4L127.6,51.3z M102.9,52.9l-1.9,0.4l0.7-1.6l2.1,0.6L102.9,52.9z
		 M288.7,46.1l-6.1-0.1l0.3-1.2l6.3,0.1L288.7,46.1z M134.6,50.9l-3.3-0.2l4.1-1l0.9,0.3L134.6,50.9z M130.3,48.3l4.7,1l-9.1,1.3
		l-1.6-1.4l4.9,0.6L130.3,48.3z M142.4,49.9l-4.3-1.2l2.4-1l1.3,0.4L142.4,49.9z M134.9,46.5l3.5,1.2l-3.5,0.5l-4.8-0.6L134.9,46.5z
		 M140.3,44l-4.6,0.8l-0.1-1.4l5.6-0.7L140.3,44z M249.9,99.2l0.4-0.4l3.2,0.2L249.9,99.2z M155.8,44.4l1.2-0.7l4.7,0.1l-0.9,1.2
		L155.8,44.4z M138.3,57.9l3.7,1.2l-5.4,1.1l1.6,0.9l-4.5,0.6l-2.3-3.7L138.3,57.9z M288,59.2l0.7-1l2.5-1.3l8.9,1.1l-4.9,2.8
		l-2.5-1.3L288,59.2z M249.8,99.2L249,100v-0.7L249.8,99.2z M155.8,44.4l-1.4,0.8l0.2-0.9L155.8,44.4z M96.5,293.1l-2.9,3.9
		l-0.5,2.9l1.2,0.7l-2.3,4.8l2.7,0.7l0.3,2.6l4.3,0.2l2.2,2l2.4,3.6l-2.5,0.7l3.6,1.8l-4.7,3.6l-2.5,0.2l-1.8,4.3l-2.2,3l2.5,1.2
		l1.7,2.5l-0.5,4.2l5.4,6.2l-3.1,3.6l-2.8-0.4l-2.5-2.9l-1.5-0.2l-3.7-1.7l0.3-1.5l-3.9-1.3l-4.2,1.3l-0.7-1l-6.4-2.5l-4,0.2
		l-4.2-1.6l-3,0.9l0,0l-4.8-4.1l-3.7-1.3l-1.4-1.5l-6-2.7l1.1-1.4l1.3,1.1l2.8-0.5l-0.6-2l1.6-2.2l2.6-0.5l-2.7-1.4l-1.1-1.7
		l6.9-2.2l-0.1-1.5l-4.7,1.1l0.5-2.9l2.1-1.5l4.3-0.1l1-2.6l-1.6-4.3l2.1-1.4l-4.6-3.5l-4.6-1l-0.8,0.9l-2.7-3l-3.8,1.4l-2.3-1.2
		l-1.8,0.5l-3-4.9l-4.2-0.3l-0.5-4.2l-1.4-2.5l-4,0.8l-2.7-0.3l-2,1.8l-1.6-1.6l-0.9-5.5l3.1,0.6l2.8-2.3l-1.2-1.6l-3.3-0.5l0.3-1.6
		l-2.3-1l-0.8-2.5l-1.9-1l1-1.5l-0.6-3.7l-4.7-1.3l-1.9,1l-0.4-1.7l-5-0.5l-0.9-3.1l-2.3-1.9l0.8-3l-2.3-1.5l0.8-1.9l2.8-1.4l-3-1.4
		l1.2-1.6l-0.4-3.7l1.5-5.4l4-0.3l0.8-1.2l4.8,0.7l-1.6-2l-5.8-0.9l0.3-2.8l-4,1.4l6.2-5l6.4-6.9l2.7-2.3l1.4-3l-1.7-2l-5.8-3.8
		l2.5-3.6l-2.5-1.2l0.1-2.9l-2.2-1.4l1-1.7l-0.7-3.1l1.8-0.3l-1-3.4L8,185.3v-1.2l4-5.6l-3.4-3l-2.9-0.9L4.6,172l1.5-2.4l-1.6-0.5
		l6.5-3.9l1.7-2.2l2.6,0.7l-0.1-2.3l4.5,0.8l1-2.3l5,2.3l-4.4,0.2l1.7,1.1l15.9,2.2l7.9,3.4l3.6,2.8l7.3,2.4l4.7,2.4l1.8,5.2
		l-4.1,4.9l-4.9,2.2l-6.5,0.6l-4.8-1.3l-7-0.8l-2.7-1.4l-6.1-0.7l-5.7-2.9l3.3,4.5l7.3,2.9l1.9,3.1l-2,2.6l2.4,3.7l-0.7,2.3l3,1.9
		l1.8-0.5l2.3,2.4l4.7,1.2l3.2-1.1l-0.1-2.7l-4.1-0.4l-3.2-3.8l2.5-2l4.9,2.3l7,2l1.3-1l0.7,0.2l-0.7-0.4l1.8-0.1l1,0.9l-0.5,0.1
		l0.8,0.2l-0.8-2.8l-3.2-3.5l0.5-1.6l4.4-3l2.4-0.7l3.8-3.7l1.7,1.1l3.2-0.5l4.3,4l-0.3-3.2l1.6-2.9l-1-3.1l-2.2-0.6l1.6-8.6
		l-4.3-2.7l9.1,0.3l3,0.7l3.7,4.6l-6.2,1.1l-1.8,3.3l3,1.1l1.3,2.1l3.4,0.4l5.1-1.6l0.3-4.4l4.4-1.4l10.7-6.5l4.8-0.8l-0.3,1.6
		l2.7-0.8l-2.1-1.1l5.2-2.6l2.7,0.5l-1.3,1.5l1.3,2.5l4,1.1l0.3-1.7l4.6-2.2l6.3,0.5l2.9-2.4l4.1-1.4l2.5,1.8l-1.3,3l2.6,0.4
		l0.4-2.6l3.2-0.6l1.9-1.7l-3.7-5.1l1.5-1.3l-4.2,0.2l-0.6-1.4l-4-1.4l-0.3-2l2.2-1.4l1.6,1l5.3,3.4v1.6l1.3-1l8.6,0.5l6.9,1.4
		l7.4,3.5l6.6,2.1l5.3,3.5l2.9-2.5l0.8-2.5l-2.9-0.1l-2.1-4.2l-4.4-1.5l-1.4,0.8l0.3-3.2l1.8-6.1l-2.9-0.3l0.9-4.5l4.6-2.1l2.4-2.7
		l2.1-7.6l2.6-1.6l9.1-0.6l5.9,1.6l0.2,3.8l-2.8,5.7l-1.6,0.8l3.9,3.4l0.7,5.7l-1.5,1.4l1.3,3.5l-0.8,1.5l0.5,5.7l5,3.4l-2.4,2.4
		l0.4,3.8l-2.5,0.9l-1.6,3.6l-3.2,2.4l0.3,1.6l-4,1.3l-4-2.2l-4,0.2l0.8,1.4l5.8,2l3.5-0.3l3.9,0.9l2.3-3.1l4.5-1.7l1.7-3.8l3.7-3.1
		l-0.3-3.9l-1.7-1.6l0.5-2.5l3.3-1.5l5.4-1.2l4.4,3.6l-0.7,6l4.4,1.6l4.2-0.6l-6.8-0.9l0.1-3l2.8-1.2l-2.4-4.8l-4.3-1.8l-5.8-0.9
		l-1.8,1.3l-6.2-0.4l0.6-1.9l-1.8-2.6l0.8-3.6l2.6-2.9l-3.7-6.1l-2.4-1.5l2.1-3.3l6.4-2.6l0.2-4.8l1.3-1.5l2,4.9l-1.9,2.6l1.3,3.5
		l-1.4,1.2l3.7,1.3l8.1,0.5l3.2,2l-0.9-3.1l-2.8-0.1l-6.3-2.1l-1.6-2.9l4.3-1.3l3,1.7l2.4-0.5l-0.9-2l-2.1,0.5l2.9-2.9l5.8-0.2
		l11,5.5l5.1-0.9l2.1,0.8l-1.1,2.4l-3.4,1.2l0.6,4.1l3.3-0.9l-0.4,3.8l0.8-0.1l-0.3-1.7l0.5-1.3l0.3,1.3l-0.4,1.7l2.6-0.4l-3.1-6.3
		l2.1-3.2l-1.3-1.9l-5.5-2l-0.1-1.7l-4.4-0.4l-2.4-1.6l0.5-3.3l-2.7-3.3l2.5-2.4l5.1-1l7-0.2l15-2.7l1.9,2.5l0.2-2.2l-4.7-4.9
		l1.1-1.4l-3.5-0.5l2.2-1.6l3.4,1.7l0.6-2.4l9.1-5.7l3.7-1.3l16.4-3.2l-2.5-2l7.2-0.1l-0.5-1.7l6.4,0.8l2.8,2.4l6.2-1.4l4-2.1
		l4.8,1.3l-4.2-4.4l2.9,0.4l6.2-0.9l1.6-2.2l-1.5-2l5.5-4.3l5-2.7l6.8-0.7l5.2,1.2l0.2,4.6l6.3,0.6l1.1,1l-4.6,4l6.4-0.5l0.4-2
		l11.1-0.5l5.5,0.4l5.2,2.9l0.9,2.1l2.8-0.2l2,2.8l-0.8,2.4l-5.3-2.2l1.2,2.4l3.9,0.5l-0.1,2.2l-3.2,2.8l-3.3,1.2l-9.9,5.3l-0.3,1.2
		l-4,1.8l-4.1,3.6l-4.3,0.3l-2.1,2.8l-2-0.1l-3.2,5l3.3-1.9l0.6-1.9h6.2l14.4-5.1l-6.3-0.6l2.2-2.2l10.9,2.4l3.3-1.8l1.9,3.3
		l8.7-2.1l14,0.6l0.1,3.4l6.1,1.5l14.6,0.6l2.7-3l-1.5-1.5l1.5-2.9l3.4-1l9.5,3.2l3-1.3l4.6,0.4l-0.4,1.2l6.9,2.6l-5.2,1.3l-1.5,2.2
		l1.4,0.3l-0.6-0.2l2.4-0.4l1.2,0.3l-1,0.8l2,0.5l1.9,2l-2.6,1.6l-5.1-2.9l9.1,10.6l5.3,3l3-1.1l4.2-8.6l5.3,3.7l3.8,0.3l6.8-2.4
		l9.7,3.2l-0.3-2.9l3.3-0.8l2.1,1.9l3.8-0.6l-2.2-3.9l1.3-2.2l-3.2,0.3l1.5-3l7.2-1l-2.4-2.6l4.4,0.9l17.7,1.3l6.4,1.7l-6.5,0.1
		l-2-0.7l-2.3,2.3l2.9-0.8l8.6-0.7l-4.3,4l-3.5,0.3l0.7,1.5l3.7-1.5l4.6-4.5l5.5-0.1l5.6,1.2l2.2,1.9l-3.2,0.3l-1.6,1.8l4.3,0.1
		l-0.3,1.8l3.5-0.6l4.6,1.7l2.8,3.4l6.7-0.1l10.3-2.3l7.6-0.1l4.3,0.7l5.4,2.3l2.1,3.4l-1.9,3.1l3,1.8h2.8l0.3,4.4l2.9,1.3l-0.8-3.6
		l4-2.5l7.8-1.1l3.7,1.5l3.9-0.4l5.8,0.6l3.9-2.4l2,1.7l0.3,2.6l4.7,1l1.6,2.5l5.8-1.9l-1.6-4.9l-0.1-4.2l15.8,1.3h6.9l13.1,2.6
		l7.5,3.8l1.1,30.4l-2.3,1.8l-5.7,1.5l-4.3-1.2l-5.8-0.4l3.3,2.4l3.4-1.5l-0.1,2.6l2.6,1.4l1.3-1.1l1.8,2.9l-0.2,4l3.3,1.3l1.6,3.6
		l-3,2.5l-7.6-1.3l-9,3.7l-3.7,2.2l-2.2,0.1l-8.9,7l-5.4,2.6l-1.8,3.8l-2-0.5l-1.3-2.3l-2.1-1.1l-5.3,0.1l-4.7,1.9l-4.2,3.6l1.1-4.6
		l-5.7,3l-1.4,2l-1.5-2.1l-3.9,0.6l-2,3.7l0.5,2.9l-3.8,3l-1.8,3.9l2.5,2.1l0.9-1.4l2.9,1.6l-2.2,2.2l-0.1,4.1h2l0.8,3.7l-1.4,1.1
		l-2.2-1.6l-2,1l-1.6,3.4l0.6,3.4l1.3,1.4l-1.9,2.2h-4.5l-3.1,2.4l-0.9,4l1.2,2.7l-2-0.9l-4.4,2.4l-1.5,5.8l-6.9,6.8l-1-2.4
		l-0.6-5.6l-1.7-4.4l-3-14.7l0.3-4.1l1.6-5.6l2.8-1.9l1.4-2.6l-1-2.2l3.1-0.3l7-4.3l3.1-3.3l0.5-1.8l9.1-7.5l0.1-1.5l4.3-2.5l4-1.3
		l-1.3-0.5l2.4-2.5l0.2-6.5l1.9-1.4l3.1,0.3l-2.9-1.9l-6.1,1.3l0.5,1.4l-1.6,3.9l0.3,1.9l-2.9-1.1l-1.9,2.2l-8.2,5.9l1.2-3.3
		l-2.8,0.9l-0.3-2.2l2.3-2.3l0.2-2.7l-3.8,2l-0.7-1.5l-8.7,1.1l-3.5,1.9v2.2l-3.7,3.5l-4,2.6l-3.2,3.6l-0.6,2.5l4.1-0.1l1.1,2.1
		l-3.2-0.1l-2,1.2l-3.2-1.2l-2,2.3l-2.6-0.9l-4.5,1.5l-1.3-1.6l5.6-1l-2.5-0.4l-1.6-2l-4.1,0.9l-4.4-1.7l-3.5,1.6l0.6,2.1l-4.7-0.9
		l-1.6,1.1l-5.7-1l-11.1,0.3l-7.4,2.3l-3,3.5l-3.1,1.7l-1.7,3.6l-8.2,6l-3.3,4.2l-5.1,4.7l-6.9,5.1l2.5,2l5.2-0.3l-0.8,4.9h2
		l-0.3-2.1l3.9-2.2l-2.7,2.7l2.1,0.6l-1.9,2.7l2.6-0.5l3-2.7l-1.5,2.8l1.2,0.1l0.9-4.9l2.9,0.7l2-0.7l2.1,2.5l5.6,4.4l-1.3,1.1
		l1.6,6.3l-2.4,2.1l-1.9,6.6l1.1,2.9l-1.9,9.6l-3.4,3.3l-3.8,5.4l-1.8,4.5l-5.6,6l-3.1,4.2l-1.1,0.5l-3.2,5.1l-5.5,3.7l-3.5,1.2
		l-4-1v-2.4l-2.6,0.9l-4.6,5l-0.2-0.4l-0.6-0.8l-0.6-1.1l3.2-1.1l0.7-2.7l-0.2-3.7l-1.7-4.4l2.2-0.7l1.8-2.2l0.8,0.5l0.3,2.4
		l1.5,1.5l2.1-3l1.3-0.4l2.4-5.9l0.9-0.7l1-5.8l2.7-2.7l-1.9-3.9l-5.8,1.8l-2.6,2.4l-6.8,0.4l-1.7-2.1l0.6-1.7l-1.4-1.7l0.6-1.4
		l-1.9,0.1l-3.6-3.1l-1.8,0.4l-1.4-1.2l-3.2,0.3l-2.8-1.6l0.3-2.4l-1.2-0.6l-0.3-2.6l-1.7-1.8l-0.2-2l-2.2-3.5l0.3-1.1l-3.8-4.9
		l-2.8-1.3l-3.3-0.1l-3.7-1.9l-5.9,0.6l-6.6,1.6l-3.8,3.3l0.2,1l3,0.3l0.4,2.6l-3,2.8l-2.6,5.8l-1.5,2.2l0.8,1.7l-3,0.9l-4,2.8
		l-5-1.7l-2.2-1.1l-3.8,0.9l-2.9-2l-2.2-0.1l-4.8,2.9l-0.7,1.4l-7.8,1.6l-2.7,1.4l-7.3-1l-2.8,0.3l-2.8-1.9l-0.1-1.7l-3.3-0.2
		l-2.6-1.9l-1.9,0.3l-4.3-1l-7.5,2.3l-6.2-2.2l-0.9-4.7l-3.6-0.7l-4.1-1.5l-2.3,0.1l-5.2-2.3l-0.8,1.8l-2.9,2.4l-1,2.8l2.3,2.9
		l-0.8,2.7l-3.6,2.2l-1.6-0.9l-5-0.6l-1.6,0.8l-4.1-0.6l-1.9-3.3l-7.3-0.4l-1.6-0.9l-4,2.4l-1.9,0.3l-6.2,3.4l0.3,1.1l-3.7,1.8h-3.2
		l-1.5,1.7l-1.4,0.3l-0.9,0.3l-3.4-2.9l-1.9,0.8l-4.2-0.5l-1.5-2.9l-3.3-1l-2.1-3.6l-1.8-0.7l-4.3,1.8l-4.7,0.1l-0.3-1.4l-3.4-1.9
		l-3.1,3.2l-2.5-4.2l-7.7-10.7l-6.3-4.1l1.4-3.2l-6.4,3.1l-4.4,2.2l-1.8,0.6l-2.9,1.1l-1-1.4l1.3-1.9l-4.1-1l-0.8,1.5l-1.7-1.5
		l-4.1,0.5l-0.2-4l-1.8-3.5l-2.8,1.1l-5.8-1.7l-3.1,1.6L190,262l-10,2.5h-2.4l-1,1.8l-5.7,0.5l-4,1.5l-6.8,1.1l-1.9-0.4l-0.8,2.4
		l1,2.2l4.2,1.7l-4.8,0.6l-1.7,1.6l1.8,2l-4.1,2.9l3,1.5l4.2,2.1l-1.3,2.9l-2.9,0.9l-3.3-1.1l-1,2l-4-0.8l-2.9-2.7l-2.5,0.2
		l-0.3,1.4l-2.4-1.1l-3,0.3l-3.8,3.3l-4.8-2.8l-0.7,1.1l-5.3-3.8l-3.9,0.3l-0.8-1.7l-2.5,1.7l-5.5-0.6l-1,1.9l-4.2,1.5v1.5l-3.3,1.8
		l1.1,3.3l-2.1,1.3L96.5,293.1z M120.6,51.5l4,1.1l2.3-0.5l7.7,2.2l-2.8,1.5l-1.7-0.6l1.1,0.9l-5,0.5l-1.9-0.8l5.7-0.6l-6.3-2.2
		l-4.1-0.2L120.6,51.5z M126.3,117.5l4-0.4l-3.4-1.5l3.9-0.7l-2.4-1.1l3.6-1l-1.1-1.1l2.7-3.2l3.2,0.6l-0.9-1.8l2.8-0.7l3.4-3.3
		l9.8-1.9l-0.1-1.8l6,0.6l7.5-1.4l7.1-2.8l6-3.8l7-0.4l2.2,1.7l0.1,2.1l-2.7,2.2l-5.4,2.5l-26.1,8.1l-5.3,4.6l-1.4,2.1h-2.7
		l-0.6,1.8l-4.4-1.1l2.6,3.1l-2.2,0.5l-2.2,4.2l-4.4,4.4l-4.2-0.4l2.8,0.6l-1.3,4l-1.8,0.1l-1.5,4.2l0.7,3.4l2.9,5.4l6.4,5.2
		l-6.5,0.5l-2.8-1.3l-1.2,1.6l-3.1-1.8l-5.5-0.5l0.8-1.7l3.4-0.5l-3.9-1.3l-0.7-1.4l-6.4,0.2l-2.2-3.5l2-2.5l2.6,0.5l1.5-4.9
		l-0.8-1.8l3.1-0.3l-0.7-2.3l8-2.8l1.4,0.3l-1-0.4l-4.5,0.7l2.3-2.1l-4.3-1.2l5.3-2.2L126.3,117.5z M156.8,53.3l2.8-1.5l4.1-0.3
		l2.9-2.5l2.5,0.7l1,2.3l-4.6,2.1l-5.9,0.8L156.8,53.3z M534.6,296.7l1.9,4.1l-4.3-0.4l-1.5,4.2l-1.4-4l1-2.6l-0.6-3.2l1-2.1
		L529,288l1.2-5.4l-0.7-5.1l0.9-3.3l-1-2.4l-1.8-1.6l-0.3-3.9l1.1-4l-0.8-2.1l2.5-0.1l2.2-2.1l-2.2-3.6l0.8-0.2l2.2,1l-0.4,2
		l1.9,4.1l0.4,2.8l-0.7,5.1l1.9,3.8l1.3,5.6l2.5,6.2l-4.7-0.7l-3,8.2l0.1,1.5L534.6,296.7z M523.6,108.4l6.3,3.1l0.9,2.8l-1.8,0.5
		l-11-1.7l-3.8,0.9l-0.3-1.3l3.6-1.3l1.9-2.5L523.6,108.4z M544.9,94.4l7.4-0.7l1,1.9l2.3-0.6l8,1l-1.1,2.2l-6.4,1.5l-4.7-0.3
		l-9.8-3.7l1.4-3.2L544.9,94.4z M536.2,95.4l-2.5,2.4l-6.6-0.7l-1.9-2.1l2.2-3.1l-3.1-0.1l-1.1,1.9l2.7,3.9l5,1.2l-6.2,1.3l-2.4-1.5
		l-8.1,1.9l-2.6-1l-2.1,2.7l-5.2-1.5l-4.9-4.6h2.3l-1.2-2.8l2.6-1.3l-1.3-1.5l6.6-2.8l4.2,2.9l5.6,2.4l0.1-4.1l1.4-1.2l5.6,2.8h6.4
		l6.7,2.8l-3,0.9L536.2,95.4z M335,74.5l-5.3,2.5l-3.5-0.6l7.1-9.7l4.1-4.2l2.2-0.7l2.9,1.5l-2.3,4.7l2.2-2.3l4.2-1.3l3.3,2.9
		l3.1,0.4l0.9,3l-2.5,1.8l-4.9,1L335,74.5z M298.2,62l6.4-3l-1.8-1.5l3.1-1.5l11.8-1.2l3.7,3l0.8-1.9l5.8,1.4l1,2.1l-1.9,4.5h-2.3
		l4.2,3l-2.5,1.6l-7.5,0.4l-4.5-1.7l-8.1-0.2l-3.1-1.9l-0.3-2.5L298.2,62z M85.3,56.8l1-1.1h5.2l2.1,2.3l-4.4-1.5l-5.8,3.4L79,59.5
		l-2-1.4L85.3,56.8z M150.2,58.2l-8.3-1l1.1-3l7-0.7l4.7-0.6l0.1,2.9L150.2,58.2z M90.1,62l-3.7,0.9l-2.2-1.4l6.3-0.2L90,60.2
		l2.2-1.7l3.4,0.4l2.2-1.4l-3-1.3l5.6-1.9l6.8,2.5l-3.3,1.6l-9.7,1.9l1.3,2.1L89,63.9L90.1,62z M314.6,47.1l4.6,2l-3.5,0.7l0.2,4.4
		l-12.2,1.5l-1.8,1.3l-0.6,0.6l-11.4-3.1l1.7-1.9l3.8-0.6l2.3-3.2l-3.5,0.4l2.4-2.5l8.4-1.9l4-1.7L314.6,47.1z">
		<desc  xmlns="http://www.highcharts.com/svg/namespace">
			<name>Russia</name>
			<labelrank>2</labelrank>
			<country-abbrev>Rus.</country-abbrev>
			<subregion>Eastern Europe</subregion>
			<region-wb>Europe &amp; Central Asia</region-wb>
			<iso-a3>RUS</iso-a3>
			<iso-a2>RU</iso-a2>
			<woe-id>23424936</woe-id>
			<continent>Europe</continent>
			<hc-middle-x>0.55</hc-middle-x>
			<hc-middle-y>0.51</hc-middle-y>
			<hc-key>ru</hc-key>
			<hc-a2>RU</hc-a2>
		</desc>
	</path>
	<path id="SH" class="st0" d="M424.6,464.3L424.6,464.3h-0.1H424.6z">
		<desc  xmlns="http://www.highcharts.com/svg/namespace">
			<name>Scarborough Reef</name>
			<labelrank>6</labelrank>
			<country-abbrev>S.R.</country-abbrev>
			<subregion>South-Eastern Asia</subregion>
			<region-wb>East Asia &amp; Pacific</region-wb>
			<iso-a3>-99</iso-a3>
			<iso-a2>SH</iso-a2>
			<woe-id>-99</woe-id>
			<continent>Asia</continent>
			<hc-middle-x>0.54</hc-middle-x>
			<hc-middle-y>0.51</hc-middle-y>
			<hc-key>sh</hc-key>
			<hc-a2>SH</hc-a2>
		</desc>
	</path>
	<path id="MY" class="st0" d="M422.4,500.8l1.1-0.4v0.8l-0.8,0.4L422.4,500.8z M427,514.9h-0.8h-0.1v-0.1l-0.6,0.1l-1.7-0.8
		l-3.7,0.4l-2.6-0.3l-1.3,2.2l0.4,2.1l-0.6,1.9l-1.8,1l0.7,1.4l-1.9,1.3l0.3,1.6l-1.5,2.1l-2.7,0.1l-1.1,1l-2.9-1.3l-3.9,0.5
		l-1.6,2.1l-2.8-0.2l-2.9,1.1l-3.4-2.4l-1.5-2.1l0.5-0.9l1.3,1.7l5,0.4l1.3-4.1l1.5-1.8l6.1-1.7l4.2-5.2l0.1-1.5l2.8,2.5l1.2-1.8
		l-0.5-1.5l1-0.7l0.2-0.1v0.4l0.5,2l1.1,0.2l-1-2.6l2-1.5l-1.1-0.4l0.9-1.4l1.3,0.2l1.1-2.6l1.7-1.8l1.2-2.4l0.3,2l1.4-2l0.7,1.7
		l2.1,1l0.2,2.2l1.1-0.7l0.6,1.7l1.3-0.6l4,2.6l-2.7,1.3l-2.4,0.3l2.9,1.9l-4.4,1.2L427,514.9z M345.2,507.3l0.1-1.2l4.3,1.9
		l0.2,2.8l1.9-1.3l1.3,0.7l1.1-2.4l5,3.9l1.6,2.6l0.2,2.1l-0.6,2.6l0.7,1.1l-0.1,2.6l1.6,1.4l2.6,5.3l-4.3-0.3l-9.7-5.6l0.3-1
		l-1.6-2.5l-1.5-1l-0.8-2.1v-2.4l-1-1l-0.2-4.3L345.2,507.3z">
		<desc  xmlns="http://www.highcharts.com/svg/namespace">
			<name>Malaysia</name>
			<labelrank>3</labelrank>
			<country-abbrev>Malay.</country-abbrev>
			<subregion>South-Eastern Asia</subregion>
			<region-wb>East Asia &amp; Pacific</region-wb>
			<iso-a3>MYS</iso-a3>
			<iso-a2>MY</iso-a2>
			<woe-id>23424901</woe-id>
			<continent>Asia</continent>
			<hc-middle-x>0.86</hc-middle-x>
			<hc-middle-y>0.17</hc-middle-y>
			<hc-key>my</hc-key>
			<hc-a2>MY</hc-a2>
		</desc>
	</path>
	<path id="AZ" class="st0" d="M86.8,347.2l-0.1,0.1l-0.2-0.2l0.2-0.1L86.8,347.2z M87.7,347.5l-0.2,0.1v-0.2l0,0L87.7,347.5z
		 M85.9,354.5l4.6,0.6l1.8,3.7l-3.3-0.7l-3-3.3l0,0L85.9,354.5z M103.7,360.9l-2.8-2.2l1.3-1.3l0.1-1.7l-2.4-1.6l-4.4,2.9l-1.5,1.6
		l-0.7-2.6l-3.5-3.4l1.5-1.1l-2.9-2.4l1-1l-2.8-2.2l2.1-0.9l4.8,2l0.9-1.3l-2.5-2l1.1-1.4l1.5,0.2l2.5,2.9l2.8,0.4l3.1-3.5l2.2,2.2
		l2.7,4.2l2.1,0.2l1.4,1.1l-2.1,0.1l-2,1.6l-1,5.8l-1-0.9l-0.3,4L103.7,360.9z M88.9,349.5h0.2l0.2-0.2h-0.4V349.5z">
		<desc  xmlns="http://www.highcharts.com/svg/namespace">
			<name>Azerbaijan</name>
			<labelrank>5</labelrank>
			<country-abbrev>Aze.</country-abbrev>
			<subregion>Western Asia</subregion>
			<region-wb>Europe &amp; Central Asia</region-wb>
			<iso-a3>AZE</iso-a3>
			<iso-a2>AZ</iso-a2>
			<woe-id>23424741</woe-id>
			<continent>Asia</continent>
			<hc-middle-x>0.77</hc-middle-x>
			<hc-middle-y>0.42</hc-middle-y>
			<hc-key>az</hc-key>
			<hc-a2>AZ</hc-a2>
		</desc>
	</path>
	<path id="AM" class="st0" d="M88.9,349.5v-0.2h0.4l-0.2,0.2H88.9z M94,358.6l-0.6-0.2l-1.1,0.4l-1.8-3.7l-4.6-0.6l-1.5-1.4
		l-3.7-0.6l0.2-3.1l-1.4-2.3l3.4-0.8l3.7-0.4l2.8,2.2l-1,1l2.9,2.4l-1.5,1.1l3.5,3.4L94,358.6z M86.8,347.2l-0.1-0.2l-0.2,0.1
		l0.2,0.2L86.8,347.2z M87.7,347.5l-0.2-0.1l0,0v0.2L87.7,347.5z">
		<desc  xmlns="http://www.highcharts.com/svg/namespace">
			<name>Armenia</name>
			<labelrank>6</labelrank>
			<country-abbrev>Arm.</country-abbrev>
			<subregion>Western Asia</subregion>
			<region-wb>Europe &amp; Central Asia</region-wb>
			<iso-a3>ARM</iso-a3>
			<iso-a2>AM</iso-a2>
			<woe-id>23424743</woe-id>
			<continent>Asia</continent>
			<hc-middle-x>0.56</hc-middle-x>
			<hc-middle-y>0.42</hc-middle-y>
			<hc-key>am</hc-key>
			<hc-a2>AM</hc-a2>
		</desc>
	</path>
	<path id="VN" class="st0" d="M362.3,488.3l0.4,0.9l-0.3,1l-0.8-1.5L362.3,488.3z M378.8,436.1l-3.8,2.7l-0.4,1.1l-2.4,0.9l0.3,1.5
		l-2.5,1.1l-1.7,4.8l2.3,3.3l1.6,0.7l1,3.1l6,5.4l1.4,0.2l2.8,3.8l1.5,3l1.2,3.9l-0.3,2.3l1.2,3.3l-1.2,0.1l0.3,4.2l-1,1.8l-4.1,2.2
		l-3.7,2.6l-1.8-0.6l-1.7,4.6l-4.3,2l-1.9,2.4l-1.5-0.8l0.4-4.8l0.8-0.7l-2.2-0.6l-0.7-1.2l1.8-0.6l0.7-1.8l3.3-0.6l2,1.1l-1.6-2.4
		l0.7-2.2l1.9,0.4l-0.2-1.4h1.4l3.7-1.9l-0.4-3.1l0.6-2.4l-1.4-2.7l0.8-2.7l0.6-2.8l-2.4-2.1l0.6-1.4l-3.6-2.8l-0.1-1.4l-3.7-3.1
		l-1.4-2.4l-1.8-1.2l0.1-1.2l-1.8-0.3l-4.1-2.3l1.7-2l1.3,0.5l2-2.4l-2.8-1.6l1.1-1.1l-2.6-1.3l-1.7,1.5l-2.6-0.9l-1.1-2.1l0.4-1.3
		l-4.1-3.8l1.4-1.8l2.6,1.5l1.4-1.7l1.5-0.1l1.6,1.2l3.8-2l0.2-1.2l2-1l2.5,2.1l2.9-0.2l1.3,0.8l-1,1.6l0.6,2l3.3,1.8L378.8,436.1z"
		>
		<desc  xmlns="http://www.highcharts.com/svg/namespace">
			<name>Vietnam</name>
			<labelrank>2</labelrank>
			<country-abbrev>Viet.</country-abbrev>
			<subregion>South-Eastern Asia</subregion>
			<region-wb>East Asia &amp; Pacific</region-wb>
			<iso-a3>VNM</iso-a3>
			<iso-a2>VN</iso-a2>
			<woe-id>23424984</woe-id>
			<continent>Asia</continent>
			<hc-middle-x>0.58</hc-middle-x>
			<hc-middle-y>0.91</hc-middle-y>
			<hc-key>vn</hc-key>
			<hc-a2>VN</hc-a2>
		</desc>
	</path>
	<path id="TJ" class="st0" d="M204.2,343.6l-0.1,0.1l-0.3-0.3h0.2L204.2,343.6z M204.3,349.6l0.4,0.1l-0.6,0.3l-0.5-0.5L204.3,349.6
		z M218.2,351.2l0.9,4.5l2.4-0.4l2.1,0.8l0.7,4.8l1.3,1l-1.3,0.9l-1.1-0.8l-4.7,1l0.6-1l-2.2-0.1l-2.8,2.3l-4.7,1.9l-0.9-1.9
		l0.6-4.4l-1.5-0.1l0.2-1.9l-2.6-0.7l-2.6,2.7v2.1l-2.9-0.1l-1.2,2.6l-1.3-1.2l-4.3,2.3l-1.1-1.3l0.1-1.8l2.3-3.5l-1.4-1.9v-2.4H191
		l-1.6-1.1l1.8-2.3l3.5,0.3l2.2-3.7l1.2,0.1l-0.5-1.9l1.1-1.4l1,0.9l3.6-2.3l1.4,1.8l-1.8,1.3l1.1,1.3l1.8-0.2l-2,1.2l-2.6-0.9
		l-2.9,1.3v2.6l4.1-0.2l2.3,0.5l3.5-1.2l1.3,1.7l1.4-0.5l5-0.1L218.2,351.2z">
		<desc  xmlns="http://www.highcharts.com/svg/namespace">
			<name>Tajikistan</name>
			<labelrank>4</labelrank>
			<country-abbrev>Tjk.</country-abbrev>
			<subregion>Central Asia</subregion>
			<region-wb>Europe &amp; Central Asia</region-wb>
			<iso-a3>TJK</iso-a3>
			<iso-a2>TJ</iso-a2>
			<woe-id>23424961</woe-id>
			<continent>Asia</continent>
			<hc-middle-x>0.34</hc-middle-x>
			<hc-middle-y>0.54</hc-middle-y>
			<hc-key>tj</hc-key>
			<hc-a2>TJ</hc-a2>
		</desc>
	</path>
	<path id="UZ" class="st0" d="M209.5,349.1l-0.4-0.2l0.4-0.2h0.1L209.5,349.1z M206.8,348.4l0.2,0.9l-0.8-0.4l-0.3-1L206.8,348.4z
		 M152,322.2l-1,2.3l3.4,2.7l0.5-3.5l4.6,2.5l0.6,1.2l4.1,3.7l5.4-1l5.6,0.2l2.4-0.9l2.6,2.1l1.4,2.3l1.4-0.7l-0.2,5.5h2.2l1,4.3
		l5.7-0.2l0.3,2.1l2.8,1l-0.1-1.7l2-2.5l4-2l2.4-2.2l2.2-0.9l1.4,0.2l-4.8,3.6l4.7,2.4l2.6-2l1.9,2.4l4.4,1l-2.3,1.6l-1.1-0.5
		l-3.1,2.6l-2-0.9l-1.2,0.5l-1.8,0.2l-1.1-1.3l1.8-1.3l-1.4-1.8l-3.6,2.3l-1-0.9l-1.1,1.4l0.5,1.9l-1.2-0.1l-2.2,3.7l-3.5-0.3
		l-1.8,2.3l1.6,1.1h1.8v2.4l1.4,1.9l-2.3,3.5l-0.1,1.8h-2.5l-1.1-0.9l-2.3,0.1l0.1-3.5l-3.2-1.2l-1.2,0.3l-6-3.7l-0.9,0.1l-7.9-5.4
		l-2.8-5.9l-1.9-0.9l-0.9,0.8l-4-0.3l-1.5-0.8l-0.8-3l0.4-1.4l-2.5-0.4l-4.1-2.6l-2.2,0.9l1.7,1.7l-2.3-0.9l-1.5,1.9l-2-0.7l-0.6,2
		l-0.2,3.7l-4.7-0.2l-0.7-20.4l11.9-3.5l-1.5,3.5l0.4,2.9l1.9-1.8l-0.1-4.2l1.7,0.9L152,322.2z M204.2,343.6l-0.2-0.2h-0.2l0.3,0.3
		L204.2,343.6z">
		<desc  xmlns="http://www.highcharts.com/svg/namespace">
			<name>Uzbekistan</name>
			<labelrank>3</labelrank>
			<country-abbrev>Uzb.</country-abbrev>
			<subregion>Central Asia</subregion>
			<region-wb>Europe &amp; Central Asia</region-wb>
			<iso-a3>UZB</iso-a3>
			<iso-a2>UZ</iso-a2>
			<woe-id>23424980</woe-id>
			<continent>Asia</continent>
			<hc-middle-x>0.40</hc-middle-x>
			<hc-middle-y>0.38</hc-middle-y>
			<hc-key>uz</hc-key>
			<hc-a2>UZ</hc-a2>
		</desc>
	</path>
	<path id="TL" class="st0" d="M461.2,573.6l1-1.5l8.3-1.8l1.6,0.4l-3.9,2.6l-3.8,1.2L462,576l0.3-1.4L461.2,573.6z M457.2,575.5
		l0.8-0.4l1.1-0.4l-0.8,1.5L457.2,575.5z">
		<desc  xmlns="http://www.highcharts.com/svg/namespace">
			<name>East Timor</name>
			<labelrank>5</labelrank>
			<country-abbrev>T.L.</country-abbrev>
			<subregion>South-Eastern Asia</subregion>
			<region-wb>East Asia &amp; Pacific</region-wb>
			<iso-a3>TLS</iso-a3>
			<iso-a2>TL</iso-a2>
			<woe-id>23424968</woe-id>
			<continent>Asia</continent>
			<hc-middle-x>0.62</hc-middle-x>
			<hc-middle-y>0.31</hc-middle-y>
			<hc-key>tl</hc-key>
			<hc-a2>TL</hc-a2>
		</desc>
	</path>
	<path id="KH" class="st0" d="M356.3,481.2L356.3,481.2L356.3,481.2l-0.2-0.5l0.2-1.3l-1.3-1.1l-0.9-4.1l0.9-0.1l2.5-3.4l2.6-0.7
		l1.6,0.3l3.5-0.6l1.9,0.4l3.4,1.9l1-0.8l-0.8-1.3l2.4-1.2l2.1,1.2l2.5-1.8l-0.8,2.7l1.4,2.7l-0.6,2.4l0.4,3.1l-3.7,1.9H373l0.2,1.4
		l-1.9-0.4l-0.7,2.2l1.6,2.4l-2-1.1l-3.3,0.6l-0.7,1.8l-1.8,0.6l-1-0.7l-2.8,0.4l0.1-2.6l-2.6,0.7l0.1-1.7l-1.1-1.5L356.3,481.2
		L356.3,481.2z">
		<desc  xmlns="http://www.highcharts.com/svg/namespace">
			<name>Cambodia</name>
			<labelrank>3</labelrank>
			<country-abbrev>Camb.</country-abbrev>
			<subregion>South-Eastern Asia</subregion>
			<region-wb>East Asia &amp; Pacific</region-wb>
			<iso-a3>KHM</iso-a3>
			<iso-a2>KH</iso-a2>
			<woe-id>23424776</woe-id>
			<continent>Asia</continent>
			<hc-middle-x>0.52</hc-middle-x>
			<hc-middle-y>0.52</hc-middle-y>
			<hc-key>kh</hc-key>
			<hc-a2>KH</hc-a2>
		</desc>
	</path>
	<path id="BT" class="st0" d="M290.3,410.9l2.9-4.1l3-1.2l1.2,1.3l2.8,0.4l0.9-0.6l1.6,1.6l0.6,1.7l1.1-0.4l0.6,2.7l-2.6,0.7
		l-4.3,0.3l-0.9-0.6l-2.6,1.1l-3.3-0.5l-1.8-1.6L290.3,410.9z">
		<desc  xmlns="http://www.highcharts.com/svg/namespace">
			<name>Bhutan</name>
			<labelrank>5</labelrank>
			<country-abbrev>Bhutan</country-abbrev>
			<subregion>Southern Asia</subregion>
			<region-wb>South Asia</region-wb>
			<iso-a3>BTN</iso-a3>
			<iso-a2>BT</iso-a2>
			<woe-id>23424770</woe-id>
			<continent>Asia</continent>
			<hc-middle-x>0.16</hc-middle-x>
			<hc-middle-y>0.55</hc-middle-y>
			<hc-key>bt</hc-key>
			<hc-a2>BT</hc-a2>
		</desc>
	</path>
	<path id="GE" class="st0" d="M80.8,338.1l0.7,1l4.2-1.3l3.9,1.3l-0.3,1.5l3.7,1.7l-1.1,1.4l2.5,2l-0.9,1.3l-4.8-2l-2.1,0.9
		l-3.7,0.4l-3.4,0.8l-3-2.4l-1.7,0.8l-4.2-0.3l1.1-1.7l-1.4-4.5l-3-2.2l-2.4-0.4l-1.7-1.3l0,0l0,0l1.1-1.1l1.9,0.2l4.2,1.6l4-0.2
		l2.7,0.6L80.8,338.1z">
		<desc  xmlns="http://www.highcharts.com/svg/namespace">
			<name>Georgia</name>
			<labelrank>5</labelrank>
			<country-abbrev>Geo.</country-abbrev>
			<subregion>Western Asia</subregion>
			<region-wb>Europe &amp; Central Asia</region-wb>
			<iso-a3>GEO</iso-a3>
			<iso-a2>GE</iso-a2>
			<woe-id>23424823</woe-id>
			<continent>Asia</continent>
			<hc-middle-x>0.33</hc-middle-x>
			<hc-middle-y>0.51</hc-middle-y>
			<hc-key>ge</hc-key>
			<hc-a2>GE</hc-a2>
		</desc>
	</path>
	<path id="KZ" class="st0" d="M260.8,284.1l1.8,0.7l2.1,3.6l3.3,1l1.5,2.9l4.2,0.5l1.9-0.8l3.4,2.9l-2-0.1l-1.4,3.5l-3.5,0.8
		L271,302l0.8,3.1l-0.7,2l-3.3,1.4l-0.6-0.9l-3.4,0.2l-3.5-1.3l-2.5,5.9l-1.1,3.9l1.5,0.5l-0.1,1.5l-2.9,0.2l-1-1l-7.6,2l-0.3,1.3
		l1.7,0.8v3.1l2.2,5.3l-2.8,2.9l0.4,2.4l-1.4-1.2l-2.3-0.2l-1.3-1.7l-3-0.4l-12.5,0.1l-2.7,0.6l-4.7-2.2l-2.4,1.2l-1,2.7l0.5,0.9
		l-7.7-2l-2,0.3l-1.8,1.3l-0.2,1.8l-2.2,0.9l-2.4,2.2l-4,2l-2,2.5l0.1,1.7l-2.8-1l-0.3-2.1l-5.7,0.2l-1-4.3h-2.2l0.2-5.5l-1.4,0.7
		l-1.4-2.3l-2.6-2.1l-2.4,0.9l-5.6-0.2l-5.4,1l-4.1-3.7l-0.6-1.2l-4.6-2.5l-0.3-4.1h-1.1l1.3-2.5l1.9,0.5l3.2-1.9l0.3-1.3l-2.4-1.2
		l-3.5,0.8l3.8,1.6l-0.8,1.1l-5.2-1.3l1.1,1.4l-1.4,2.2l-0.7-1.8l-2.4,0.9l-0.6,1.9l-11.9,3.5l0.7,20.4l-2.5,0.3l-2.5-3.4l-3.4-2
		L123,340l-2.4,2.2l-0.2-1.9l1.3-3.6l-3.6-0.4l-1.4-2l-1.7,0.3l0.1-1.6l-2.3-4.1l-2.8-1l0.2-1.5l4.7,0.1l-1.6-1.3l1.8-2.8l5.2-0.7
		l3.4,0.3l-2.5-1l1.5-2.8l0.4-4l-1.3-1.4l-2.2-0.2l-0.9,1.2l-4.8-1.7l-3.6,1.6l-2.7,2h-2.3L105,317l0,0l-3.6-1.8l2.5-0.7l-2.4-3.6
		l-2.2-2l-4.3-0.2l-0.3-2.6l-2.7-0.7l2.3-4.8l-1.2-0.7l0.5-2.9l1.8-1.4l1.1-2.5l4.1,3.7l2.1-1.3l-1.1-3.3l3.3-1.8v-1.5l4.2-1.5
		l1-1.9l3.6-0.1l1.9,0.7l2.5-1.7l0.8,1.7l3.9-0.3l5.3,3.8l0.7-1.1l4.8,2.8l3.8-3.3l3-0.3l2.4,1.1l0.3-1.4l2.5-0.2l2.9,2.7l4,0.8l1-2
		l3.3,1.1l2.9-0.9l1.3-2.9l-3.4-2.1h-0.8l-1.9-0.2l-1.1-1.3l4.1-2.9l-1.8-2l1.7-1.6l4.8-0.6l-0.3-0.8l-3.9-0.9l0.5-1.6l-1.5-0.6
		l0.8-2.4l1.9,0.4l6.8-1.1l4-1.5l5.7-0.5l1-1.8h2.4l10-2.5l0.3-1.6l3.1-1.6l3.4,0.5l2.4,1.2l2.8-1.1l1.8,3.5l0.2,4l4.1-0.5l0.6-1.1
		l1.1,2.6l0.8-1.5l4.1,1l-1.3,1.9l1,1.4l2.3-1.4l0.6,0.3l1.6,0.7l0.2-1.3l2.6-0.9l1.8-1.3l0.9-0.6l5.5-2.5l-1.4,3.2l6.3,4.1
		l7.7,10.7l2.5,4.2l2.1-1.1l1-2.1l3.4,1.9l0.3,1.4l4.7-0.1l1.2-1.2L260.8,284.1z M148.8,320.4l1.5-2l1.5,1.5l0.2,2.3l-1.5-0.9
		L148.8,320.4z">
		<desc  xmlns="http://www.highcharts.com/svg/namespace">
			<name>Kazakhstan</name>
			<labelrank>3</labelrank>
			<country-abbrev>Kaz.</country-abbrev>
			<subregion>Central Asia</subregion>
			<region-wb>Europe &amp; Central Asia</region-wb>
			<iso-a3>KAZ</iso-a3>
			<iso-a2>KZ</iso-a2>
			<woe-id>-90</woe-id>
			<continent>Asia</continent>
			<hc-middle-x>0.56</hc-middle-x>
			<hc-middle-y>0.46</hc-middle-y>
			<hc-key>kz</hc-key>
			<hc-a2>KZ</hc-a2>
		</desc>
	</path>
	<path id="IL" class="st0" d="M42.7,408.4l-0.6-0.9l-3.2-7.7l2.3-3.3l1.6-5.9h1.7l1.5-1.7l0.4,2.3l-0.6,1.1l0,0l-0.9,0.5l0.2,4.5
		l-0.7,1.3l0.1,0.9l-0.1,0.4v0.1l-0.1,0.3l0.3,0.4l-1.2,3.4L42.7,408.4z">
		<desc  xmlns="http://www.highcharts.com/svg/namespace">
			<name>Israel</name>
			<labelrank>4</labelrank>
			<country-abbrev>Isr.</country-abbrev>
			<subregion>Western Asia</subregion>
			<region-wb>Middle East &amp; North Africa</region-wb>
			<iso-a3>ISR</iso-a3>
			<iso-a2>IL</iso-a2>
			<woe-id>23424852</woe-id>
			<continent>Asia</continent>
			<hc-middle-x>0.60</hc-middle-x>
			<hc-middle-y>0.22</hc-middle-y>
			<hc-key>il</hc-key>
			<hc-a2>IL</hc-a2>
		</desc>
	</path>
	<path id="SY" class="st0" d="M46.4,391.2l-0.4-2.3l0.4-1.2l3-3l-1-2.1l-2-0.1l-0.3-4l-0.9-0.7l0.7-1.9l1.1,0.5l1-2.2h1.3l-0.1-3.2
		l3.6,0.9l3.4-1.5l2.2,0.9l5.1-0.3l4.2-2h3.5l3.4-1.5l0.7,1.2l-2.3,2.6l-1.9,0.6l-0.8,2.5l0.7,2l-0.6,4.6l-2.3,2.4l-8.6,5.2
		l-8.8,5.7l-2-0.3l-2.9-1.7l0,0L46.4,391.2z">
		<desc  xmlns="http://www.highcharts.com/svg/namespace">
			<name>Syria</name>
			<labelrank>3</labelrank>
			<country-abbrev>Syria</country-abbrev>
			<subregion>Western Asia</subregion>
			<region-wb>Middle East &amp; North Africa</region-wb>
			<iso-a3>SYR</iso-a3>
			<iso-a2>SY</iso-a2>
			<woe-id>23424956</woe-id>
			<continent>Asia</continent>
			<hc-middle-x>0.32</hc-middle-x>
			<hc-middle-y>0.35</hc-middle-y>
			<hc-key>sy</hc-key>
			<hc-a2>SY</hc-a2>
		</desc>
	</path>
	<path id="JO" class="st0" d="M44.6,400.7l0.4-0.5l-0.6-0.2v-0.1l0.1-0.4h0.6v-2.2l-0.2-4.5l0.9-0.5l0,0l2.9,1.7l2,0.3l8.8-5.7
		L61,393l0.4,1.9l-0.8,0.7l-9.1,2.8l4.9,4.9l-2.3,2.6l-3.2,0.7l-1.2,1.9l-2.1,1.6l-4.9-0.6l0.2-0.9l-0.2-0.2l0.7-4.3L44.6,400.7z">
		<desc  xmlns="http://www.highcharts.com/svg/namespace">
			<name>Jordan</name>
			<labelrank>4</labelrank>
			<country-abbrev>Jord.</country-abbrev>
			<subregion>Western Asia</subregion>
			<region-wb>Middle East &amp; North Africa</region-wb>
			<iso-a3>JOR</iso-a3>
			<iso-a2>JO</iso-a2>
			<woe-id>23424860</woe-id>
			<continent>Asia</continent>
			<hc-middle-x>0.21</hc-middle-x>
			<hc-middle-y>0.69</hc-middle-y>
			<hc-key>jo</hc-key>
			<hc-a2>JO</hc-a2>
		</desc>
	</path>
	<path id="TM" class="st0" d="M141.8,340.4l1.3,2.1l2.3-0.8l-1-2.6l1.5-1.9l2.3,0.9l-1.7-1.7l2.2-0.9l4.1,2.6l2.5,0.4l-0.4,1.4
		l0.8,3l1.5,0.8l4,0.3l0.9-0.8l1.9,0.9l2.8,5.9l7.9,5.4l0.9-0.1l6,3.7l1.2-0.3l3.2,1.2l-0.1,3.5l-3.5-1l-1.1,1.9l-2,0.1L178,366
		l-1.4,3.6l-4.9,2.3l-1.2,2.2l-3.5,1.6l-1.3-1.4l-3.5-0.9l-1.1-5.3l-3.3,0.2l-1.6-2l-3-1.5l-0.1-0.9l-2.6-1l-6.7-1.2l-0.6-1.5
		l-3.6,0.2l-0.6,0.9l-4,0.2l-2.6,1.7l-0.3,1.3l-3.9,1.1l-0.6-6.3l0.6-2l-1.9-2.2l-2.3-0.4l2.8-0.8l-1.4-1.2l0.7-0.9l-3.8-0.5
		l-0.1-2.3l0.8-2.7l0.8,1.1l2.9,0.7l2.8-0.6l1.7-2.2l-3-1.9l-1-3.3h-3.3l-1.6,1.9l0.1,2.1l-1.8-1.9l2.4-2.2l5.5-1.2l3.4,2l2.5,3.4
		l2.5-0.3l4.7,0.2L141.8,340.4z">
		<desc  xmlns="http://www.highcharts.com/svg/namespace">
			<name>Turkmenistan</name>
			<labelrank>4</labelrank>
			<country-abbrev>Turkm.</country-abbrev>
			<subregion>Central Asia</subregion>
			<region-wb>Europe &amp; Central Asia</region-wb>
			<iso-a3>TKM</iso-a3>
			<iso-a2>TM</iso-a2>
			<woe-id>23424972</woe-id>
			<continent>Asia</continent>
			<hc-middle-x>0.57</hc-middle-x>
			<hc-middle-y>0.50</hc-middle-y>
			<hc-key>tm</hc-key>
			<hc-a2>TM</hc-a2>
		</desc>
	</path>
	<path id="CNM" class="st0" d="M37.4,380.7L37.4,380.7H37h-0.1v-0.1h0.3L37.4,380.7z M30.8,380.3h0.1l0.1,0.1l0.1-0.2l0,0h0.1
		l-0.2,0.2L30.8,380.3z M31.3,380.3L31.3,380.3h0.1l3.2-0.2l1.3,0.8H36v0.2l-1.4-0.8l-2.7,0.6L31.3,380.3z">
		<desc  xmlns="http://www.highcharts.com/svg/namespace">
			<name>Cyprus No Mans Area</name>
			<labelrank>9</labelrank>
			<country-abbrev>NULL</country-abbrev>
			<subregion>Western Asia</subregion>
			<region-wb>Europe &amp; Central Asia</region-wb>
			<iso-a3>-99</iso-a3>
			<iso-a2>NULL</iso-a2>
			<woe-id>-99</woe-id>
			<continent>Asia</continent>
			<hc-middle-x>0.24</hc-middle-x>
			<hc-middle-y>0.35</hc-middle-y>
			<hc-key>cnm</hc-key>
			<hc-a2>CN</hc-a2>
		</desc>
	</path>
	<path id="MN" class="st0" d="M417.6,297.7l1.7-0.4l-0.7-0.8h3.7l5.5,4.5l1,2.5l-1,0.7l-4-0.8l-2.6,0.4L417,306l-3.2,0.4l-1.9,3.5
		l-2.4,1.5l-5,0.6l-2.1,2.6l-1.9,1.1L393,314l-1.3,0.8l-1.4,3.5l2.6,3.6l-4.5,2.4l-2.3,3l-4.2,1.9l-6,0.2l-6.4,1.1l-7.1,3.2
		l-0.8,0.9l-2.4-0.3v-1.1l-3.6,0.7l-3-1.2l-4.8-0.9l-1.9-1.7l-7.4-0.7l-2.5,0.8l-10.5-0.9l-3.9,0.4l-2.1-2.6l-2.6-5.9l-1.6,0.3
		l-5.1-2.2l-1.9-1.5l-8.6-0.3l-3.6-0.6l-1.1-1.7l1.5-3.1l0.1-3.1l-2.8-4.2l-0.7-2l-3.7-2.1l-2.3,0.3l-2.2-1.9l-3-1.5l-0.6-3.3
		l1.5-1.7h3.2l3.7-1.8l-0.3-1.1l6.2-3.4l1.9-0.3l4-2.4l1.6,0.9l7.3,0.4l1.9,3.3l4.1,0.6l1.6-0.8l5,0.6l1.6,0.9l3.6-2.2l0.8-2.7
		l-2.3-2.9l1-2.8l2.9-2.4l0.8-1.8l5.2,2.3l2.3-0.1l4.1,1.5l3.6,0.7l0.9,4.7l6.2,2.2l7.5-2.3l4.3,1l1.9-0.3l2.6,1.9l3.3,0.2l0.1,1.7
		l2.8,1.9l2.8-0.3l7.3,1l2.7-1.4l7.8-1.6l0.7-1.4l4.8-2.9l2.2,0.1l2.9,2l3.8-0.9l2.2,1.1l-5,10.2l1.6,2.4l1.8-1l2.8-0.1l2.2,1.2
		L417.6,297.7z">
		<desc  xmlns="http://www.highcharts.com/svg/namespace">
			<name>Mongolia</name>
			<labelrank>3</labelrank>
			<country-abbrev>Mong.</country-abbrev>
			<subregion>Eastern Asia</subregion>
			<region-wb>East Asia &amp; Pacific</region-wb>
			<iso-a3>MNG</iso-a3>
			<iso-a2>MN</iso-a2>
			<woe-id>23424887</woe-id>
			<continent>Asia</continent>
			<hc-middle-x>0.48</hc-middle-x>
			<hc-middle-y>0.51</hc-middle-y>
			<hc-key>mn</hc-key>
			<hc-a2>MN</hc-a2>
		</desc>
	</path>
	<path id="KW" class="st0" d="M101.1,411.5l-1.1-2.3l-4.2-0.3l2.5-4.4l1.1-0.7l2.8,0.4l0.4,0.9l0.3-1V404v0.1l1.1,1l-0.5,1l-0.8-0.9
		l0.6,1.1l-2.1,1.1h1.8l1.6,3.9L101.1,411.5z">
		<desc  xmlns="http://www.highcharts.com/svg/namespace">
			<name>Kuwait</name>
			<labelrank>6</labelrank>
			<country-abbrev>Kwt.</country-abbrev>
			<subregion>Western Asia</subregion>
			<region-wb>Middle East &amp; North Africa</region-wb>
			<iso-a3>KWT</iso-a3>
			<iso-a2>KW</iso-a2>
			<woe-id>23424870</woe-id>
			<continent>Asia</continent>
			<hc-middle-x>0.64</hc-middle-x>
			<hc-middle-y>0.48</hc-middle-y>
			<hc-key>kw</hc-key>
			<hc-a2>KW</hc-a2>
		</desc>
	</path>
	<path id="IQ" class="st0" d="M102.9,404.1l-0.7,0.1l-2.8-0.4l-1.1,0.7l-2.5,4.4l-8.4-0.2l-12.3-9l-8-4.1l-5.7-0.7L61,393l-1.5-4.4
		l8.6-5.2l2.3-2.4l0.6-4.6l-0.7-2l0.8-2.5l1.9-0.6l2.3-2.6l1.6-1.4l3.5,0.5l3.4-0.2l0.4,1.4l2.1-0.9l1.1,3.2l1.2,0.6l0.6,2.2
		l4.3,0.6l-1.4,1.8l1,1.4l-1.2,0.7l-2.1,3.4l-0.1,2.5l2.4,1.6l1.9,3.4l3.9,2.4H99l2.3,3.4l-0.6,3.9l1.6,0.1l0.1,2.5l2.4,2.5
		l-1.5-0.3L102.9,404.1z">
		<desc  xmlns="http://www.highcharts.com/svg/namespace">
			<name>Iraq</name>
			<labelrank>3</labelrank>
			<country-abbrev>Iraq</country-abbrev>
			<subregion>Western Asia</subregion>
			<region-wb>Middle East &amp; North Africa</region-wb>
			<iso-a3>IRQ</iso-a3>
			<iso-a2>IQ</iso-a2>
			<woe-id>23424855</woe-id>
			<continent>Asia</continent>
			<hc-middle-x>0.53</hc-middle-x>
			<hc-middle-y>0.65</hc-middle-y>
			<hc-key>iq</hc-key>
			<hc-a2>IQ</hc-a2>
		</desc>
	</path>
	<path id="AE" class="st0" d="M140.1,422.3l0.4,1.9l0.6,0.2l0.4,0.5l0.2,2.6l-1.6,1.2l-1.1-0.5l-0.1,3l1.2,0.7l-2.5,0.7l0.4,0.9
		l-1.5,3.8l0.1,1.4l-0.4,0.4l-11.6-1.1l-4.7-5.4l-0.2-0.8l1.2,1.2l3.5-0.9l4.6,0.4l2.5-0.6l1.6-1.2l0.9-2.1l1.7-1.1L140.1,422.3z
		 M141.2,426.3l0.3-0.3l-0.6-0.1l0.1,0.5L141.2,426.3z">
		<desc  xmlns="http://www.highcharts.com/svg/namespace">
			<name>United Arab Emirates</name>
			<labelrank>4</labelrank>
			<country-abbrev>U.A.E.</country-abbrev>
			<subregion>Western Asia</subregion>
			<region-wb>Middle East &amp; North Africa</region-wb>
			<iso-a3>ARE</iso-a3>
			<iso-a2>AE</iso-a2>
			<woe-id>23424738</woe-id>
			<continent>Asia</continent>
			<hc-middle-x>0.80</hc-middle-x>
			<hc-middle-y>0.52</hc-middle-y>
			<hc-key>ae</hc-key>
			<hc-a2>AE</hc-a2>
		</desc>
	</path>
	<path id="LA" class="st0" d="M342.8,442.9l0.4-1.8l1.5-0.6l0.8-2.4l1.9-1.3l0.6,1.8l2.1,0.1v-3.2l-1.1-2l0.6-1l2.1,0.1l4.1,3.8
		l-0.4,1.3l1.1,2.1l2.6,0.9l1.7-1.5l2.6,1.3l-1.1,1.1l2.8,1.6l-2,2.4l-1.3-0.5l-1.7,2l4.1,2.3l1.8,0.3l-0.1,1.2l1.8,1.2l1.4,2.4
		l3.7,3.1l0.1,1.4l3.6,2.8l-0.6,1.4l2.4,2.1l-0.6,2.8l-2.5,1.8l-2.1-1.2l-2.4,1.2l0.8,1.3l-1,0.8l-3.4-1.9l1-0.4l0.7-2.7l-0.6-0.4
		l0.8-2.6l-1.2-1.7l-1.7-0.5l-1.3-1.8l0.1-4l-2.5-2.2l-1.4-2.1l-2.8-0.5l-3.2,2.9l-2.8-1.6l-4.2,3.7l-1.1-0.6l1.2-2.2l-0.7-1.7
		l1.2-3l-0.4-2.5l-3.6,0.3l0.3-2.9L342.8,442.9z">
		<desc  xmlns="http://www.highcharts.com/svg/namespace">
			<name>Laos</name>
			<labelrank>4</labelrank>
			<country-abbrev>Laos</country-abbrev>
			<subregion>South-Eastern Asia</subregion>
			<region-wb>East Asia &amp; Pacific</region-wb>
			<iso-a3>LAO</iso-a3>
			<iso-a2>LA</iso-a2>
			<woe-id>23424872</woe-id>
			<continent>Asia</continent>
			<hc-middle-x>0.65</hc-middle-x>
			<hc-middle-y>0.59</hc-middle-y>
			<hc-key>la</hc-key>
			<hc-a2>LA</hc-a2>
		</desc>
	</path>
	<path id="PK" class="st0" d="M233.3,370.8l1.3,2.7l-2.2,2.1l-3.5,1.3l-6.9-1.2l-2.3,2.2l0.9,1.8l1.5,0.2l-1.3,1.6l0.2,2.5l1.5,1.8
		l1.7-0.2l0.2,1.9l3,0.9l-2.4,1.3l-1.5,1.6l0.9,3.2l-1.5,0.9l-2.1,2.9l0.5,0.8l-2.6,1.4l-2,4.5l-2.4,1.3l-2.2,4.2l-4.7,1.4l-2.3-1.5
		l-3.3,4.2l-0.5,1.9l3.2,1.3l-0.3,2.7l1,1.3l1.7-0.1l0.1,1.3l2,3.6l0.1,1.3l-1.4,0.9l-1.1-0.9l-2.5,1.4l-1.9-0.5l-3.8,0.1v1.5
		l-2.5,0.7l-2.5,0.3l-1.3-1.2l-1-2.9l-2.2-0.7l0.1-2l-1.4-1.7l-3.4,1.3l-5.3,0.6l-4.3-0.3l-0.3,0.8l-4.7-0.1l-3.5,1.2l-0.6-0.8
		l1-5.1l4.1-2.1h1.8l0.7-2.4l-2.4-0.5l-0.5-5.1l-3.9-1.2l-2.9-4.2l-2.1-2.2l7.5,2l5-0.6l2.4,0.4l1.8-0.9h2.5l5.3-1.6l0.6-5.5
		l2.6-2.1l1.8,0.5l1.9-0.7l-0.9-1l2.7-1.5l2.8,0.9l2.4-1.7l-0.4-2.4l1.3-3.4l3.4-1.4l-1.5-3.6l2.4,0.4l2.5-0.7l-0.1-3.2l2.5-2.8
		l-0.3-1.8l-2-2.5l2-2.2l4.3-2.1l4.9-0.5l2.1,0.2l2-1l3.7,0.4l3,2.3l-0.4,1.9l1.3,1.5l1.7-0.6L233.3,370.8z">
		<desc  xmlns="http://www.highcharts.com/svg/namespace">
			<name>Pakistan</name>
			<labelrank>2</labelrank>
			<country-abbrev>Pak.</country-abbrev>
			<subregion>Southern Asia</subregion>
			<region-wb>South Asia</region-wb>
			<iso-a3>PAK</iso-a3>
			<iso-a2>PK</iso-a2>
			<woe-id>23424922</woe-id>
			<continent>Asia</continent>
			<hc-middle-x>0.53</hc-middle-x>
			<hc-middle-y>0.59</hc-middle-y>
			<hc-key>pk</hc-key>
			<hc-a2>PK</hc-a2>
		</desc>
	</path>
	<path id="JK" class="st0" d="M234.6,373.5l-1.3-2.7l2.9,0.8l1.8-0.2L234.6,373.5z">
		<desc  xmlns="http://www.highcharts.com/svg/namespace">
			<name>Siachen Glacier</name>
			<labelrank>5</labelrank>
			<country-abbrev>Siachen</country-abbrev>
			<subregion>Southern Asia</subregion>
			<region-wb>South Asia</region-wb>
			<iso-a3>-99</iso-a3>
			<iso-a2>JK</iso-a2>
			<woe-id>23424928</woe-id>
			<continent>Asia</continent>
			<hc-middle-x>0.24</hc-middle-x>
			<hc-middle-y>0.39</hc-middle-y>
			<hc-key>jk</hc-key>
			<hc-a2>JK</hc-a2>
		</desc>
	</path>
	<path id="QA" class="st0" d="M116.2,429.5l-0.4-3.6l1.2-2.8l1-0.5l1.5,1.3l-0.4,1.8l0.6,2.7l-1.6,1.7l-1.1,0.3L116.2,429.5z">
		<desc  xmlns="http://www.highcharts.com/svg/namespace">
			<name>Qatar</name>
			<labelrank>5</labelrank>
			<country-abbrev>Qatar</country-abbrev>
			<subregion>Western Asia</subregion>
			<region-wb>Middle East &amp; North Africa</region-wb>
			<iso-a3>QAT</iso-a3>
			<iso-a2>QA</iso-a2>
			<woe-id>23424930</woe-id>
			<continent>Asia</continent>
			<hc-middle-x>0.50</hc-middle-x>
			<hc-middle-y>0.50</hc-middle-y>
			<hc-key>qa</hc-key>
			<hc-a2>QA</hc-a2>
		</desc>
	</path>
	<path id="TR" class="st0" d="M85.9,354.5l0.1,0.3l0,0l-1.1-0.6l-0.7,1.8l-1.6,0.2l1.1,3l-0.1,4.6l1.8,1.3l0.9,3l-2.1,0.9l-0.4-1.4
		l-3.4,0.2l-3.5-0.5l-1.6,1.4l-0.7-1.2l-3.4,1.5h-3.5l-4.2,2l-5.1,0.3l-2.2-0.9l-3.4,1.5l-3.6-0.9l0.1,3.2H48l-1,2.2l-1.1-0.5
		l-0.6-2.1l1.8-1.5l-0.8-1.7l-3.1,2.1l-2.7-1.3l-0.9,0.3l-3.9,3.4l-4,0.8l-2.1-0.8l-1.6-1.8l-3.2-1.3l-3-0.3l-1.2,3.4l-3.3,0.8
		l-2.4-1.1l-1.1-2.1l-3-0.4l0.1-1.1l-4.8,0.6l1.6-1.7l-1.9-0.3v-3.4l-4.6-1.3l3.1-1l-1-1.5l1.4-1.2l-2-1.7l1.2-1.7l-3.7,0.7l0.5-2.9
		l2.4-2.2l11-0.6l-0.8-1.1l1.7-0.7l-1.5-1.1l0.8-1.4l4.8-0.1l4.4,0.5l0.8-1.2l3.8-2.4l4.8-1.8l6.3,0.2l1.2-0.9l2.7,2.5l2-0.6
		l2.3,2.6l0.8-0.8l4.4,1.7l3.5,0.6l5-1.3l3.2,0.9l5.7-2.7l0.6-0.7l4.2,0.3l1.7-0.8l3,2.4l1.4,2.3l-0.2,3.1l3.7,0.6L85.9,354.5z
		 M1.9,345.3l3.3-1l1.3,1l2.1-0.5l0.4,1.8l4.8,2.1l-0.6,1.3l-3.4-0.3l-3.2,0.6l-1.6,2l-2.2,1l-2.3,2.3l0.2-1.5l2.7-1.6L0,352.6
		l1.2-2L1,349l1.4-0.7L1,346.5L1.9,345.3z">
		<desc  xmlns="http://www.highcharts.com/svg/namespace">
			<name>Turkey</name>
			<labelrank>2</labelrank>
			<country-abbrev>Tur.</country-abbrev>
			<subregion>Western Asia</subregion>
			<region-wb>Europe &amp; Central Asia</region-wb>
			<iso-a3>TUR</iso-a3>
			<iso-a2>TR</iso-a2>
			<woe-id>23424969</woe-id>
			<continent>Asia</continent>
			<hc-middle-x>0.38</hc-middle-x>
			<hc-middle-y>0.49</hc-middle-y>
			<hc-key>tr</hc-key>
			<hc-a2>TR</hc-a2>
		</desc>
	</path>
	<path id="BN" class="st0" d="M409,513.5l2.5-0.5l2-1l-1,0.7l0.5,1.5l-1.2,1.8L409,513.5z M414.3,511.9l1,2.6l-1.1-0.2l-0.5-2
		l0.5-0.1L414.3,511.9z">
		<desc  xmlns="http://www.highcharts.com/svg/namespace">
			<name>Brunei</name>
			<labelrank>6</labelrank>
			<country-abbrev>Brunei</country-abbrev>
			<subregion>South-Eastern Asia</subregion>
			<region-wb>East Asia &amp; Pacific</region-wb>
			<iso-a3>BRN</iso-a3>
			<iso-a2>BN</iso-a2>
			<woe-id>23424773</woe-id>
			<continent>Asia</continent>
			<hc-middle-x>0.44</hc-middle-x>
			<hc-middle-y>0.33</hc-middle-y>
			<hc-key>bn</hc-key>
			<hc-a2>BN</hc-a2>
		</desc>
	</path>
	<path id="AF" class="st0" d="M224.3,362.8l-2.3,0.6l0.8,0.6l-2,1l-2.1-0.2l-4.9,0.5l-4.3,2.1l-2,2.2l2,2.5l0.3,1.8l-2.5,2.8
		l0.1,3.2l-2.5,0.7l-2.4-0.4l1.5,3.6l-3.4,1.4l-1.3,3.4l0.4,2.4l-2.4,1.7l-2.8-0.9l-2.7,1.5l0.9,1l-1.9,0.7l-1.8-0.5l-2.6,2.1
		l-0.6,5.5l-5.3,1.6H178l-1.8,0.9l-2.4-0.4l-5,0.6l-7.5-2l4.1-5l-0.6-2.8l-3.9-0.4l-0.1-3.8l-1.4-4.6l1.4-2l-1.7-0.4l-0.2-2.4
		l1.8-1.2l-0.9-1l1.6-1.6l0.8-4.2l3.5,0.9l1.3,1.4l3.5-1.6l1.2-2.2l4.9-2.3l1.4-3.6l1.3-1.6l2-0.1l1.1-1.9l3.5,1l2.3-0.1l1.1,0.9
		h2.5l1.1,1.3l4.3-2.3l1.3,1.2l1.2-2.6l2.9,0.1v-2.1l2.6-2.7l2.6,0.7l-0.2,1.9l1.5,0.1l-0.6,4.4l0.9,1.9l4.7-1.9l2.8-2.3l2.2,0.1
		l-0.6,1l4.7-1L224.3,362.8z">
		<desc  xmlns="http://www.highcharts.com/svg/namespace">
			<name>Afghanistan</name>
			<labelrank>3</labelrank>
			<country-abbrev>Afg.</country-abbrev>
			<subregion>Southern Asia</subregion>
			<region-wb>South Asia</region-wb>
			<iso-a3>AFG</iso-a3>
			<iso-a2>AF</iso-a2>
			<woe-id>23424739</woe-id>
			<continent>Asia</continent>
			<hc-middle-x>0.35</hc-middle-x>
			<hc-middle-y>0.55</hc-middle-y>
			<hc-key>af</hc-key>
			<hc-a2>AF</hc-a2>
		</desc>
	</path>
	<path id="KP" class="st0" d="M467.7,348.6l-4,0.2l-2.2,2.6l-2.4,0.1l-2.5-1l0.1,1.4l-4.4-1.7l3.3-6.5l-0.7-1.1l-4.5-2l0.2-1
		l2.3-2.1l5-2.5l2.7-4.3l1.4-0.7l1.6,1.5l4,0.6l0.7-1.2l-1.3-2.2l4-0.3l1.9-2.4h1.7l0.5-2.9l1.3-0.2l1.9,2.5l0.6,0.8l0.2,0.4
		l-1.3-0.1l-3.3,4.4l0.7,0.9l-0.3,3l-2.2,0.8l-2.5,2.8l-5.1,2.6l-0.2,3.1l1.4,0.3l2.8,2.5L467.7,348.6z">
		<desc  xmlns="http://www.highcharts.com/svg/namespace">
			<name>North Korea</name>
			<labelrank>3</labelrank>
			<country-abbrev>N.K.</country-abbrev>
			<subregion>Eastern Asia</subregion>
			<region-wb>East Asia &amp; Pacific</region-wb>
			<iso-a3>PRK</iso-a3>
			<iso-a2>KP</iso-a2>
			<woe-id>23424865</woe-id>
			<continent>Asia</continent>
			<hc-middle-x>0.40</hc-middle-x>
			<hc-middle-y>0.64</hc-middle-y>
			<hc-key>kp</hc-key>
			<hc-a2>KP</hc-a2>
		</desc>
	</path>
	<path id="LB" class="st0" d="M42.8,390.6l2-4.3l1.6-3.8l2,0.1l1,2.1l-3,3l-0.4,1.2l-1.5,1.7H42.8z">
		<desc  xmlns="http://www.highcharts.com/svg/namespace">
			<name>Lebanon</name>
			<labelrank>5</labelrank>
			<country-abbrev>Leb.</country-abbrev>
			<subregion>Western Asia</subregion>
			<region-wb>Middle East &amp; North Africa</region-wb>
			<iso-a3>LBN</iso-a3>
			<iso-a2>LB</iso-a2>
			<woe-id>23424873</woe-id>
			<continent>Asia</continent>
			<hc-middle-x>0.54</hc-middle-x>
			<hc-middle-y>0.55</hc-middle-y>
			<hc-key>lb</hc-key>
			<hc-a2>LB</hc-a2>
		</desc>
	</path>
	<path id="NC" class="st0" d="M30.9,380.3H31l0.1-0.1l-0.1,0.2L30.9,380.3z M36.9,380.6l-0.6,0.3h-0.4l-1.3-0.8l-3.2,0.2l0.9-1.2
		l2.4,0.3l5.2-1.8l-3,2l0.5,1.1l-0.2-0.1H36.9z">
		<desc  xmlns="http://www.highcharts.com/svg/namespace">
			<name>Northern Cyprus</name>
			<labelrank>6</labelrank>
			<country-abbrev>N. Cy.</country-abbrev>
			<subregion>Western Asia</subregion>
			<region-wb>Europe &amp; Central Asia</region-wb>
			<iso-a3>-99</iso-a3>
			<iso-a2>NC</iso-a2>
			<woe-id>-90</woe-id>
			<continent>Asia</continent>
			<hc-middle-x>0.54</hc-middle-x>
			<hc-middle-y>0.64</hc-middle-y>
			<hc-key>nc</hc-key>
			<hc-a2>NC</hc-a2>
		</desc>
	</path>
	<path id="CY" class="st0" d="M37.4,380.7l-0.5,0.5v-0.5H37H37.4z M30.8,380.3l0.2,0.1l0.2-0.2l0.1,0.1l0.6,0.6l2.7-0.6l1.4,0.8
		l-2.1,1.6l-3.8-0.2l-0.6-1.7L30.8,380.3z">
		<desc  xmlns="http://www.highcharts.com/svg/namespace">
			<name>Cyprus</name>
			<labelrank>5</labelrank>
			<country-abbrev>Cyp.</country-abbrev>
			<subregion>Western Asia</subregion>
			<region-wb>Europe &amp; Central Asia</region-wb>
			<iso-a3>CYP</iso-a3>
			<iso-a2>CY</iso-a2>
			<woe-id>-90</woe-id>
			<continent>Asia</continent>
			<hc-middle-x>0.41</hc-middle-x>
			<hc-middle-y>0.49</hc-middle-y>
			<hc-key>cy</hc-key>
			<hc-a2>CY</hc-a2>
		</desc>
	</path>
	<path id="TW" class="st0" d="M440.5,415.7l1.9,1.2l-0.9,1l-1.6,8.1l-1.9,3l-0.4,3l-2.4-2.9l-1.4-2.9l0.1-1.7l2.6-5.5l1.6-2.2
		L440.5,415.7z">
		<desc  xmlns="http://www.highcharts.com/svg/namespace">
			<name>Taiwan</name>
			<labelrank>3</labelrank>
			<country-abbrev>Taiwan</country-abbrev>
			<subregion>Eastern Asia</subregion>
			<region-wb>East Asia &amp; Pacific</region-wb>
			<iso-a3>TWN</iso-a3>
			<iso-a2>TW</iso-a2>
			<woe-id>23424971</woe-id>
			<continent>Asia</continent>
			<hc-middle-x>0.24</hc-middle-x>
			<hc-middle-y>0.76</hc-middle-y>
			<hc-key>tw</hc-key>
			<hc-a2>TW</hc-a2>
		</desc>
	</path>
	<path id="NP" class="st0" d="M286.6,408.3l-0.5,3.8l0.9,1.7l-0.3,1.5l-3.5,0.6l-1.3-1.1l-1.5,0.9l-2-0.9l-2.1,0.2l-1.1-1.3
		l-1.4,0.6l-3-1.3l-0.3-1.5l-8.4-0.5l-3.3-1.9l-3.4-1l-0.8-1.2l-5.2-2.1l1.9-4.9l2.3-2l0.5,0.9l1.2-1.9l3.3,0.1l0.3,1.3l3.2,2
		l1.5,0.1l1.7,2.1l2.7-0.4l0.6,1.7l2.1,1.4h2.3l-0.4,1.4l2.8-0.2l1.4,2.2l2.6-1.1l2.8,1.2L286.6,408.3z">
		<desc  xmlns="http://www.highcharts.com/svg/namespace">
			<name>Nepal</name>
			<labelrank>3</labelrank>
			<country-abbrev>Nepal</country-abbrev>
			<subregion>Southern Asia</subregion>
			<region-wb>South Asia</region-wb>
			<iso-a3>NPL</iso-a3>
			<iso-a2>NP</iso-a2>
			<woe-id>23424911</woe-id>
			<continent>Asia</continent>
			<hc-middle-x>0.40</hc-middle-x>
			<hc-middle-y>0.46</hc-middle-y>
			<hc-key>np</hc-key>
			<hc-a2>NP</hc-a2>
		</desc>
	</path>
	<path id="LK" class="st0" d="M253,495l2.9,2l3,4l0.4,1.6l1.7,2.3l0.5,2.7l-0.9,2.6l-1.4,1.1l-3.5,1.5l-1.9-0.5l-1.5-3.4l-0.8-5.5
		l1.8-7.3l-1.4-0.7L253,495z">
		<desc  xmlns="http://www.highcharts.com/svg/namespace">
			<name>Sri Lanka</name>
			<labelrank>3</labelrank>
			<country-abbrev>Sri L.</country-abbrev>
			<subregion>Southern Asia</subregion>
			<region-wb>South Asia</region-wb>
			<iso-a3>LKA</iso-a3>
			<iso-a2>LK</iso-a2>
			<woe-id>23424778</woe-id>
			<continent>Asia</continent>
			<hc-middle-x>0.46</hc-middle-x>
			<hc-middle-y>0.48</hc-middle-y>
			<hc-key>lk</hc-key>
			<hc-a2>LK</hc-a2>
		</desc>
	</path>
	<path id="KG" class="st0" d="M205.3,336.5l0.2-1.8l1.8-1.3l2-0.3l7.7,2l-0.5-0.9l1-2.7l2.4-1.2l4.7,2.2l2.7-0.6l12.5-0.1l3,0.4
		l1.3,1.7l2.3,0.2l1.4,1.2l-0.1,0.9l-4,1.4l-4.2,2.4l-1.3,1.9l-6,0.8l-0.6,1.7l-4.2,2l-0.5-1.8l-1.8,1l-1.6-0.3l-2.1,2.3l-1.7,0.3
		l-0.2,2.5l-1.3,0.8l-2.3,0.6l-5,0.1l-1.4,0.5l-1.3-1.7l-3.5,1.2l-2.3-0.5l-4.1,0.2V349l2.9-1.3l2.6,0.9l2-1.2l1.2-0.5l2,0.9
		l3.1-2.6l1.1,0.5l2.3-1.6l-4.4-1l-1.9-2.4l-2.6,2l-4.7-2.4l4.8-3.6L205.3,336.5z M204.3,349.6l-0.7-0.1l0.5,0.5l0.6-0.3
		L204.3,349.6z M209.5,349.1l0.1-0.4h-0.1l-0.4,0.2L209.5,349.1z M206.8,348.4l-0.9-0.5l0.3,1l0.8,0.4L206.8,348.4z">
		<desc  xmlns="http://www.highcharts.com/svg/namespace">
			<name>Kyrgyzstan</name>
			<labelrank>4</labelrank>
			<country-abbrev>Kgz.</country-abbrev>
			<subregion>Central Asia</subregion>
			<region-wb>Europe &amp; Central Asia</region-wb>
			<iso-a3>KGZ</iso-a3>
			<iso-a2>KG</iso-a2>
			<woe-id>23424864</woe-id>
			<continent>Asia</continent>
			<hc-middle-x>0.58</hc-middle-x>
			<hc-middle-y>0.38</hc-middle-y>
			<hc-key>kg</hc-key>
			<hc-a2>KG</hc-a2>
		</desc>
	</path>
</g>
<g>
	<path class="st1" d="M45.34,387.4c-5.09-8.06-10.19-15.57-14.49-23.63c-5.39-9.94,3.76-20.66,16.36-20.12
		c11.81,0.79,19.33,11.81,13.94,20.66c-4.3,6.97-9.39,13.69-14.24,20.66C46.68,385.81,46.14,386.36,45.34,387.4z"/>
	<path class="st2" d="M46.14,365.65c-3.76,0-6.97-2.96-6.72-6.18c0-3.21,3.51-5.93,7.26-5.64c3.76,0.25,6.97,2.96,6.72,6.18
		C53.11,362.98,49.89,365.65,46.14,365.65z"/>
</g>
<g>
	<path class="st3" d="M139.64,425.68c-5.09-8.06-10.19-15.57-14.49-23.63c-5.39-9.94,3.76-20.66,16.36-20.12
		c11.81,0.79,19.33,11.81,13.94,20.66c-4.3,6.97-9.39,13.69-14.24,20.66C140.98,424.09,140.44,424.64,139.64,425.68z"/>
	<path class="st2" d="M140.44,403.93c-3.76,0-6.97-2.96-6.72-6.18c0-3.21,3.51-5.93,7.26-5.64c3.76,0.25,6.97,2.96,6.72,6.18
		C147.41,401.26,144.19,403.93,140.44,403.93z"/>
</g>
<g>
	<path class="st4" d="M415.29,573.08c-5.09-8.06-10.19-15.57-14.49-23.63c-5.39-9.94,3.76-20.66,16.36-20.12
		c11.81,0.79,19.33,11.81,13.94,20.66c-4.3,6.97-9.39,13.69-14.24,20.66C416.63,571.49,416.09,572.04,415.29,573.08z"/>
	<path class="st2" d="M416.09,551.33c-3.76,0-6.97-2.96-6.72-6.18c0-3.21,3.51-5.93,7.26-5.64c3.76,0.25,6.97,2.96,6.72,6.18
		C423.06,548.66,419.84,551.33,416.09,551.33z"/>
</g>
<g>
	<path class="st4" d="M520.04,362.35c-5.09-8.06-10.19-15.57-14.49-23.63c-5.39-9.94,3.76-20.66,16.36-20.12
		c11.81,0.79,19.33,11.81,13.94,20.66c-4.3,6.97-9.39,13.69-14.24,20.66C521.38,360.76,520.84,361.31,520.04,362.35z"/>
	<path class="st2" d="M520.84,340.6c-3.76,0-6.97-2.96-6.72-6.18c0-3.21,3.51-5.93,7.26-5.64c3.76,0.25,6.97,2.96,6.72,6.18
		C527.81,337.93,524.59,340.6,520.84,340.6z"/>
</g>
<g>
	<rect x="82.8" y="548.77" class="st5" width="226.2" height="120.82"/>
	<g>
		<path class="st1" d="M96.09,572.12c-1.92-3.04-3.84-5.88-5.47-8.92c-2.03-3.75,1.42-7.8,6.18-7.59c4.46,0.3,7.29,4.46,5.26,7.8
			c-1.62,2.63-3.54,5.17-5.37,7.8C96.59,571.52,96.39,571.72,96.09,572.12z"/>
		<path class="st2" d="M96.39,563.91c-1.42,0-2.63-1.12-2.54-2.33c0-1.21,1.32-2.24,2.74-2.13c1.42,0.09,2.63,1.12,2.54,2.33
			C99.02,562.9,97.81,563.91,96.39,563.91z"/>
	</g>
	<text transform="matrix(0.7223 0 0 1 108.6859 570.1642)" class="st6 st7">The red pin the places in the world we have visited</text>
	<g>
		<path class="st4" d="M96.09,603.79c-1.92-3.04-3.84-5.88-5.47-8.92c-2.03-3.75,1.42-7.8,6.18-7.59c4.46,0.3,7.29,4.46,5.26,7.8
			c-1.62,2.63-3.54,5.17-5.37,7.8C96.59,603.18,96.39,603.38,96.09,603.79z"/>
		<path class="st2" d="M96.39,595.59c-1.42,0-2.63-1.12-2.54-2.33c0-1.21,1.32-2.24,2.74-2.13c1.42,0.11,2.63,1.12,2.54,2.33
			C99.02,594.56,97.81,595.59,96.39,595.59z"/>
	</g>
	<text transform="matrix(0.7223 0 0 1 108.6861 601.3511)" class="st6 st7">The green pins mark dream travel destinations</text>
	<g>
		<path class="st3" d="M96.26,632.74c-1.88-3.04-3.76-5.87-5.35-8.91c-1.99-3.75,1.39-7.79,6.05-7.59c4.37,0.3,7.14,4.46,5.15,7.79
			c-1.59,2.63-3.47,5.16-5.26,7.79C96.76,632.12,96.56,632.33,96.26,632.74z"/>
		<path class="st2" d="M96.56,624.53c-1.39,0-2.58-1.12-2.48-2.33c0-1.21,1.3-2.24,2.68-2.13s2.58,1.12,2.48,2.33
			C99.13,623.51,97.94,624.53,96.56,624.53z"/>
	</g>
	<text transform="matrix(0.7223 0 0 1 108.686 628.7466)" class="st6 st7">The yellow pins mark favorite destinations</text>
	<g>
		<path class="st8" d="M96.1,661.68c-1.88-3.04-3.76-5.87-5.35-8.91c-1.99-3.75,1.39-7.79,6.05-7.59c4.37,0.3,7.14,4.46,5.15,7.79
			c-1.59,2.63-3.47,5.16-5.26,7.79C96.59,661.07,96.39,661.27,96.1,661.68z"/>
		<path class="st2" d="M96.39,653.48c-1.39,0-2.58-1.12-2.48-2.33c0-1.21,1.3-2.24,2.68-2.13s2.58,1.12,2.48,2.33
			C98.96,652.45,97.78,653.48,96.39,653.48z"/>
	</g>
	<text transform="matrix(0.7223 0 0 1 110.5099 655.9206)" class="st6 st7">The blue pins mark my next travel destination</text>
</g>
<text transform="matrix(1 0 0 1 513.9003 450.2)" class="st9 st10">Asia</text>
</svg>
