<?xml version="1.0" encoding="utf-8"?>
<!-- Generator: Adobe Illustrator 23.0.4, SVG Export Plug-In . SVG Version: 6.00 Build 0)  -->
<svg version="1.1" id="Layer_1" xmlns="http://www.w3.org/2000/svg" xmlns:xlink="http://www.w3.org/1999/xlink" x="0px" y="0px"
	 viewBox="0 0 700 739.13" style="enable-background:new 0 0 700 739.13;" xml:space="preserve">
<style type="text/css">
	.st0{fill:#8FBC8F;stroke:#6E6E6E;stroke-width:0.4;}
	.st1{fill:none;}
	.st2{font-family:'SignPainter-HouseScriptSemibold';}
	.st3{font-size:45px;}
	.st4{fill:#B3D5C9;stroke:#787878;stroke-miterlimit:10;}
	.st5{fill:#C1272D;}
	.st6{fill:#FEFEFE;}
	.st7{font-family:'Futura-Medium';}
	.st8{font-size:11px;}
	.st9{fill:#149400;}
	.st10{fill:#FFFF00;}
	.st11{fill:#3F7BFF;}
</style>
<desc>Map version: 1.1.2
Copyright (c) 2015 Highsoft AS, Based on data from Natural Earth</desc>
<title>South America</title>
<g id="admin0">
	<path id="BR" class="st0" d="M457.35,163.03l-1,4.9l-5.5,4l-1.7-0.4l3.2-3.6l2-4.6L457.35,163.03z M460.95,160.63l-1.4-0.9l1.1-2.3
		l3.3,1L460.95,160.63z M476.15,157.73l1.4,0.9l-1.1,1.1l-4.1-0.5L476.15,157.73z M468.55,155.13l6.1-0.9l1.2,1l-3.4,2.8l-5.4-0.8
		L468.55,155.13z M467.65,153.43l0.9-1.8l2,1l-5.2,3.3l1.9-4.7L467.65,153.43z M418.05,487.03l0.8-3.1l3-4.2l2,1.3l2.5-3.2l-0.8-2.5
		l-4,3l-3.8-3.3l-0.9-2.9l-3-1.5l-3.6-4.4l-5.6-2.6l-2.6-3.8l-3.6,2.2l0.1-2.7l-6.8-7l-3.2,1.7l-3.4-1l2.5-2l7.9-8.8l5.7-7.8l4.1-3
		l2.5-0.6l1.1-2.1l9.4-4.1l1.2-2.7l0.7-6.4l-1.9-5.8l-1.7-1.3l-4.3,0.6l0.1-0.5l-0.1-0.9l3-3.6l0.5-9.5l-3.2-2.7l-2.8,1.5h-4
		l-1.9-9.5l0.2-3.6l-2.1-3.1l-2.9-0.5l-1.9-2l-3.9,2l-3.3-1l-5.7-0.6l-1.2-1l1.6-10.5l-3-7.7l2.8-1.7l-2.4-2.5l3.2-6.4l2.3-8.5
		l-2.1-6.1l-5.5-2.9l-0.7-9.2l-15.6-0.6l-1.1-7.5l-3.2-3.9l2.9-0.1l-0.2-4.5l-1.6-3.5l-0.1-4.7l-5.6-3.2l-7.7,0.7l-3.1-4l-6.2-1.2
		l-2.6-3.2l-3.1,0.2l-4-2l-1.1,0.9l-4.7-0.7l-0.7-1.9l-5.2-2.5l-2.1-2.4l-2.1-5.8l-0.5-6.9l1.2-2.4l-0.3-3.8l-1.5-1.4l-11.6,2.7
		l-4.1,3.7l-2.6,0.8l-3.6,4l-3.7,0.1l-1.7,2.9l-4.8,1.7l0.3-1.1l-8.1-0.1h-3.7l-3.2,1.6l-3.4-0.2l-0.9-14.4l-7.2,5l-7.9,0.6
		l-1.5-4.5l-5.1-0.8l-4,0.3l2.2-3.4l-2.4-3.4l-3.9-3.2l-2.4-5.6l-3.3-2.2l2.8-2.7l-0.9-3.9l5.9-5.3l-1.3-3.6l2-3.9l0.3-5.9l2.8-1.4
		l5.3-4.7l3-1.5l8.1-1.7l1.2-2.2l5.4-0.5l1.2,1.7l2.4-1.3l3.7-31.8l-2.8-4.5l-0.2-2.4l-4.9-3.7l-0.3-7.5l5.7-1.8l4,0.5l-2.8-4.2
		l-5.1,0.4l-0.5-6.8l18-1.3l-0.5-3.1l2.3,2.7l4.1-3.5l2.7-0.5l2.6,3.9l0.9,5.7l2-0.7l5.2,4.2l2.7,0.6l5.9-2.8l0.4,3.4l4.3-5.2
		l4.3-1.4l6.8-4.4l0.8-3.4l6.3-2.2l0.2-2.9l-7.2-0.3l0.5-2.6l-2.6-4.4l0.1-5.1l-3.7-2.6l-3.2-4.3l2.5,1.4l5.1,0.2l0.7,1.9l6.9-0.8
		l5.5,4.2l1.9-1.1l-0.2-3.9l4.1-1.7l2.1,0.8l6.8-1.7l2.9-3h3.1l4.4-4.2l-1.4-3.3l5.7-0.7l2.6,2l-1.8,6.2l5,1.4l-0.4,2.3l2.1,2.6
		l-3.3,3.5l-1.8,9.8l2.8,4.7l-0.1,4.4l5.4,5l3.6,1.7l4.1-0.5l2-3.4l8.3-1.1l2.4-2.7l2.6-0.5l3.1,1.6l3.5-0.6l4.9,1.2l1.2-2.1
		l-2.1-3.2l1.5-2l2.8,1.4l8.1-1.3l3.8,2.5l5,2.5l3.4-2l5.2-0.2l4.1,2.1l2.8-1.8l8.5-14.1l2.4-2.8l3.2-1.2v-3.6l3,3.2l0.2,5.6
		l4.3,16.1l1.2,2.3l1.2-2.3l2.7,4.2l2.8,1.8l-0.6,6.3l-2.2,3.2l-3.9,0.9l-3.7,4.7l-5.1,2.8l1,1.5l-3.1,1.4l-3,3.3l-0.5,3.1l-2.2,2.8
		l-2.9,0.1l-5.5,2.3l4.6-0.6l0.2,2l3.5-1.2l11.9-5.9l-1.6,1.9l2.7,7.2l2.1,1.5l5-0.8l3.3,1.2l3.4-1.9l-2.7,9.3l3.6-6.7l3.1-3.4
		l-0.2,1.9l3.7-3.9l2.1,2.9v-5l4.9-4.9l3.3-1l2.3,2.6l0.5-1.8l6.6,1.9l3.3,3.5l3.3-0.7l-0.8,2.2l2.8-0.5l2.7,3.4l1.5-0.8l1.8,5.1
		l3.8-3.7l1.6,3.9l2.8,1.8l0.7,5.8l-2.8,2.8l1.7,2.8l1.2-4l3.2-1.2l0.1,1.6l-3.3,2l2.9,0.3l3.3-2.3l1.2-2.6l2,3.3l0.2-2.2l7.5,3.2
		l4.5,3.4l9.1,2.1l8.8-0.2l5.2,1.4l5.9,4.3l6.4,6.1l1.8,0.5l3.1,5.2l4.3,5.4l2.7,1.3l1.1,2.4l5.9,3.2l5.8,0.2l4.8,1.8l1.8,3.9
		l1.1,14.6l0.6,2.9l-1.5,7.3l-5.1,9.3l-2,2.5l-12.9,11l-5.3,1.9l-6.4,6.9l-2.8,4.3l-4.7,5.2l-5,3l0.5-2.9l-2.7,0.5l1.5,2l-3.9,2.1
		l0.1,3.8l-2.1,2.6l1.2,0.9l-2.3,6.3l0.2,11.5l-5.1,12.3l-0.1,5.1l-3.8,2.6l-2.8,4.6l-1.1,8.7l-3.3,2.9l-3.9,6.6l-4,2.9l-3.9,6.1
		l0.4,4.1l-6.7,2.4l-3,2.1l0.4,2.5l-1.7,1.4l-8.7-0.9v-3l-1.9,0.6l0.2,2.4l-5.6-1.5l-7.7,1.1l0.8,2.5l-2.7-0.4l-5.2,2.6l1.4,2.4
		l-5.3-1.9l-2.5,0.6l-7.7,3.7l-0.4,1l-5.2,2.8l-7.1,6.6l-2.8,3.5l0.5,3.6l-1.8,2.9l0.4,7.7l1.4,1.3l-4.7,10.8l-4.7,2.7l-4.3,4.7
		l-2.3,3.5l-2.7,6.1l-3.8,5.4l-3.9,4.1l-6.2,4l6.1-5.2l0.4-2.9l3.7-2.4l0.6-4.3l-4.5-2l0.3,1.8l-1.8,2.8l-0.8,4.1l-4.1,2l-2.6,4
		l-0.7,5.4l-3.5,7.8l-6.5,6l-1.3-1V487.03z M486.95,162.03l-1.7,6.5l-3.4,3.1l-0.2,2.3l-3.7,1.5l-3-0.1l-3.8,1.7l-2-1.7l-1.5,1.1
		l-4.6-0.5l-1.9-3.6l0.9-6.4l-0.6-1.2l2.1-4.4l3.1-1.5l7.4,2l4.7-0.7L486.95,162.03z">
		<desc  xmlns="http://www.highcharts.com/svg/namespace">
			<name>Brazil</name>
			<labelrank>2</labelrank>
			<country-abbrev>Brazil</country-abbrev>
			<subregion>South America</subregion>
			<region-wb>Latin America &amp; Caribbean</region-wb>
			<iso-a3>BRA</iso-a3>
			<iso-a2>BR</iso-a2>
			<woe-id>23424768</woe-id>
			<continent>South America</continent>
			<hc-middle-x>0.48</hc-middle-x>
			<hc-middle-y>0.35</hc-middle-y>
			<hc-key>br</hc-key>
			<hc-a2>BR</hc-a2>
		</desc>
	</path>
	<path id="EC" class="st0" d="M157.35,200.23l-1.5,0.5l0.1-3.1l3.1-0.5L157.35,200.23z M155.55,204.63l3.7-2.6l1.5-6.7l-2.1-4.5
		l0.4,3.9h-2.1l-2.2,2.9l-3.9-2.5l-2.8-0.6l1.5-2.5l-1.9-4.8l0.7-3l-2.2-2.6l3.6-2.4l-0.3-5.3l3.9-5.1l-1-8.3l5.9-3.3l4.8-1.2
		l1.3-3.5l3.1,2.1l5.1,2.3l4.9,0.5l2.3,1.5l0.8,2.4l5.8,1.1l5.1-0.7l0.8-2.3l2.8,0.7l3.1,2.6l5.6,1.4l-3.8,0.5l4.4,3.9l0.9,4.5
		l-2-0.2l-0.8,6.1l-4.8,7.1l-5.6,5.3l-11.5,5.6l-3.1,4.4l-1.6,0.7v3.7l-2,6l0.4,2.3l-2.4,2.3l-1,2.9l-4.2-1.5l-0.9-2.8h-3.4
		l-3.4-1.6l-2.5,2.4l-1.4-4.7l3-1.7L155.55,204.63z">
		<desc  xmlns="http://www.highcharts.com/svg/namespace">
			<name>Ecuador</name>
			<labelrank>3</labelrank>
			<country-abbrev>Ecu.</country-abbrev>
			<subregion>South America</subregion>
			<region-wb>Latin America &amp; Caribbean</region-wb>
			<iso-a3>ECU</iso-a3>
			<iso-a2>EC</iso-a2>
			<woe-id>23424801</woe-id>
			<continent>South America</continent>
			<hc-middle-x>0.38</hc-middle-x>
			<hc-middle-y>0.40</hc-middle-y>
			<hc-key>ec</hc-key>
			<hc-a2>EC</hc-a2>
		</desc>
	</path>
	<path id="VE" class="st0" d="M355.95,60.13l-3.3,0.3l-0.4-1.4l3-1.3L355.95,60.13z M317.45,36.23l-2.9-1.8l2.4-1.4l1.7,1.1l1.9-2.3
		l1.1,2.4L317.45,36.23z M364.75,61.23l2.3,3l-2.3,2.6l-5.4,2.7l-2.6,3.3l1,3.4l3.9,1.3l-0.9,1.8l-3.8,2l-4.5,0.6l-0.9,1.9l1,3.9
		l-2.8,3.1l7.1,7.7l1.4,3.3l-4.4,4.2h-3.1l-2.9,3l-6.8,1.7l-2.1-0.8l-4.1,1.7l0.2,3.9l-1.9,1.1l-5.5-4.2l-6.9,0.8l-0.7-1.9l-5.1-0.2
		l-2.5-1.4l3.2,4.3l3.7,2.6l-0.1,5.1l2.6,4.4l-0.5,2.6l7.2,0.3l-0.2,2.9l-6.3,2.2l-0.8,3.4l-6.8,4.4l-4.3,1.4l-4.3,5.2l-0.4-3.4
		l-5.9,2.8l-2.7-0.6l-5.2-4.2l-4.1-12.3l-4.9-4.2l-2.3-0.7l5.5-6.1l-3.8-3.4l-2.9-8l0.4-6l-0.7-2.6l2.1-2.1l0.3-3.7l1.7-2.5
		l-1.7-2.5l-11.6,2.1l-4.8-0.6l-4.1,1.4l-7.9-8.6l-5.4-1.2l-6.6,1.9l-10.1-0.3l-1.7-3.4l-2.7-0.4l-1-5.7l1.6-1.9l-0.8-2.5l-3.6-3.3
		l-2.2-5.3l-2.2-1.6l-4,1.9l3.8-8.1l0.2-7.1l3.9-8.1l2.7-0.8l2.8-6l7.2-2.8l-0.5,1.1l-6.5,2.5l0.5,2.5l4.7,7.2l-0.3,3.1l-3.5,4.3
		l-1.5,3.4l4.9,5.5l-0.1,2.2l2.8,0.5l2.6-1.2l2.3-2.7l-0.2-4.6l-4.1-4.9l-3-6.6l7.7-5.1l4.1-1l6.2-3.5l2.3,0.3l-0.9-2.5l-4.2,1.4
		l-1.5-2.9l0.8-3l2.1-1.2l2.3,2l2.9,6.2l3.9-1l4.8,0.6l5.6,3.4l1.6,2.6l0.5,3.7l3.5,1.1l10.5-2.2l8.6-0.9l5,4.6l8.6,1.7l3.8-0.7
		l6.7-4.5l4.7-0.4l-4.6-1.2l16-2l8.7,1.1l-4.2,1.4l-5,0.5l1.7,4.2l4.5,3.2l-0.6-2.1l5.2,2.6l2.2-1.2l5.8,3.6l1.7,0.3l2.5,3.6
		l-3.8,3.8l-1.2,3.3l9.4-0.4L364.75,61.23z">
		<desc  xmlns="http://www.highcharts.com/svg/namespace">
			<name>Venezuela</name>
			<labelrank>3</labelrank>
			<country-abbrev>Ven.</country-abbrev>
			<subregion>South America</subregion>
			<region-wb>Latin America &amp; Caribbean</region-wb>
			<iso-a3>VEN</iso-a3>
			<iso-a2>VE</iso-a2>
			<woe-id>23424982</woe-id>
			<continent>South America</continent>
			<hc-middle-x>0.62</hc-middle-x>
			<hc-middle-y>0.44</hc-middle-y>
			<hc-key>ve</hc-key>
			<hc-a2>VE</hc-a2>
		</desc>
	</path>
	<path id="CL" class="st0" d="M314.95,718.73l1.5-0.2l1.4,3.3l-2.5-0.1L314.95,718.73z M318.05,712.03l-1.1,3.4l-1.7-1.5l-0.9,1.1
		l-2.8-0.2l-2-3.5l6.9-0.3L318.05,712.03z M292.05,712.63l4.4,1.3l-1.2,1.8l-0.3-1.8l-2.5,0.3L292.05,712.63z M301.85,711.73
		l2.3,0.4l-4.9,1.3l0.9-2.1L301.85,711.73z M287.65,702.13h1.5l0.6,1.9l1.4-0.8l-0.7,3.2l-2.5-2.6L287.65,702.13z M285.25,701.23
		l1.5,0.3l-0.9,4.8l-2.4-2.5L285.25,701.23z M295.65,702.33l-2.3-0.8l2.9,3.2l-2.8-0.7l-1.5-1.7l-0.1-2.1l1.6,0.2l-0.6-1.9l1.5-1.7
		L295.65,702.33z M271.15,685.73l-0.2,3.2l-1.2-0.7l-1.5-0.2L271.15,685.73z M265.75,685.13l1.4,3.4l-1.9-2.3l-2.3-1.6
		L265.75,685.13z M266.45,682.43l4,2.7l-2,0.8l-0.2-1.9L266.45,682.43z M261.65,680.63l-0.3-1.5l4.1,2.5l-1,2l-2.9-1.5
		L261.65,680.63z M261.15,675.63l-1.7,2.6l0.2-3.6l1.6,0.2l2.6-1.8l-1,2.6H261.15z M260.75,668.83l1.5-1.1l0.7,1.7l1.9-0.2l0.2,3.7
		l-3.1-2.2L260.75,668.83z M262.55,664.83l1.9-0.1l1.8,3.4l-0.9,0.8L262.55,664.83z M259.55,665.63l-0.9,3.2h-1.3l-0.4-2.9
		L259.55,665.63z M257.65,660.73l1.7,1.5l1.8-0.9l-2.5,3.8l-1.8-0.8l0.2-2l1.9,0.7L257.65,660.73z M255.75,655.83l1,0.4l1.5,2.8
		l-3.3-2.3L255.75,655.83z M256.05,649.53l0.5,1l-2.6-1l0.6-1.5L256.05,649.53z M255.65,645.63l-2.4-0.2l0.3-1.6l1.9-0.3
		L255.65,645.63z M257.45,645.63l0.5,3.5l-0.8,0.4l-1.6-6.9l-1,0.9l-1.3-3.5l1.6-1l2.4,4.7L257.45,645.63z M256.45,637.03l-1.9-0.9
		l2.4-1v2.2l1.7-0.8l0.8,3.1l-3.8-0.3L256.45,637.03z M264.55,636.43l-2.3,1.6l-1.4-0.6l1.7-1.3L264.55,636.43z M261.95,610.83
		l1.2,0.2l-0.6,4.3l-1.7-3L261.95,610.83z M259.05,610.83l1.5,2.4l-1.3,1.5l-2.3-0.5L259.05,610.83z M260.85,606.43l-2.1,0.4
		l1.1-1.6l1.7,0.2l2.1,2l-0.6,2.5h-2.3l-1.1-2.2L260.85,606.43z M258.05,596.63l1,5.5l5.1,0.9l-1.6,2.8l-1.1-1.4l-2.8,0.2
		L258.05,596.63z M266.85,599.33l3.1,0.7l-0.3,2.6l-3.1,2.6l-1.6-2.9L266.85,599.33z M262.85,597.03l-0.8-2.3l-3.1-0.1l2.2-0.8
		l1.8,1.9l0.2,2.8l-3,1.6l-0.5-1.9l1.4-1.2l0.5,2L262.85,597.03z M268.65,341.53l3.8-1.1l1.6-2.7l-0.9-2.4l3.1-2.4l3.7,5.9l2.3,6.9
		l-0.3,0.8l4.9,4.7l-1.7,2.9l1.2,3l-1.7,0.4l1.1,4.1l1.9,0.9l-0.7,2.4l3.6,3.8l1.3,6.4l1.1,1l1.4,4.8v2.6l3,0.4l3.1-0.8l1.7,1.6
		l-2.6,10.1l-7.6,3.9l-2.7,3.9l2,3.1l-1.9,3.3l2.1,7.1l-1.3,1.3l0.2,2.4l2.3,2.9v1.7l-2.1,1.3l-1.9-0.4l-1.6,3.4l-1.1,4.7l-3.8,4.9
		l-0.8,6.8l-1.9,2.7l1.2,3.4l-0.1,3.7l0.8,2.1l-2.3,0.7l-1,5.6l-1,1.7l-0.6,4.4l2.7,7l1.4,1.7l0.9,5.6l1,2.5l1.9,0.6l-0.7,2.9
		l0.9,5.6l-1.6,0.5l-1.4,3.1l-0.8,5.8l-1.3,0.6l1.3,2.8l0.7,5.3l-2.5,2.3v1.6l-2.5,0.9l-1,3.6l1.1,2.5l-0.8,2l0.5,4.1l1.7,3.5
		l1.5,6.1l-4,2.8l0.3,3l-0.6,3.9l-1.2-0.4l0.7,3.3l-1.3,3.3l1.2,1.2l-1.8,4l1,2.2v7l1.8,4.5l-2.2,0.8l0.3,3.6l-0.8,1.1l0.4,4.1
		l3.2,1.8l-1.2,2.8l1.7,1.3l0.8,3.4l-1.3,2l0.5,3l4.5-0.1l0.8,1l-1.4,3l-5.3-0.1v1.6l3.6,0.4l2.3,3.2l-1.4,2.4l-1.7,0.7l-0.1,1.8
		l1.6,2.3l-2.1,2.1l1.2,0.9l1,4.6l-1.7,1.3l-0.3,2.6l1.1,1.3l-2,2.7l-2.2,5.6l1.6,1.6l0.6,2.8l-1.9,1.4l0.2,3.7l-2.8,2.4l-0.9,2.8
		l-1.9,0.9l-0.7,2.5l1.1,2.4l-0.1,4.1l1.6,1.3l1.5,5.2l2.7-1.7h3.3l0.9,6.4l-1,3.6l3.7,3.2l0.3,1.3l13.5-0.8l10.3,2.5l0,0l0,0l0,0
		l0.2,0.1l0.1,0.5l-4.8-1.3l-2.1,0.7l-1.3,3.2l-1.3-0.4l-5.7,3.2l-1.2,5.6l0.4,4.2l-0.4,2.5l-2,0.9l-2.1-0.4l-4.5-2.4l-1.3-1.9
		l1-1.9l3.6-0.6l2.3-1.3l1.2-3.6h-1.2l-3.6,2.6l-1.9,2.3l-1.6,0.1l-0.3,2l1.2,1.8l-5.9-2.8l1.6-1.7l-0.5-3l1.7-1.6l0.1,1.8l3.5-2.7
		l4.7-0.5l-0.8-0.9h-5.1l-0.5,1.5l-3.1-1.4l1.3,1.7l-2.1,2.2l0.6,2l-2.5,0.8l-1.9-2.9l1.8-0.4l-0.3-2.2l-1.9,2.1l-0.1-4.8l-2.3-2.4
		l-4.1-2.3l0.7-1l4.1,3.1l-1.8-3l-1.8-0.8l2.1-1.3l-0.2-4.1l-2.7-1.6l1.3,3.8l-1.1-0.7l-0.8-4.5l3.6-1.6l-0.2-1.5l2-0.5l-2.1-1.4
		l-0.1,2.5l-2.1,0.4l-1.3-3.4l-3.2-2.2l2.2-1.6l-0.4-3.2l1.6-3.3l-0.7-2.9l-0.2,3.2l-1.3,1.3l-0.2-4.8l-0.8-1.7v-4.6l-2.3-6.2l4-0.4
		l5.3,1.8l-2.5-3l0.7-1.2l-7.1,0.4l-1.5-0.7l0.7-1.5l2,0.5l-1.5-2.1l1.2-2.3l2.4-0.8l-2.4-3.9l-2.6,0.3l-0.3,1.1l-3.2-2.2l-1.7,0.6
		l-1.3,3l-1.5-3.2l4-4.9l1,0.4l0.8-2.7l-0.7,1l-1.3-2.4l2.4-0.8l-0.1,1.4l0.4-1.1l3.8-0.9l1.5,2.3l1.5-2.6l0.7,2.9l-0.5,5.4l0.8-2.8
		l-0.2-3.7l2.1-3.9l-1.8,1.8l-1.8-1.3l0.5-2l3.7-1.9l-1.9-0.2l0.5-3.3l1.7-0.3l2.7-2.2v-2.8l-4.7-2.9l2.2-6.3l-1.6-1.2l2.2-4.8
		l-1-2.6l1.1-2.9l-1.2-2.3l1.9-0.5l1,2.2l-0.1-3l-3.7-2.1l2-2.2l-2.9-2.1l-0.7,2.8l-3.1,0.9l-2.1-0.4l-2.2-7.7l1.3-4.5l-0.5-5.7
		l1.9-1.7l1.3-3.6l-0.7-4.1l-2.6-6.4l0.3-3.3l-2-3.5l0.2-5.7l2.9-0.2l0.2-3.3l1-1.3l1-4.2l0.1-3.5l1.4-1.6l-0.6-2.3l2.9-4.8l1-4.6
		l-0.1-4.9l2.7-6.3l-1.4-4.2l1.5-1.1l0.8-6.3l-1.3-1.7l0.1-2.9l-1.9-7.1l-0.9-5.2l0.4-3.7l2.1-1.1l0.6-2.3l-1.3-6.1l-1.5-3.2
		l2.5-5.8v-4.1l1.7-3.3l-0.7-4.4l1.3-1.7l0.7-9.6l-1.1-1.7l0.6-2.8l1.6-2.1l-1.6-5.8v-9.2l0.6-2.7l-1.9,0.2l0.1-3.9l2.4-2.1
		l0.4-12.2l0.7-2.3l-1.6-5.8l0.1-7.3l-0.5-3.3l-1.6-4l-1-5.1l0.3-3.2L268.65,341.53z M307.55,710.03v0.7l-0.1,0.4l-2.7,0.8l-3.9-1.2
		l-2.8,0.6l-3.6-0.6l-1,0.8l-2.2-2.7l-0.6,1.3l-1.4-2l-0.3,1.6l-3.5,0.3l-0.6-2.2l2.3,1.1l-0.5-1.9l2.4-0.5l2.7,0.8v-1.5l2.3-0.1
		l-2.4-2.4l4.8,2.4l1.1-1.3l7.4,1.6l-7.4-3.5l-1.1-3l1.7-1.9l3.6-1.8l-0.1-1.9l-6,1.6l-1.6-1.6l0.2-3.4l2.1-1.2l-2.3-1.6l2.9,0.7
		l1.7-0.8l0.8-3.1l1.1-0.7l2.1,2.5l2.4-1.7l1,0.9l0,0l0.2,1.9l0.5,10.2l0.6,10.3l0.1,2h-0.4L307.55,710.03z M258.65,642.53l-1,0.9
		l-2-3.8l1,0.3l2.1,0.2l0.2,1.9l0.7-1.2l1.8,4.7l-3-0.3l-0.7-1.1L258.65,642.53z M272.75,694.43l-3-1.2v2l-3.9-3.1l-0.8-2.2l3,2.3
		l5.6,1.5l2.8,2.2l-3.5-0.3L272.75,694.43z M308.05,715.93l3.1,0.9l1.3,2.1l-0.6,1.5l-1.3-2.1l-4.7-0.8l0.9-2.9l-1.5,0.9l-3-0.1
		l0.8,1.9l-3.8-0.9l0.2-2.8l9.5-2l0.8,1.4l-1.8,1.1l2.6,1.5L308.05,715.93z M280.95,702.73l-1.6,0.7l-0.5-2.4l-2.9,2.6l-0.3-3.7
		l-1.6-1.3l-1.2-0.6l4.9-1.4l5.5,3.7l-1.6,2.2l1.6,1.8l-1.3,2.3l-0.7-1.4l1.3-1.2L280.95,702.73z M258.55,658.73l-1.5-3.1l-1.8-0.9
		l0.9-2l2.4-0.5l-1.5-1.1l0.8-1.3l1.8,0.7l-1.8-2.8l0.5-1.1l-0.3-1.1l3.5,0.5l1.2,6.4l-0.4,2.1l1.1,2.5l-0.5,2.8l-2.3,0.4l-0.2-3.5
		l-1.4-1.7L258.55,658.73z M257.35,580.13l0.7-3.2l-0.4-3.3l1.6,0.7l2.1-1.1l1.8,5l-1.8,0.9l-0.9,1.4l2.6,3.5l-1.2,0.4l1.4,2l-2,0.6
		l0.5,2.6l-2.6,0.3l-2.6-1.2l1.1-2.5l0.3-4L257.35,580.13z">
		<desc  xmlns="http://www.highcharts.com/svg/namespace">
			<name>Chile</name>
			<labelrank>2</labelrank>
			<country-abbrev>Chile</country-abbrev>
			<subregion>South America</subregion>
			<region-wb>Latin America &amp; Caribbean</region-wb>
			<iso-a3>CHL</iso-a3>
			<iso-a2>CL</iso-a2>
			<woe-id>23424782</woe-id>
			<continent>South America</continent>
			<hc-middle-x>0.43</hc-middle-x>
			<hc-middle-y>0.15</hc-middle-y>
			<hc-key>cl</hc-key>
			<hc-a2>CL</hc-a2>
		</desc>
	</path>
	<path id="AR" class="st0" d="M336.05,707.83h3.5l-5.7,2.2l-0.5-0.8L336.05,707.83z M307.55,710.03l0.5,0.7l-0.6,0.4l0.1-0.4V710.03
		z M379.45,481.03l-1.2,0.1l-1.4,6l1.4,5l-1.6,0.9l0.7,2.3l2.6,2.3l5.1,2.7l2.2,2.4l0.8,2.3l-1.7,2.4l0.7,4.4l4.4,2.3l0.2,4.6
		l-3.3,5.5l-3.7,4.5l-0.7,2.8l-4.5,2.7l-7.1,2.6l-14.2,2.8l-5.1,0.4l-6.9-1.9l1.1,4.4l1.9,1.1l-0.7,4.6h-1.5l-0.4,4l-0.9,1l1.6,2.6
		l2-2.5l-2.3,5.6l-5.8,3l-5.3,0.2l-7.4-3.2l-1.3-1.2l-2.1,3.2l1.6,5.5l-0.4,4.4l1.7,2.1l2.8,0.4l-0.8,1.8h3.6l-1.3-1.7l3.6-2
		l1.8,2.7l-0.1,4.2l-3.7,1.5l-0.7-2.5l-1.9-1.3l-3.8,1.6l-0.3,1.4l4.3,1.8l-2.5,1.8l-4,5.6l1.1,7.2l-1.2,2.4l-2.1,1.3l0.7,3.3
		l-4.4-0.2l-4.9,2.7l-3.2,4.2l-1.8,5.9l1.7,4.1l2.2,1.4l2.6,3l5.9,0.4l1.8,1.4l0.2,3.3l-1.5,5.8l-2.5,3.4l-5.3,3.7l-3,3.8l-0.8,8.4
		l-0.6,1.9l-3.4,2l-2.5-3.8l0.5,2.3l1.9,1.8l-3.6,2.2l-1.2,2.6l-0.3,4.7l2,7.2l3.6,7l0,0l0,0l-10.3-2.5l-13.5,0.8l-0.3-1.3l-3.7-3.2
		l1-3.6l-0.9-6.4h-3.3l-2.7,1.7l-1.5-5.2l-1.6-1.3l0.1-4.1l-1.1-2.4l0.7-2.5l1.9-0.9l0.9-2.8l2.8-2.4l-0.2-3.7l1.9-1.4l-0.6-2.8
		l-1.6-1.6l2.2-5.6l2-2.7l-1.1-1.3l0.3-2.6l1.7-1.3l-1-4.6l-1.2-0.9l2.1-2.1l-1.6-2.3l0.1-1.8l1.7-0.7l1.4-2.4l-2.3-3.2l-3.6-0.4
		v-1.6l5.3,0.1l1.4-3l-0.8-1l-4.5,0.1l-0.5-3l1.3-2l-0.8-3.4l-1.7-1.3l1.2-2.8l-3.2-1.8l-0.4-4.1l0.8-1.1l-0.3-3.6l2.2-0.8l-1.8-4.5
		v-7l-1-2.2l1.8-4l-1.2-1.2l1.3-3.3l-0.7-3.3l1.2,0.4l0.6-3.9l-0.3-3l4-2.8l-1.5-6.1l-1.7-3.5l-0.5-4.1l0.8-2l-1.1-2.5l1-3.6
		l2.5-0.9v-1.6l2.5-2.3l-0.7-5.3l-1.3-2.8l1.3-0.6l0.8-5.8l1.4-3.1l1.6-0.5l-0.9-5.6l0.7-2.9l-1.9-0.6l-1-2.5l-0.9-5.6l-1.4-1.7
		l-2.7-7l0.6-4.4l1-1.7l1-5.6l2.3-0.7l-0.8-2.1l0.1-3.7l-1.2-3.4l1.9-2.7l0.8-6.8l3.8-4.9l1.1-4.7l1.6-3.4l1.9,0.4l2.1-1.3v-1.7
		l-2.3-2.9l-0.2-2.4l1.3-1.3l-2.1-7.1l1.9-3.3l-2-3.1l2.7-3.9l7.6-3.9l2.6-10.1l-1.7-1.6l1.3-3l2.2-1l0.3-2l3.2-1.1l1.1-3.3l4.6,2.9
		l6.5-0.4l4,1l2.4,6.2l0.7-3.1l2.6-5.2l10.3-0.3l1.4,2.2l3.3,2.3l3.1,5.3l4.2,3.6l3.4,1.9l0.9,1.9l6.1,2l2.6-0.1l6.1,4.7l4.7,2.8
		l5.2,1.6l4.1,2.4l1.7,2.7l-1.8,2.1l-1.1,3.2l-2.6,2.5l-0.8,4.7l-3.5,3.8l0.4,1.6l5-0.5l7.3,2.3l5.5-0.2l1.5,1.3l2.1-2.7l3.2,1.5
		l2.9-4.2l2.6-0.4l3.1-2.8l1.5-4.3l0.6-6l4.3-0.6l1.7,1.3l1.9,5.8l-0.7,6.4l-1.2,2.7l-9.4,4.1l-1.1,2.1l-2.5,0.6l-4.1,3l-5.7,7.8
		l-7.9,8.8l-2.5,2l-2.1,2.9l0.3,4.1l-2.3,5.5l0.7,0.8l-1.5,2.8l-0.4,5.9l0.4,5.3v0.6L379.45,481.03z M307.35,707.93l-0.9-16.3
		l-0.2-4.2l-0.2-1.9l2.6,3.3l-1.5,2.1l0.6,2l2.3,0.4l1.1,2.8l4.8,4.9l3.7,2.1l2,2.4l4.4,1.8l4.5-0.2l-1,3.2l-8,1.9l-3.3-1.5
		l-10.8-0.8L307.35,707.93z M307.15,682.23l-0.3-0.6l0,0l0,0l0.2,0.1L307.15,682.23z">
		<desc  xmlns="http://www.highcharts.com/svg/namespace">
			<name>Argentina</name>
			<labelrank>2</labelrank>
			<country-abbrev>Arg.</country-abbrev>
			<subregion>South America</subregion>
			<region-wb>Latin America &amp; Caribbean</region-wb>
			<iso-a3>ARG</iso-a3>
			<iso-a2>AR</iso-a2>
			<woe-id>23424747</woe-id>
			<continent>South America</continent>
			<hc-middle-x>0.42</hc-middle-x>
			<hc-middle-y>0.22</hc-middle-y>
			<hc-key>ar</hc-key>
			<hc-a2>AR</hc-a2>
		</desc>
	</path>
	<path id="PE" class="st0" d="M276.25,313.53l-3.4-2l-2.1,1.3l-0.3,4.4l1.9-0.8l1.3,1.7l2.3,0.2l-0.6,1.8l3.8,0.2l0.4-0.2h1
		l-1.1,2.7l0.6,0.5l-3.3,5.5l-2.1,2.1l1.6,2l-3.1,2.4l0.9,2.4l-1.6,2.7l-3.8,1.1l-5.1-3.4l-4.6-2.1l-1.5-3.9l-5.8-2l-2.6-2.4
		l-3.1-0.7l-9.9-3.3l-3.5-2.3l-3.9-1.2l-7.4-3.5l-4-4.2l-3.8-1.9l-0.7-1.8l-3-2.2l0.1-6.5l-0.6-1.8l-6.7-7.8l-0.6-1.8l-2.9-1.9
		l-0.8-3.2l-1.8-2.2l-3.4-1.6l-0.6-3.6l-4.5-5.2l-4-6.8l-0.8-2.5l-2.2-1.5l-2.2-5.5l-2.7-3.6l-5.5-4.3l-3.2-5.7l-4.8-4l-7.2-2.5
		l-3.5-1.8l-0.7-1.8l2-0.7l0.6-2.1l-4.1-3.9l1-2.1l-3.3-3.1l0.2-4.5l4.1-6.1l3.9-3.9l2.5,4.7l-3,1.7l1.4,4.7l2.5-2.4l3.4,1.6h3.4
		l0.9,2.8l4.2,1.5l1-2.9l2.4-2.3l-0.4-2.3l2-6v-3.7l1.6-0.7l3.1-4.4l11.5-5.6l5.6-5.3l4.8-7.1l0.8-6.1l2,0.2l-0.9-4.5l-4.4-3.9
		l3.8-0.5l0.5-0.8l4.4,0.9l4.7,3.8l1,2.9l5.2,3l2.6,0.4l1.6,4.2l3.7,1l0.2,4.2l2.9,1.9l3-1.1l2.7,0.9l4.3-1.6l2.2-2.2l3.5,2.2
		l4.3-2.2l6.8,2.5l3.4,2.1l-6.3,11.5l4.4,0.1l3.9,3.9l-2.4,1.3l-1.2-1.7l-5.4,0.5l-1.2,2.2l-8.1,1.7l-3,1.5l-5.3,4.7l-2.8,1.4
		l-0.3,5.9l-2,3.9l1.3,3.6l-5.9,5.3l0.9,3.9l-2.8,2.7l3.3,2.2l2.4,5.6l3.9,3.2l2.4,3.4l-2.2,3.4l4-0.3l5.1,0.8l1.5,4.5l7.9-0.6
		l7.2-5l0.9,14.4l3.4,0.2l3.2-1.6h3.7l9.7,14.7l-2.7,3.8l0.3,8.7l1.5,4.4l-3.2,4l-1.1,3.7l2.4,2.5L276.25,313.53z">
		<desc  xmlns="http://www.highcharts.com/svg/namespace">
			<name>Peru</name>
			<labelrank>2</labelrank>
			<country-abbrev>Peru</country-abbrev>
			<subregion>South America</subregion>
			<region-wb>Latin America &amp; Caribbean</region-wb>
			<iso-a3>PER</iso-a3>
			<iso-a2>PE</iso-a2>
			<woe-id>23424919</woe-id>
			<continent>South America</continent>
			<hc-middle-x>0.57</hc-middle-x>
			<hc-middle-y>0.61</hc-middle-y>
			<hc-key>pe</hc-key>
			<hc-a2>PE</hc-a2>
		</desc>
	</path>
	<path id="UY" class="st0" d="M421.55,478.33l-1.5,0.9v1.9l-2.6,1.5l0.6,4.4v0.9l1.3,1l-3.5,6.2l-4.1,2.8l-5.7,2.5l-3.5-1.7
		l-3.4-0.4l-4.2,1.2l-0.5-1.3l-3.4-0.9l-2.6-2.4h-6l-4.3-5.3l-0.4-1.5l0.7-6.2l1-0.9l0.8-0.7l0.8-0.7l-1.2-4.6l0.4-5.9l1.5-2.8
		l-0.7-0.8l2.3-5.5l-0.3-4.1l2.1-2.9l3.4,1l3.2-1.7l6.8,7l-0.1,2.7l3.6-2.2l2.6,3.8l5.6,2.6l3.6,4.4l3,1.5l0.9,2.9L421.55,478.33z">
		<desc  xmlns="http://www.highcharts.com/svg/namespace">
			<name>Uruguay</name>
			<labelrank>4</labelrank>
			<country-abbrev>Ury.</country-abbrev>
			<subregion>South America</subregion>
			<region-wb>Latin America &amp; Caribbean</region-wb>
			<iso-a3>URY</iso-a3>
			<iso-a2>UY</iso-a2>
			<woe-id>23424979</woe-id>
			<continent>South America</continent>
			<hc-middle-x>0.51</hc-middle-x>
			<hc-middle-y>0.52</hc-middle-y>
			<hc-key>uy</hc-key>
			<hc-a2>UY</hc-a2>
		</desc>
	</path>
	<path id="PY" class="st0" d="M415.85,394.53l-1.1,1.5l-1.4,8.1l-1,3.5l0.1,0.9l-0.1,0.5l-0.6,6l-1.5,4.3l-3.1,2.8l-2.6,0.4
		l-2.9,4.2l-3.2-1.5l-2.1,2.7l-1.5-1.3l-5.5,0.2l-7.3-2.3l-5,0.5l-0.4-1.6l3.5-3.8l0.8-4.7l2.6-2.5l1.1-3.2l1.8-2.1l-1.7-2.7
		l-4.1-2.4l-5.2-1.6l-4.7-2.8l-6.1-4.7l-2.6,0.1l-6.1-2l-0.9-1.9l-3.4-1.9l-4.2-3.6l-3.1-5.3l-3.3-2.3l3.2-11.4l-0.1-4.7l3-4.6
		l1.6-4.4l16.1-3.6l8.5-0.1l8.3,5.3l0.1,3.3l3,7.7l-1.6,10.5l1.2,1l5.7,0.6l3.3,1l3.9-2l1.9,2l2.9,0.5l2.1,3.1l-0.2,3.6l1.9,9.5h4
		l2.8-1.5L415.85,394.53z">
		<desc  xmlns="http://www.highcharts.com/svg/namespace">
			<name>Paraguay</name>
			<labelrank>4</labelrank>
			<country-abbrev>Para.</country-abbrev>
			<subregion>South America</subregion>
			<region-wb>Latin America &amp; Caribbean</region-wb>
			<iso-a3>PRY</iso-a3>
			<iso-a2>PY</iso-a2>
			<woe-id>23424917</woe-id>
			<continent>South America</continent>
			<hc-middle-x>0.41</hc-middle-x>
			<hc-middle-y>0.37</hc-middle-y>
			<hc-key>py</hc-key>
			<hc-a2>PY</hc-a2>
		</desc>
	</path>
	<path id="BO" class="st0" d="M279.15,320.33l0.8-1.3l0.6,1.1h-1L279.15,320.33z M276.25,332.93l-1.6-2l2.1-2.1l3.3-5.5l3.7-3.5
		l-2,0.2l0.2-2.7l-5.7-3.8l1.9-2.9l-2.4-2.5l1.1-3.7l3.2-4l-1.5-4.4l-0.3-8.7l2.7-3.8l-9.7-14.7l8.1,0.1l-0.3,1.1l4.8-1.7l1.7-2.9
		l3.7-0.1l3.6-4l2.6-0.8l4.1-3.7l11.6-2.7l1.5,1.4l0.3,3.8l-1.2,2.4l0.5,6.9l2.1,5.8l2.1,2.4l5.2,2.5l0.7,1.9l4.7,0.7l1.1-0.9l4,2
		l3.1-0.2l2.6,3.2l6.2,1.2l3.1,4l7.7-0.7l5.6,3.2l0.1,4.7l1.6,3.5l0.2,4.5l-2.9,0.1l3.2,3.9l1.1,7.5l15.6,0.6l0.7,9.2l5.5,2.9
		l2.1,6.1l-2.3,8.5l-3.2,6.4l2.4,2.5l-2.8,1.7l-0.1-3.3l-8.3-5.3l-8.5,0.1l-16.1,3.6l-1.6,4.4l-3,4.6l0.1,4.7l-3.2,11.4l-1.4-2.2
		l-10.3,0.3l-2.6,5.2l-0.7,3.1l-2.4-6.2l-4-1l-6.5,0.4l-4.6-2.9l-1.1,3.3l-3.2,1.1l-0.3,2l-2.2,1l-1.3,3l-3.1,0.8l-3-0.4v-2.6
		l-1.4-4.8l-1.1-1l-1.3-6.4l-3.6-3.8l0.7-2.4l-1.9-0.9l-1.1-4.1l1.7-0.4l-1.2-3l1.7-2.9l-4.9-4.7l0.3-0.8l-2.3-6.9L276.25,332.93z">
		<desc  xmlns="http://www.highcharts.com/svg/namespace">
			<name>Bolivia</name>
			<labelrank>3</labelrank>
			<country-abbrev>Bolivia</country-abbrev>
			<subregion>South America</subregion>
			<region-wb>Latin America &amp; Caribbean</region-wb>
			<iso-a3>BOL</iso-a3>
			<iso-a2>BO</iso-a2>
			<woe-id>23424762</woe-id>
			<continent>South America</continent>
			<hc-middle-x>0.44</hc-middle-x>
			<hc-middle-y>0.56</hc-middle-y>
			<hc-key>bo</hc-key>
			<hc-a2>BO</hc-a2>
		</desc>
	</path>
	<path id="SR" class="st0" d="M396.15,93.33l1.2-2.7l1.2-0.6l11.2,2.5l1-1.8l11.8,0.3l8.1,1.8l-0.6,3.9l-4.1,4.6l-0.4,6.2l0.9,5
		l3,4.4l0.5,1.9l-2.4,3.5l0.4,1.7l-2.3,4.9l-2.8,1.8l-3.8-2.5l-8.1,1.3l-2.8-1.4l-1.5,2l2.1,3.2l-1.2,2.1l-4.9-1.2l-2.4-1l-4.8-8.6
		l-1.4-6.2l-2.7,0.4l-2.9-3.4l-2.5-5.3l2.6-5.4l-0.8-2l2.2-1.7l4.8-0.3l0.4-5L396.15,93.33z">
		<desc  xmlns="http://www.highcharts.com/svg/namespace">
			<name>Suriname</name>
			<labelrank>4</labelrank>
			<country-abbrev>Sur.</country-abbrev>
			<subregion>South America</subregion>
			<region-wb>Latin America &amp; Caribbean</region-wb>
			<iso-a3>SUR</iso-a3>
			<iso-a2>SR</iso-a2>
			<woe-id>23424913</woe-id>
			<continent>South America</continent>
			<hc-middle-x>0.49</hc-middle-x>
			<hc-middle-y>0.50</hc-middle-y>
			<hc-key>sr</hc-key>
			<hc-a2>SR</hc-a2>
		</desc>
	</path>
	<path id="GY" class="st0" d="M396.15,93.33v0.7l-1,1.7l-0.4,5l-4.8,0.3l-2.2,1.7l0.8,2l-2.6,5.4l2.5,5.3l2.9,3.4l2.7-0.4l1.4,6.2
		l4.8,8.6l2.4,1l-3.5,0.6l-3.1-1.6l-2.6,0.5l-2.4,2.7l-8.3,1.1l-2,3.4l-4.1,0.5l-3.6-1.7l-5.4-5l0.1-4.4l-2.8-4.7l1.8-9.8l3.3-3.5
		l-2.1-2.6l0.4-2.3l-5-1.4l1.8-6.2l-2.6-2l-5.7,0.7l-7.1-7.7l2.8-3.1l-1-3.9l0.9-1.9l4.5-0.6l3.8-2l0.9-1.8l-3.9-1.3l-1-3.4l2.6-3.3
		l5.4-2.7l2.3-2.6l-2.3-3l9.5,5.6l5.6,5.4l2.2,3.1l-1.7,8.9l2-3.9l4,0.5l9.9,8.3L396.15,93.33z">
		<desc  xmlns="http://www.highcharts.com/svg/namespace">
			<name>Guyana</name>
			<labelrank>4</labelrank>
			<country-abbrev>Guy.</country-abbrev>
			<subregion>South America</subregion>
			<region-wb>Latin America &amp; Caribbean</region-wb>
			<iso-a3>GUY</iso-a3>
			<iso-a2>GY</iso-a2>
			<woe-id>23424836</woe-id>
			<continent>South America</continent>
			<hc-middle-x>0.43</hc-middle-x>
			<hc-middle-y>0.34</hc-middle-y>
			<hc-key>gy</hc-key>
			<hc-a2>GY</hc-a2>
		</desc>
	</path>
	<path id="GB" class="st0" d="M361.25,676.63l0.3-3.3l2.1-0.6l-2.1-1.4l-0.6-1.8l8.2,0.8l-0.6-1.2l1.5,0.7l-4.2,6.2l-2.9,0.7
		l-2.1,2.5l-3-2.1l-0.7-2.3l1.7-0.2l0.3,1.5L361.25,676.63z M378.15,672.03l2.4,1.2l-4.7,2.3l-2.4-0.1l1.1,1.3l-2.2,1.1l-1.9-1.1
		l1,2.3l-2.3-1.1l-0.6,2l-1.4-3.4l4.8-3.8l-1.3-0.8l1.6-3.3l3.2,0.3l0.8,2.3l1-1.3l2.2-0.1l0.7,1.9L378.15,672.03z">
		<desc  xmlns="http://www.highcharts.com/svg/namespace">
			<name>United Kingdom</name>
			<labelrank>2</labelrank>
			<country-abbrev>U.K.</country-abbrev>
			<subregion>Northern Europe</subregion>
			<region-wb>Europe &amp; Central Asia</region-wb>
			<iso-a3>GBR</iso-a3>
			<iso-a2>GB</iso-a2>
			<woe-id>-90</woe-id>
			<continent>Europe</continent>
			<hc-middle-x>0.67</hc-middle-x>
			<hc-middle-y>0.40</hc-middle-y>
			<hc-key>gb</hc-key>
			<hc-a2>GB</hc-a2>
		</desc>
	</path>
	<path id="CO" class="st0" d="M291.65,143.13l-2,0.7l-0.9-5.7l-2.6-3.9l-2.7,0.5l-4.1,3.5l-2.3-2.7l0.5,3.1l-18,1.3l0.5,6.8l5.1-0.4
		l2.8,4.2l-4-0.5l-5.7,1.8l0.3,7.5l4.9,3.7l0.2,2.4l2.8,4.5l-3.7,31.8l-3.9-3.9l-4.4-0.1l6.3-11.5l-3.4-2.1l-6.8-2.5l-4.3,2.2
		l-3.5-2.2l-2.2,2.2l-4.3,1.6l-2.7-0.9l-3,1.1l-2.9-1.9l-0.2-4.2l-3.7-1l-1.6-4.2l-2.6-0.4l-5.2-3l-1-2.9l-4.7-3.8l-4.4-0.9
		l-0.5,0.8l-5.6-1.4l-3.1-2.6l-2.8-0.7l-0.8,2.3l-5.1,0.7l-5.8-1.1l-0.8-2.4l-2.3-1.5l-4.9-0.5l-5.1-2.3l-3.1-2.1l-2.3-1.9l1.6-2.2
		l2.9,0.1l-1.9-4.2l3.3-5.3l2.4-0.3l4.6-3.3l-0.9-0.8l3.2-5l1.4-4l-4.4-4.7l2-3.7l-2.2-9.8l1.3-3.7l-3.1-4.1l1.1-4.1l-4.2-3.2
		l-2.9-3.6l1-5.6l1.7,1.8l4.4-5l-3.6-5.5l1.6-0.6l5.5,3.4l0.3-3l-2.2-1.4l7.1-6.1l1.6-4.1l5-1.8l-1.3-2.7l1-3.1l-0.7-3.1l0.8-4.1
		l6.9-6.9l3.8,1l2.1,2.3l1.4-6.4l10.2-0.8l5.6-5.2l5.5-2.7l0.8-4.1l4.1-1.5l1.1-1.7l5.3,1.2l1.7,2.6l-2.2,3l-7.2,2.8l-2.8,6
		l-2.7,0.8l-3.9,8.1l-0.2,7.1l-3.8,8.1l4-1.9l2.2,1.6l2.2,5.3l3.6,3.3l0.8,2.5l-1.6,1.9l1,5.7l2.7,0.4l1.7,3.4l10.1,0.3l6.6-1.9
		l5.4,1.2l7.9,8.6l4.1-1.4l4.8,0.6l11.6-2.1l1.7,2.5l-1.7,2.5l-0.3,3.7l-2.1,2.1l0.7,2.6l-0.4,6l2.9,8l3.8,3.4l-5.5,6.1l2.3,0.7
		l4.9,4.2L291.65,143.13z">
		<desc  xmlns="http://www.highcharts.com/svg/namespace">
			<name>Colombia</name>
			<labelrank>2</labelrank>
			<country-abbrev>Col.</country-abbrev>
			<subregion>South America</subregion>
			<region-wb>Latin America &amp; Caribbean</region-wb>
			<iso-a3>COL</iso-a3>
			<iso-a2>CO</iso-a2>
			<woe-id>23424787</woe-id>
			<continent>South America</continent>
			<hc-middle-x>0.45</hc-middle-x>
			<hc-middle-y>0.55</hc-middle-y>
			<hc-key>co</hc-key>
			<hc-a2>CO</hc-a2>
		</desc>
	</path>
</g>
<rect x="30.01" y="346.65" class="st1" width="254.89" height="52.15"/>
<text transform="matrix(1 0 0 1 30.0069 374.9034)" class="st2 st3">South America</text>
<g>
	<rect x="434.04" y="547.17" class="st4" width="226.2" height="120.82"/>
	<g>
		<path class="st5" d="M447.33,570.51c-1.92-3.04-3.84-5.88-5.47-8.92c-2.03-3.75,1.42-7.8,6.18-7.59c4.46,0.3,7.29,4.46,5.26,7.8
			c-1.62,2.63-3.54,5.17-5.37,7.8C447.83,569.91,447.63,570.12,447.33,570.51z"/>
		<path class="st6" d="M447.63,562.31c-1.42,0-2.63-1.12-2.54-2.33c0-1.21,1.32-2.24,2.74-2.13c1.42,0.09,2.63,1.12,2.54,2.33
			C450.26,561.3,449.04,562.31,447.63,562.31z"/>
	</g>
	<text transform="matrix(0.7223 0 0 1 459.9241 568.5621)" class="st7 st8">The red pin the places in the world we have visited</text>
	<g>
		<path class="st9" d="M447.33,602.19c-1.92-3.04-3.84-5.88-5.47-8.92c-2.03-3.75,1.42-7.8,6.18-7.59c4.46,0.3,7.29,4.46,5.26,7.8
			c-1.62,2.63-3.54,5.17-5.37,7.8C447.83,601.58,447.63,601.78,447.33,602.19z"/>
		<path class="st6" d="M447.63,593.98c-1.42,0-2.63-1.12-2.54-2.33c0-1.21,1.32-2.24,2.74-2.13c1.42,0.11,2.63,1.12,2.54,2.33
			C450.26,592.96,449.04,593.98,447.63,593.98z"/>
	</g>
	<text transform="matrix(0.7223 0 0 1 459.9243 599.749)" class="st7 st8">The green pins mark dream travel destinations</text>
	<g>
		<path class="st10" d="M447.5,631.14c-1.88-3.04-3.76-5.87-5.35-8.91c-1.99-3.75,1.39-7.79,6.05-7.59c4.37,0.3,7.14,4.46,5.15,7.79
			c-1.59,2.63-3.47,5.16-5.26,7.79C447.99,630.52,447.79,630.73,447.5,631.14z"/>
		<path class="st6" d="M447.79,622.93c-1.39,0-2.58-1.12-2.48-2.33c0-1.21,1.3-2.24,2.68-2.13c1.39,0.11,2.58,1.12,2.48,2.33
			C450.37,621.91,449.18,622.93,447.79,622.93z"/>
	</g>
	<text transform="matrix(0.7223 0 0 1 459.9243 627.1445)" class="st7 st8">The yellow pins mark favorite destinations</text>
	<g>
		<path class="st11" d="M447.33,660.08c-1.88-3.04-3.76-5.87-5.35-8.91c-1.99-3.75,1.39-7.79,6.05-7.59
			c4.37,0.3,7.14,4.46,5.15,7.79c-1.59,2.63-3.47,5.16-5.26,7.79C447.83,659.46,447.63,659.67,447.33,660.08z"/>
		<path class="st6" d="M447.63,651.87c-1.39,0-2.58-1.12-2.48-2.33c0-1.21,1.3-2.24,2.68-2.13c1.39,0.11,2.58,1.12,2.48,2.33
			C450.2,650.85,449.01,651.87,447.63,651.87z"/>
	</g>
	<text transform="matrix(0.7223 0 0 1 461.7481 654.3185)" class="st7 st8">The blue pins mark my next travel destination</text>
</g>
<g>
	<path class="st5" d="M196.56,141.43c-5.09-8.06-10.19-15.57-14.49-23.63c-5.39-9.94,3.76-20.66,16.36-20.12
		c11.81,0.79,19.33,11.81,13.94,20.66c-4.3,6.97-9.39,13.69-14.24,20.66C197.9,139.84,197.36,140.39,196.56,141.43z"/>
	<path class="st6" d="M197.36,119.68c-3.76,0-6.97-2.96-6.72-6.18c0-3.21,3.51-5.93,7.26-5.64c3.76,0.25,6.97,2.96,6.72,6.18
		C204.33,117.01,201.11,119.68,197.36,119.68z"/>
</g>
<g>
	<path class="st11" d="M373.08,498.26c-5.09-8.06-10.18-15.57-14.48-23.63c-5.38-9.94,3.76-20.66,16.36-20.12
		c11.81,0.79,19.33,11.81,13.94,20.66c-4.3,6.97-9.39,13.69-14.23,20.66C374.42,496.63,373.88,497.17,373.08,498.26z"/>
	<path class="st6" d="M373.88,476.51c-3.76,0-6.97-2.96-6.72-6.18c0-3.21,3.51-5.93,7.26-5.64c3.76,0.29,6.97,2.96,6.72,6.18
		C380.85,473.8,377.63,476.51,373.88,476.51z"/>
</g>
</svg>
